<svg preserveAspectRatio="none" width="100%" height="100%" overflow="visible" style="display: block;" viewBox="0 0 27.8515 25.837" fill="none" xmlns="http://www.w3.org/2000/svg">
<path id="Star 1" d="M12.429 1.0721C12.9149 -0.35737 14.9366 -0.357364 15.4225 1.0721L17.6665 7.67354C17.8844 8.31454 18.4863 8.74564 19.1633 8.74564H26.2677C27.8163 8.74564 28.4414 10.7416 27.1695 11.625L21.5464 15.5301C20.9672 15.9324 20.7244 16.6696 20.9514 17.3373L23.1279 23.7402C23.6187 25.1842 21.982 26.4175 20.7293 25.5475L14.8275 21.4488C14.2853 21.0722 13.5662 21.0722 13.024 21.4488L7.12222 25.5475C5.86952 26.4174 4.23283 25.1842 4.72368 23.7402L6.90014 17.3373C7.1271 16.6696 6.88436 15.9324 6.30513 15.5301L0.682093 11.625C-0.589904 10.7416 0.0351951 8.74564 1.58385 8.74564H8.68827C9.36529 8.74564 9.96716 8.31454 10.185 7.67354L12.429 1.0721Z" fill="var(--fill-0, #FF730F)"/>
</svg>
