<svg preserveAspectRatio="none" width="100%" height="100%" overflow="visible" style="display: block;" viewBox="0 0 39.6798 24.2576" fill="none" xmlns="http://www.w3.org/2000/svg">
<g id="Maestro_1_">
<path id="Left_1_" d="M24.0724 12.1288C24.0724 18.8211 18.6848 24.2576 12.0362 24.2576C5.38763 24.2488 0 18.8211 0 12.1288C0 5.42765 5.38763 0 12.0362 0C18.676 0 24.0724 5.42765 24.0724 12.1288Z" fill="var(--fill-0, #ED0006)"/>
<path id="Right_1_" d="M39.6798 12.1288C39.6798 18.8211 34.2922 24.2576 27.6436 24.2576C20.995 24.2576 15.6074 18.8211 15.6074 12.1288C15.6074 5.42765 21.0038 0 27.6436 0C34.2833 0 39.6798 5.42765 39.6798 12.1288Z" fill="var(--fill-0, #0099DF)"/>
<path id="Middle_1_" fill-rule="evenodd" clip-rule="evenodd" d="M19.8401 2.89762C22.4237 5.11962 24.0726 8.43067 24.0726 12.1281C24.0726 15.8256 22.4325 19.1367 19.8401 21.3587C17.2565 19.1367 15.6076 15.8256 15.6076 12.1281C15.6164 8.43067 17.2565 5.11962 19.8401 2.89762Z" fill="var(--fill-0, #6C6BBD)"/>
</g>
</svg>
