<svg preserveAspectRatio="none" width="100%" height="100%" overflow="visible" style="display: block;" viewBox="0 0 71.6441 41.8842" fill="none" xmlns="http://www.w3.org/2000/svg">
<g id="Group 301">
<rect id="Rectangle 109" width="71.6441" height="41.8842" rx="5" fill="var(--fill-0, #353535)"/>
<path id="Bitpay_1_" fill-rule="evenodd" clip-rule="evenodd" d="M15.9634 24.6216C15.6078 24.8181 15.2241 24.921 14.8216 24.921H14.5035C14.4192 24.921 14.3069 24.9116 13.97 24.8555L15.1024 20.0467C15.3083 19.8596 15.5329 19.7379 15.7949 19.6818C16.057 19.6257 16.2254 19.607 16.3845 19.607C16.8805 19.607 17.2642 19.7473 17.4514 20.0654C17.6385 20.3835 17.7321 20.8232 17.7321 21.3845C17.7321 21.843 17.6573 22.2827 17.5075 22.7037C17.3578 23.1247 17.1519 23.4989 16.8899 23.8357C16.6278 24.1538 16.319 24.4251 15.9634 24.6216ZM18.5089 17.7171C18.1065 17.5113 17.6292 17.4177 17.077 17.4177C16.815 17.4177 16.5623 17.4458 16.3284 17.5019C16.0944 17.5581 15.8792 17.6329 15.6452 17.7452L16.7121 13.2264L14.0168 13.6474L11.0221 26.3898C11.359 26.5489 11.7146 26.6799 12.089 26.7734C12.4633 26.867 12.8189 26.9325 13.1558 26.9792C13.4928 27.026 13.7922 27.0541 14.0449 27.0541C14.3069 27.0728 14.4847 27.0728 14.597 27.0728C15.4019 27.0728 16.1599 26.9137 16.8524 26.605C17.545 26.2963 18.1439 25.8753 18.6586 25.342C19.164 24.8087 19.5664 24.1819 19.8659 23.4709C20.1653 22.7505 20.3057 21.9927 20.3057 21.1881C20.3057 20.6641 20.2402 20.1683 20.1185 19.7192C19.9782 19.2514 19.7816 18.8585 19.5196 18.5217C19.2482 18.1849 18.9113 17.9136 18.5089 17.7171ZM25.6213 16.295L26.0143 14.6204H23.4408L23.0477 16.295H25.6213ZM28.5598 24.7058C28.747 24.7994 29.0091 24.8461 29.346 24.8461C29.6267 24.8461 29.9075 24.8181 30.1695 24.7619C30.3473 24.7245 30.5251 24.6871 30.7029 24.6216L30.1695 26.8857C30.1227 26.895 30.0666 26.9137 30.0198 26.9231C29.608 27.0167 29.112 27.0634 28.5411 27.0634C27.7269 27.0634 27.0906 26.9418 26.6414 26.6986C26.1922 26.4553 25.874 26.1185 25.6774 25.6882C25.4903 25.2671 25.4061 24.7713 25.4248 24.2287C25.4528 23.6767 25.5277 23.0966 25.6774 22.4885L27.4181 15.0507L30.1695 14.6204L29.4957 17.4084H32.4436L31.9102 19.5976H28.9903L28.2042 22.9002C28.1294 23.1715 28.0919 23.4334 28.0732 23.6767C28.0545 23.9199 28.0826 24.1258 28.1668 24.2942C28.2417 24.4719 28.3727 24.6122 28.5598 24.7058ZM60.6219 17.4177H58.0483L56.551 23.7889L56.3451 24.6684C56.2047 24.7058 56.055 24.7432 55.9146 24.7713C55.6525 24.8274 55.3718 24.8555 55.091 24.8555C54.7635 24.8555 54.5015 24.8087 54.3049 24.7152C54.1178 24.6216 53.9867 24.4813 53.9025 24.3129C53.8276 24.1351 53.7996 23.9293 53.8183 23.6954C53.837 23.4521 53.8838 23.1995 53.9493 22.9189L54.7354 19.6163L55.2501 17.4271H52.6204L51.4319 22.4885C51.2915 23.0966 51.2073 23.6767 51.1792 24.2287C51.1511 24.7806 51.2354 25.2671 51.4319 25.6882C51.6191 26.1092 51.9372 26.446 52.3958 26.6986C52.845 26.9418 53.4814 27.0634 54.2956 27.0634C54.8664 27.0634 55.3531 27.0167 55.7742 26.9231C55.7929 26.9231 55.8116 26.9137 55.821 26.9137V26.9231C55.7087 27.447 55.4747 27.8774 55.1004 28.2048C54.7261 28.5416 54.1739 28.7007 53.4346 28.7007C53.1164 28.7007 52.8357 28.682 52.5736 28.6445L52.0683 30.7964C52.4145 30.8431 52.7889 30.8618 53.21 30.8618C53.9961 30.8618 54.6793 30.7683 55.2688 30.5905C55.8584 30.4128 56.3638 30.1321 56.7849 29.7672C57.206 29.4024 57.5617 28.9439 57.8424 28.3826C58.1232 27.8306 58.3571 27.1757 58.5256 26.4179L60.3037 18.8491H60.2943L60.6219 17.4177ZM20.5022 27.0728L22.7763 17.4084H25.3499L23.0758 27.0728H20.5022ZM47.9973 19.607C46.7995 19.607 46.5655 19.607 46.0789 19.8689C45.7326 20.056 45.4425 20.3273 45.1898 20.6454C44.9371 20.9635 44.7406 21.3378 44.5909 21.7588C44.4505 22.1798 44.3756 22.6195 44.3756 23.0686C44.3756 23.6299 44.4692 24.0696 44.6564 24.3971C44.8435 24.7245 45.1804 24.8836 45.6764 24.8836C45.9385 24.8836 46.1818 24.8274 46.397 24.7245C46.6123 24.6216 46.8369 24.4438 47.0802 24.2006C47.0989 23.9106 47.1364 23.6018 47.1925 23.2837C47.2393 22.9937 47.2955 22.713 47.3516 22.4698L47.3703 22.4043L47.9973 19.607ZM49.8222 22.8534C49.6631 23.5176 49.6163 24.1912 49.6819 24.8555C49.7474 25.5291 50.0094 26.5582 50.2527 27.0728H47.7634C47.5388 26.6892 47.4826 26.4553 47.4545 26.2869C47.4452 26.2308 47.4358 26.184 47.4171 26.1466C47.0896 26.4179 46.7339 26.6331 46.3409 26.8108C45.9478 26.9886 45.508 27.0728 45.0214 27.0728C44.4411 27.0728 43.9545 26.9699 43.5427 26.7641C43.1309 26.5582 42.794 26.2869 42.5414 25.9408C42.2793 25.5946 42.0922 25.1923 41.9799 24.7339C41.8676 24.2754 41.802 23.7796 41.802 23.2557C41.802 22.4511 41.9424 21.6933 42.2232 20.9822C42.5039 20.2712 42.897 19.6444 43.4023 19.1205C43.9077 18.5872 45.1149 17.4177 47.1083 17.4177H51.1043L49.8222 22.8534ZM34.7645 24.8555C34.961 24.9023 35.2043 24.9303 35.4945 24.9303C35.9437 24.9303 36.3554 24.8461 36.7298 24.6777C37.1041 24.5093 37.4223 24.2661 37.6843 23.9667C37.9464 23.658 38.1523 23.2931 38.2926 22.8627C38.433 22.4324 38.5079 21.9646 38.5079 21.4407C38.5079 20.9355 38.3956 20.5051 38.1803 20.1496C37.9557 19.7941 37.572 19.607 37.0292 19.607C36.6455 19.607 36.0092 19.607 36.0092 19.607L34.7645 24.8555ZM41.0908 21.2348C41.0908 22.0956 40.9504 22.8814 40.6697 23.5925C40.3889 24.3035 40.0052 24.921 39.5092 25.4355C39.0132 25.9501 38.4236 26.3524 37.7311 26.6424C37.0386 26.9325 36.2899 27.0728 35.4757 27.0728C35.0827 27.0728 34.6896 27.0354 34.2872 26.9699L33.5011 30.1602H30.9182L33.9129 17.4177C34.2217 17.4177 35.5038 17.4177 36.4584 17.4177H37.3568C38.0119 17.4177 38.564 17.5206 39.0413 17.7171C39.5092 17.9136 39.9023 18.1942 40.2018 18.5404C40.5012 18.8866 40.7258 19.2889 40.8756 19.7566C41.0159 20.2151 41.0908 20.7109 41.0908 21.2348Z" fill="var(--fill-0, white)"/>
</g>
</svg>
