<svg preserveAspectRatio="none" width="100%" height="100%" overflow="visible" style="display: block;" viewBox="0 0 9.27578 11.2285" fill="none" xmlns="http://www.w3.org/2000/svg">
<path id="Vector" d="M7.19105 7.05112L9.27578 7.7251C8.95613 8.91015 8.42347 9.79159 7.67772 10.3693C6.93685 10.942 5.99501 11.2285 4.85212 11.2285C3.43819 11.2285 2.27601 10.7372 1.36559 9.75458C0.455166 8.76698 0 7.41897 0 5.71051C0 3.9033 0.457609 2.50097 1.37283 1.50354C2.28805 0.501175 3.49142 0 4.98293 0C6.28551 0 7.34358 0.392548 8.15714 1.17765C8.64137 1.6418 9.00456 2.30839 9.24672 3.17744L7.11845 3.69591C6.99252 3.13301 6.72864 2.68861 6.3267 2.36272C5.92965 2.03682 5.44534 1.87387 4.87394 1.87387C4.08464 1.87387 3.44299 2.16273 2.94907 2.74045C2.45996 3.31817 2.21545 4.25387 2.21545 5.54756C2.21545 6.92026 2.45761 7.8979 2.94183 8.48055C3.42606 9.06329 4.05558 9.35461 4.83039 9.35461C5.4018 9.35461 5.89326 9.16944 6.30488 8.7991C6.71651 8.42876 7.0119 7.84612 7.19105 7.05112Z" fill="var(--fill-0, white)"/>
</svg>
