<svg preserveAspectRatio="none" width="100%" height="100%" overflow="visible" style="display: block;" viewBox="0 0 14.3 15.3" fill="none" xmlns="http://www.w3.org/2000/svg">
<path id="Vector" fill-rule="evenodd" clip-rule="evenodd" d="M4.19605 5.47231L5.42917 4.11516C5.49592 4.04175 5.53808 3.95328 5.55389 3.85916C5.5697 3.76505 5.55741 3.66717 5.517 3.57305L4.32428 0.806036C4.28212 0.706273 4.21361 0.629097 4.13106 0.582039C4.0485 0.534981 3.95188 0.514276 3.85 0.529334L0.986761 0.960386C0.888392 0.975445 0.800563 1.02062 0.733812 1.09027C0.668818 1.15803 0.623147 1.25026 0.605581 1.35567C0.458028 2.25166 0.473837 3.17588 0.62666 4.1001C1.02541 6.51888 2.35514 8.93955 4.15213 10.8652C5.94737 12.7908 8.20634 14.2157 10.4636 14.643C11.326 14.8067 12.1903 14.8237 13.0247 14.6656C13.123 14.6468 13.2091 14.5978 13.2723 14.5263C13.3356 14.4548 13.3795 14.3606 13.3935 14.2552L13.7958 11.1852C13.8099 11.076 13.7923 10.9725 13.7466 10.884C13.7027 10.7974 13.6307 10.7221 13.5376 10.6769L10.9554 9.39884C10.8676 9.35554 10.7762 9.34237 10.6884 9.35931C10.6006 9.37625 10.518 9.41954 10.4495 9.49295L9.183 10.8143C9.06707 10.9348 8.92654 11.0139 8.77899 11.0459C8.63144 11.0779 8.4751 11.0628 8.32403 10.9969C7.48263 10.6336 6.57623 9.93153 5.79806 9.09767C5.01989 8.2638 4.36468 7.29252 4.02566 6.39089C3.96594 6.22901 3.95013 6.06148 3.97999 5.90336C4.01161 5.74525 4.08363 5.59655 4.19605 5.47231ZM5.68212 4.3768L4.449 5.73396C4.384 5.80548 4.3436 5.88831 4.32604 5.97677C4.31023 6.06713 4.31725 6.16124 4.35239 6.25159C4.67208 7.1024 5.29919 8.03039 6.04749 8.83226C6.7958 9.63413 7.66004 10.3061 8.45578 10.6487C8.54185 10.6863 8.62968 10.6939 8.71224 10.6769C8.7948 10.66 8.87385 10.6148 8.93884 10.5452L10.2053 9.22378C10.3265 9.09766 10.4741 9.01861 10.6287 8.98849C10.785 8.96026 10.9484 8.98096 11.1012 9.05814L13.6834 10.3362C13.8467 10.4172 13.9732 10.5471 14.054 10.7052C14.1348 10.8633 14.1664 11.0478 14.1419 11.236L13.7396 14.3061C13.715 14.4943 13.6377 14.6599 13.5235 14.786C13.4094 14.914 13.2565 15.0025 13.0844 15.0345C12.2079 15.2002 11.305 15.1832 10.4021 15.0119C8.07284 14.5733 5.74712 13.1089 3.9027 11.1306C2.05652 9.15602 0.689898 6.66194 0.278856 4.16598C0.119006 3.19847 0.103197 2.23095 0.257777 1.29167C0.287639 1.10533 0.370198 0.943445 0.489646 0.821094C0.609094 0.698743 0.761918 0.615921 0.937577 0.589569L3.80082 0.158517C3.97823 0.132164 4.15038 0.167928 4.29617 0.252633C4.44373 0.33922 4.56493 0.474747 4.64047 0.649803L5.83319 3.41682C5.90345 3.58246 5.92453 3.75563 5.89818 3.92316C5.87359 4.08881 5.79981 4.24692 5.68212 4.3768Z" fill="var(--fill-0, white)" stroke="var(--stroke-0, white)" stroke-width="0.3"/>
</svg>
