<svg preserveAspectRatio="none" width="100%" height="100%" overflow="visible" style="display: block;" viewBox="0 0 95.7732 80.0005" fill="none" xmlns="http://www.w3.org/2000/svg">
<g id="Group">
<g id="Group_2">
<path id="Vector" d="M91.8785 49.0185H81.4433C80.934 49.0185 80.5174 48.6019 80.5174 48.0926C80.5174 47.5834 80.934 47.1667 81.4433 47.1667H90.9526V25.2037C90.9526 24.6945 91.3692 24.2778 91.8785 24.2778C92.3877 24.2778 92.8044 24.6945 92.8044 25.2037V48.0926C92.8044 48.6019 92.397 49.0185 91.8785 49.0185Z" fill="var(--fill-0, #1B6025)"/>
</g>
<g id="Group_3">
<path id="Vector_2" d="M88.3507 65.1582C87.8415 65.1582 87.4248 64.7415 87.4248 64.2323V48.0934C87.4248 47.5841 87.8415 47.1674 88.3507 47.1674C88.86 47.1674 89.2766 47.5841 89.2766 48.0934V64.2323C89.2766 64.7415 88.86 65.1582 88.3507 65.1582Z" fill="var(--fill-0, #1B6025)"/>
</g>
<g id="Group_4">
<path id="Vector_3" d="M24.9525 55.0743H6.10995C5.60069 55.0743 5.18402 54.6577 5.18402 54.1484V26.9632C5.18402 26.4539 5.60069 26.0373 6.10995 26.0373C6.61921 26.0373 7.03587 26.4539 7.03587 26.9632V53.2225H24.9525C25.4618 53.2225 25.8785 53.6391 25.8785 54.1484C25.8785 54.6577 25.4618 55.0743 24.9525 55.0743Z" fill="var(--fill-0, #1B6025)"/>
</g>
<g id="Group_5">
<path id="Vector_4" d="M14.2581 76.6669H4.69326C4.184 76.6669 3.76733 76.2502 3.76733 75.7409C3.76733 75.2317 4.184 74.815 4.69326 74.815H13.3321V54.1391C13.3321 53.6298 13.7488 53.2132 14.2581 53.2132C14.7673 53.2132 15.184 53.6298 15.184 54.1391V75.7409C15.184 76.2595 14.7766 76.6669 14.2581 76.6669Z" fill="var(--fill-0, #1B6025)"/>
</g>
<g id="Group_6">
<path id="Vector_5" d="M20.6377 44.3069H6.10995C5.60069 44.3069 5.18402 43.8902 5.18402 43.3809C5.18402 42.8717 5.60069 42.455 6.10995 42.455H19.7118V30.5106C19.7118 30.0013 20.1285 29.5846 20.6377 29.5846C21.147 29.5846 21.5637 30.0013 21.5637 30.5106V43.3809C21.5637 43.8902 21.147 44.3069 20.6377 44.3069Z" fill="var(--fill-0, #1B6025)"/>
</g>
<g id="Group_7">
<path id="Vector_6" d="M53.4711 23.7133C52.9618 23.7133 52.5452 23.2966 52.5452 22.7873V14.9355C52.5452 14.4262 52.9618 14.0096 53.4711 14.0096H68.8507V5.49104C68.8507 4.98178 69.2674 4.56511 69.7767 4.56511C70.2859 4.56511 70.7026 4.98178 70.7026 5.49104V14.9355C70.7026 15.4447 70.2859 15.8614 69.7767 15.8614H54.397V22.7873C54.397 23.2966 53.9804 23.7133 53.4711 23.7133Z" fill="var(--fill-0, #1B6025)"/>
</g>
<g id="Group_8">
<path id="Vector_7" d="M53.4711 19.1679H38.0082C37.4989 19.1679 37.0822 18.7512 37.0822 18.2419V6.78824C37.0822 6.27898 37.4989 5.86231 38.0082 5.86231C38.5174 5.86231 38.9341 6.27898 38.9341 6.78824V17.316H53.4711C53.9804 17.316 54.397 17.7327 54.397 18.2419C54.397 18.7512 53.9804 19.1679 53.4711 19.1679Z" fill="var(--fill-0, #1B6025)"/>
</g>
<path id="Vector_8" d="M70.0081 0.000229428C75.4803 0.000229428 75.4896 8.50023 70.0081 8.50023C64.5451 8.50023 64.5359 0.000229428 70.0081 0.000229428Z" fill="var(--fill-0, #1B6025)"/>
<path id="Vector_9" d="M37.7303 1.73234C43.2025 1.73234 43.2118 10.2323 37.7303 10.2323C32.2581 10.2323 32.2488 1.73234 37.7303 1.73234Z" fill="var(--fill-0, #1B6025)"/>
<path id="Vector_10" d="M21.1099 25.0377C26.5822 25.0377 26.5914 33.5377 21.1099 33.5377C15.647 33.5377 15.6377 25.0377 21.1099 25.0377Z" fill="var(--fill-0, #1B6025)"/>
<path id="Vector_11" d="M5.98956 21.8888C11.4618 21.8888 11.471 30.3888 5.98956 30.3888C0.526601 30.3888 0.517342 21.8888 5.98956 21.8888Z" fill="var(--fill-0, #1B6025)"/>
<path id="Vector_12" d="M4.1007 71.5005C9.57292 71.5005 9.58218 80.0005 4.1007 80.0005C-1.36227 79.9913 -1.37153 71.5005 4.1007 71.5005Z" fill="var(--fill-0, #1B6025)"/>
<path id="Vector_13" d="M88.323 60.6117C93.7952 60.6117 93.8044 69.1117 88.323 69.1117C82.86 69.1117 82.8507 60.6117 88.323 60.6117Z" fill="var(--fill-0, #1B6025)"/>
<path id="Vector_14" d="M91.6655 20.3991C97.1377 20.3991 97.147 28.8991 91.6655 28.8991C86.1933 28.8991 86.184 20.3991 91.6655 20.3991Z" fill="var(--fill-0, #1B6025)"/>
</g>
</svg>
