<svg preserveAspectRatio="none" width="100%" height="100%" overflow="visible" style="display: block;" viewBox="0 0 32.612 69.7912" fill="none" xmlns="http://www.w3.org/2000/svg">
<g id="Group">
<path id="Vector" d="M22.1486 69.7912C21.7134 69.7912 21.269 69.5134 21.1764 69.0875C18.4634 57.4486 9.88008 55.069 8.47267 54.7542C8.306 54.782 8.1301 54.7542 7.97269 54.6894C7.74121 54.5968 7.56527 54.4116 7.47268 54.1801C7.26898 53.6801 7.09304 53.3097 6.97267 53.0597L1.00971 53.6245C0.713412 53.6523 0.41711 53.532 0.222666 53.3097C0.0282212 53.0783 -0.045845 52.7727 0.0282291 52.4857L12.4819 2.41157C12.8801 0.791203 14.5005 -0.245833 16.1301 0.050463L29.9912 2.53195C30.8338 2.6801 31.556 3.14306 32.0468 3.84676C32.5375 4.55047 32.7134 5.40231 32.556 6.24491C32.269 7.75417 30.9541 8.84676 29.4171 8.84676L22.1949 8.77269C21.8708 8.76343 21.4912 8.91158 21.2319 9.17084C20.9727 9.43936 20.8338 9.79121 20.8523 10.1616L23.1023 68.8375C23.1208 69.3005 22.7968 69.6986 22.3431 69.782C22.269 69.782 22.2134 69.7912 22.1486 69.7912ZM8.97268 52.9671C10.6579 53.356 17.1764 55.3005 21.019 63.0783L18.9912 10.2264C18.9634 9.35602 19.2875 8.49491 19.8986 7.87454C20.5097 7.24491 21.3431 6.91158 22.2042 6.92084L29.3986 6.99491C30.0467 6.99491 30.6023 6.53195 30.7227 5.90232C30.7875 5.55047 30.7134 5.18935 30.5097 4.90232C30.306 4.61528 30.0005 4.42083 29.6579 4.35602L15.7967 1.87454C15.1116 1.75416 14.4356 2.18009 14.269 2.86528L2.1301 51.6708L7.38935 51.1708C7.71343 51.1431 8.0375 51.282 8.23195 51.5505C8.25973 51.5968 8.54675 52.0042 8.97268 52.9671Z" fill="var(--fill-0, #1B6025)"/>
</g>
</svg>
