<svg preserveAspectRatio="none" width="100%" height="100%" overflow="visible" style="display: block;" viewBox="0 0 3.88774 5.1936" fill="none" xmlns="http://www.w3.org/2000/svg">
<path id="Vector" d="M0 5.1936V0H1.92134C2.25945 0 2.51772 0.0165236 2.69606 0.0496621C2.94627 0.0921236 3.15584 0.173632 3.32495 0.294094C3.49405 0.412155 3.62947 0.578678 3.73141 0.79357C3.83569 1.00846 3.88774 1.24468 3.88774 1.50212C3.88774 1.94382 3.74997 2.31812 3.47431 2.62514C3.19866 2.92985 2.70068 3.08215 1.98036 3.08215H0.674064V5.1936H0ZM0.674064 2.46923H1.99077C2.4262 2.46923 2.73543 2.38662 2.91848 2.22129C3.10143 2.05597 3.19286 1.82335 3.19286 1.52335C3.19286 1.30606 3.13846 1.12071 3.02965 0.9672C2.9231 0.811292 2.78179 0.708555 2.60571 0.658986C2.49228 0.628248 2.28262 0.612924 1.97691 0.612924H0.674064V2.46923Z" fill="var(--fill-0, white)"/>
</svg>
