<svg preserveAspectRatio="none" width="100%" height="100%" overflow="visible" style="display: block;" viewBox="0 0 36.5369 56.8716" fill="none" xmlns="http://www.w3.org/2000/svg">
<path id="Vector" d="M35.9815 30.9529C40.0556 53.4807 20.787 61.3326 8.48149 54.4715C4.69445 52.3604 1.56482 48.8603 0 43.9622C2.5 43.7863 5.04629 43.5178 7.64814 43.1381H7.67592C8.14814 43.0641 8.62963 42.9992 9.10186 42.9252C15.0833 41.99 19.2685 36.8418 19.2685 31.0826C19.2685 30.1104 19.1482 29.1104 18.8982 28.1196C17.6389 23.24 13.5278 19.7955 8.73148 19.2029C7.64814 19.0826 6.52778 19.0826 5.39815 19.2678C4.17593 19.4622 2.98148 19.6196 1.80555 19.7585C7.80555 -1.30631 18.2407 -4.72298 26.3889 5.69369C30.4259 10.8511 33.8889 19.4344 35.9815 30.9529Z" fill="var(--fill-0, #6CB41B)"/>
</svg>
