<svg preserveAspectRatio="none" width="100%" height="100%" overflow="visible" style="display: block;" viewBox="0 0 31 31" fill="none" xmlns="http://www.w3.org/2000/svg">
<g id="insurance 1" clip-path="url(#clip0_4_569)">
<path id="Vector" d="M23.25 30.9999C23.1208 30.9999 22.9917 30.9741 22.8702 30.9224C22.5706 30.7946 15.5 27.7152 15.5 21.3822V16.1923C15.5 15.7776 15.7635 15.4095 16.1575 15.2752L22.9387 12.9683C23.1402 12.8998 23.3598 12.8998 23.5613 12.9683L30.3425 15.2752C30.7365 15.4095 31 15.7776 31 16.1923V21.3822C31 27.7152 23.9294 30.7946 23.6298 30.9237C23.5083 30.9741 23.3792 30.9999 23.25 30.9999ZM17.4375 16.8859V21.3809C17.4375 25.686 21.9015 28.2745 23.25 28.9565C24.5985 28.2745 29.0625 25.686 29.0625 21.3809V16.8859L23.25 14.9083L17.4375 16.8859Z" fill="var(--fill-0, white)"/>
<path id="Vector_2" d="M22.9271 25.1876C22.6713 25.1876 22.4233 25.0869 22.2425 24.9034L19.6591 22.3201C19.2807 21.9417 19.2807 21.3281 19.6591 20.9497C20.0376 20.5712 20.6511 20.5712 21.0296 20.9497L22.8237 22.7438L26.0271 18.4709C26.3448 18.0434 26.9545 17.9556 27.3833 18.2785C27.8109 18.5988 27.8974 19.2059 27.5758 19.6347L23.7008 24.8014C23.5329 25.0262 23.2758 25.1657 22.9942 25.1863C22.9723 25.1863 22.9503 25.1876 22.9271 25.1876Z" fill="var(--fill-0, white)"/>
<path id="Vector_3" d="M13.6788 27.125H3.55208C1.59263 27.125 0 25.5324 0 23.5729V3.55208C0 1.59263 1.59263 0 3.55208 0H18.4063C20.3657 0 21.9583 1.59263 21.9583 3.55208V10.5658C21.9583 11.1006 21.5243 11.5346 20.9896 11.5346C20.4548 11.5346 20.0208 11.1006 20.0208 10.5658V3.55208C20.0208 2.66212 19.2962 1.9375 18.4063 1.9375H3.55208C2.66213 1.9375 1.9375 2.66212 1.9375 3.55208V23.5729C1.9375 24.4629 2.66213 25.1875 3.55208 25.1875H13.6788C14.2135 25.1875 14.6475 25.6215 14.6475 26.1562C14.6475 26.691 14.2135 27.125 13.6788 27.125Z" fill="var(--fill-0, white)"/>
<path id="Vector_4" d="M17.1146 12.2709H4.84375C4.309 12.2709 3.875 11.8369 3.875 11.3021C3.875 10.7674 4.309 10.3334 4.84375 10.3334H17.1146C17.6493 10.3334 18.0833 10.7674 18.0833 11.3021C18.0833 11.8369 17.6493 12.2709 17.1146 12.2709Z" fill="var(--fill-0, white)"/>
<path id="Vector_5" d="M11.9479 17.4375H4.84375C4.309 17.4375 3.875 17.0035 3.875 16.4687C3.875 15.934 4.309 15.5 4.84375 15.5H11.9479C12.4827 15.5 12.9167 15.934 12.9167 16.4687C12.9167 17.0035 12.4827 17.4375 11.9479 17.4375Z" fill="var(--fill-0, white)"/>
<path id="Vector_6" d="M10.6562 7.10412H4.84375C4.309 7.10412 3.875 6.67012 3.875 6.13537C3.875 5.60062 4.309 5.16662 4.84375 5.16662H10.6562C11.191 5.16662 11.625 5.60062 11.625 6.13537C11.625 6.67012 11.191 7.10412 10.6562 7.10412Z" fill="var(--fill-0, white)"/>
</g>
<defs>
<clipPath id="clip0_4_569">
<rect width="31" height="31" fill="white"/>
</clipPath>
</defs>
</svg>
