<svg preserveAspectRatio="none" width="100%" height="100%" overflow="visible" style="display: block;" viewBox="0 0 7.59387 7.90428" fill="none" xmlns="http://www.w3.org/2000/svg">
<g id="ai">
<path id="Shape_3" d="M1.65166 3.92395L0.260186 3.84607C0.290334 3.51255 0.365792 3.23456 0.486476 3.01218C0.848436 2.36736 1.59894 2.04492 2.73772 2.04492C3.46174 2.04492 4.02742 2.16352 4.4347 2.40071C4.73636 2.57861 4.92492 2.78244 5.00039 3.01218C5.07576 3.24204 5.11349 3.5459 5.11349 3.92395V6.87028C5.11349 7.10753 5.12664 7.27798 5.15305 7.38173C5.17945 7.48549 5.24925 7.6152 5.36235 7.77087H3.75591C3.73325 7.50405 3.72201 7.35947 3.72201 7.33729C3.26943 7.71534 2.71132 7.90428 2.04769 7.90428C1.4292 7.90428 0.933313 7.73937 0.560024 7.40954C0.186644 7.07972 0 6.66647 0 6.16989C0 5.90298 0.0602938 5.65095 0.180978 5.41379C0.279096 5.22846 0.401604 5.06725 0.54869 4.93014C0.695777 4.79304 0.863604 4.6855 1.05208 4.60771C1.24064 4.52992 1.39906 4.4743 1.52723 4.44095C1.6555 4.4076 1.81382 4.3724 2.00238 4.33535C2.81693 4.1722 3.40144 4.03509 3.75591 3.92395C3.75591 3.82759 3.74842 3.74232 3.73325 3.66822C3.71818 3.59413 3.68428 3.50516 3.63148 3.40141C3.57868 3.29757 3.48065 3.21793 3.33731 3.16231C3.19406 3.10669 3.01307 3.07897 2.79427 3.07897C2.30404 3.07897 1.96849 3.19751 1.78742 3.43476C1.69697 3.5459 1.65166 3.70897 1.65166 3.92395ZM3.75591 5.6139V5.00239C3.46932 5.14328 3.07337 5.25442 2.56807 5.336C2.34936 5.36566 2.17395 5.39716 2.04203 5.43051C1.91002 5.46386 1.77618 5.53796 1.64042 5.6528C1.50466 5.76773 1.43678 5.91785 1.43678 6.10309C1.43678 6.31808 1.51973 6.48114 1.68564 6.59237C1.85155 6.70352 2.07401 6.75914 2.35311 6.75914C2.67743 6.75914 2.96027 6.69613 3.20155 6.57011C3.44291 6.44409 3.60133 6.29212 3.6767 6.11427C3.72951 6.00304 3.75591 5.83628 3.75591 5.6139Z" fill="var(--fill-0, white)"/>
<path id="Shape_4" d="M6.24761 0H7.59386V1.34533H6.24761V0ZM6.24761 2.21257H7.59386V7.77179H6.24761V2.21257Z" fill="var(--fill-0, white)"/>
</g>
</svg>
