<svg preserveAspectRatio="none" width="100%" height="100%" overflow="visible" style="display: block;" viewBox="0 0 4.50269 5.37074" fill="none" xmlns="http://www.w3.org/2000/svg">
<path id="Vector" d="M3.82872 3.46126L4.50269 3.6348C4.36138 4.19926 4.10664 4.63034 3.73838 4.92794C3.37238 5.22314 2.92418 5.37074 2.39379 5.37074C1.84483 5.37074 1.39782 5.25738 1.05273 5.03068C0.709907 4.80157 0.448194 4.47092 0.267503 4.03865C0.0891665 3.60646 0 3.14234 0 2.64637C0 2.10554 0.100756 1.6344 0.302268 1.23286C0.506043 0.829015 0.79446 0.523108 1.16734 0.315323C1.54257 0.105139 1.95492 0 2.4042 0C2.91377 0 3.34232 0.132276 3.68967 0.39683C4.03711 0.661292 4.27918 1.03329 4.41587 1.51274L3.75223 1.67215C3.63409 1.29425 3.46272 1.01917 3.23804 0.846738C3.01335 0.674307 2.73082 0.588092 2.39035 0.588092C1.99891 0.588092 1.67111 0.683723 1.40705 0.875077C1.14534 1.06634 0.961208 1.32378 0.854658 1.64732C0.748109 1.96855 0.694881 2.3004 0.694881 2.64286C0.694881 3.08455 0.757434 3.47068 0.882451 3.80132C1.00982 4.12957 1.20672 4.3752 1.47314 4.53822C1.73946 4.70114 2.02779 4.78265 2.33821 4.78265C2.71579 4.78265 3.03535 4.6716 3.29715 4.4496C3.55886 4.2276 3.73602 3.89815 3.82872 3.46126Z" fill="var(--fill-0, white)"/>
</svg>
