<svg preserveAspectRatio="none" width="100%" height="100%" overflow="visible" style="display: block;" viewBox="0 0 17.0456 50.1579" fill="none" xmlns="http://www.w3.org/2000/svg">
<g id="Group">
<path id="Vector" d="M15.5845 50.1579C13.4364 50.1579 9.10304 49.232 5.63082 45.982C1.51971 42.1302 -0.359914 36.2413 0.0567524 28.4728C1.08453 9.07461 10.816 0.574603 11.2234 0.222751C11.6123 -0.110582 12.1956 -0.0642853 12.529 0.324604C12.8623 0.713493 12.816 1.29683 12.4271 1.63016C12.3345 1.7135 2.89009 10.0283 1.9086 28.5746C1.52897 35.7691 3.20489 41.1765 6.89933 44.6394C10.5845 48.0931 15.0938 48.3987 16.0105 48.2876C16.5197 48.2228 16.9827 48.5931 17.0382 49.1024C17.103 49.6117 16.7327 50.0746 16.2234 50.1302C16.0475 50.1487 15.8345 50.1579 15.5845 50.1579Z" fill="var(--fill-0, #1B6025)"/>
</g>
</svg>
