<svg preserveAspectRatio="none" width="100%" height="100%" overflow="visible" style="display: block;" viewBox="0 0 37.1533 56.8304" fill="none" xmlns="http://www.w3.org/2000/svg">
<path id="Vector" d="M29.4403 42.1641C32.0792 42.303 34.644 42.3493 37.1533 42.303C35.0977 51.3493 27.6533 56.3308 19.9588 56.7938C9.51439 57.4326 -1.38375 49.729 0.144026 32.5715C1.25514 20.1271 4.24585 10.8678 8.16252 5.46968C15.3199 -4.38217 25.5699 -1.40994 33.1811 18.3493C31.9959 18.3215 30.7922 18.266 29.5607 18.1827C27.4218 18.0438 25.3662 18.4697 23.5514 19.3401C20.1255 20.9882 17.5607 24.2104 16.9125 28.2104C16.8014 28.8586 16.7551 29.4975 16.7551 30.1456C16.7551 34.5067 19.144 38.4234 22.7922 40.516C24.3292 41.4049 26.0885 41.9604 27.9959 42.0808C28.4774 42.1086 28.9588 42.1271 29.4403 42.1641Z" fill="var(--fill-0, #6CB41B)"/>
</svg>
