<svg preserveAspectRatio="none" width="100%" height="100%" overflow="visible" style="display: block;" viewBox="0 0 163.972 150.919" fill="none" xmlns="http://www.w3.org/2000/svg">
<g id="Group 353">
<path id="Vector" d="M65.1852 51.1391C65.1852 50.5002 65.1574 49.8705 65.0926 49.2502C65.0926 49.2409 65.0926 49.2409 65.0926 49.2409C67.1574 48.4539 69.1852 47.4724 71.1852 46.2687C70.5463 43.065 69.2685 39.9724 67.4537 37.2594C65.2037 37.8242 63.0555 38.565 61.0463 39.4631C60.2407 38.4817 59.3426 37.5742 58.3704 36.7687C59.2685 34.7594 60.0185 32.602 60.5741 30.3705C57.8611 28.5557 54.7778 27.2779 51.5648 26.6483C50.3796 28.6391 49.3889 30.6576 48.5926 32.7317C47.963 32.6668 47.3333 32.6391 46.6944 32.6391C46.0555 32.6391 45.4259 32.6668 44.7963 32.7317C44 30.6576 43.0092 28.6391 41.8241 26.6483C38.6111 27.2779 35.5278 28.5557 32.8148 30.3705C33.3704 32.6113 34.1204 34.7594 35.0185 36.7687C34.037 37.5742 33.1389 38.4817 32.3426 39.4631C30.3241 38.565 28.1759 37.815 25.9352 37.2594C24.1204 39.9724 22.8426 43.065 22.2037 46.2687C24.2037 47.4539 26.2222 48.4539 28.2963 49.2409C28.2315 49.8613 28.2037 50.5002 28.2037 51.1391C28.2037 51.778 28.2315 52.4168 28.2963 53.0372C26.2222 53.8335 24.2037 54.8242 22.2037 56.0094C22.8426 59.2224 24.1204 62.3057 25.9352 65.0187C28.1852 64.4631 30.3241 63.7131 32.3426 62.815C33.1481 63.7965 34.0463 64.7039 35.0185 65.5094C34.1204 67.5187 33.3704 69.6761 32.8148 71.9076C35.5278 73.7224 38.6111 75.0002 41.8241 75.6391C43.0185 73.6391 44 71.6113 44.7963 69.5465C45.4259 69.6113 46.0555 69.6391 46.6944 69.6391C47.3333 69.6391 47.963 69.6113 48.5926 69.5465C49.3889 71.6113 50.3611 73.6391 51.5648 75.6391C54.7778 75.0002 57.8611 73.7224 60.5741 71.9076C60.0185 69.6669 59.2685 67.5187 58.3704 65.5094C59.3518 64.7039 60.25 63.7965 61.0463 62.815C63.0555 63.7131 65.213 64.4539 67.4537 65.0187C69.2685 62.3057 70.5463 59.2224 71.1852 56.0094C69.1852 54.815 67.1574 53.8335 65.0926 53.0372C65.1481 52.4168 65.1852 51.778 65.1852 51.1391ZM37.8796 51.1391C37.8796 46.278 41.8241 42.3242 46.6944 42.3242C51.5555 42.3242 55.5093 46.2687 55.5093 51.1391C55.5093 56.0002 51.5648 59.9539 46.6944 59.9539C41.8241 59.9446 37.8796 56.0002 37.8796 51.1391Z" fill="var(--fill-0, #6CB41B)"/>
<g id="Group">
<path id="Vector_2" d="M60.7963 150.917C60.6111 150.917 60.4259 150.861 60.2685 150.75C60.0648 150.611 59.9259 150.398 59.8888 150.148L58.7592 143.723C56.6666 144.01 54.3888 144.01 52.2592 143.723L51.1296 150.148C51.0833 150.389 50.9537 150.602 50.75 150.75C50.5463 150.889 50.2963 150.945 50.0555 150.908C46.4074 150.26 42.9537 149 39.7963 147.167C39.5833 147.047 39.4259 146.843 39.3611 146.602C39.2963 146.361 39.3333 146.111 39.4537 145.898L42.7037 140.287C40.8333 139.121 39.1481 137.722 37.6759 136.121L32.7222 140.278C32.537 140.435 32.2963 140.51 32.0463 140.491C31.8055 140.472 31.574 140.352 31.4166 140.167C29.0648 137.352 27.2314 134.167 25.9722 130.713C25.7963 130.232 26.0463 129.704 26.5277 129.528L32.4907 127.352C31.7963 125.26 31.3981 123.093 31.2963 120.889H24.9722C24.7222 120.889 24.4907 120.787 24.3148 120.611C24.1388 120.435 24.0463 120.195 24.0463 119.954C24.0833 116.213 24.7314 112.593 25.9722 109.204C26.1481 108.723 26.6851 108.482 27.1574 108.648L32.9722 110.769C33.7777 108.723 34.8703 106.797 36.2314 105L31.5277 101.047C31.1388 100.723 31.0833 100.139 31.4074 99.7503C33.6944 96.9818 36.5092 94.6299 39.787 92.741C40.2314 92.491 40.7963 92.6392 41.0463 93.0836L44.074 98.3336C46.0463 97.2688 48.1481 96.5003 50.3333 96.0373L49.287 90.0744C49.2407 89.8244 49.3055 89.5651 49.4537 89.3614C49.6018 89.1577 49.8333 89.0281 50.0833 88.991C50.3796 88.954 50.6759 88.9077 50.9722 88.8614C51.5555 88.7688 52.1574 88.6762 52.7777 88.6392L55.4444 88.5095L58.1851 88.6392C58.8148 88.6762 59.4166 88.7688 59.9907 88.8614C60.2963 88.9077 60.5925 88.954 60.8981 88.991C61.1481 89.0281 61.3796 89.1577 61.5277 89.3614C61.6759 89.5651 61.7407 89.8244 61.6944 90.0744L60.6481 96.0373C62.8333 96.5003 64.9351 97.278 66.9074 98.3336L69.9351 93.0836C70.1944 92.6392 70.7592 92.491 71.1944 92.741C74.4722 94.6299 77.287 96.9818 79.574 99.7503C79.8981 100.139 79.8426 100.723 79.4537 101.047L74.75 105C76.1111 106.778 77.2037 108.713 78.0092 110.769L83.824 108.648C84.0555 108.565 84.3055 108.574 84.537 108.676C84.7592 108.778 84.9351 108.973 85.0185 109.195C86.2592 112.621 86.9074 116.241 86.9351 119.945C86.9351 120.195 86.8426 120.426 86.6666 120.602C86.4907 120.778 86.2592 120.88 86.0092 120.88H79.6944C79.5926 123.074 79.1944 125.232 78.5 127.343L84.4722 129.519C84.7037 129.602 84.8889 129.778 84.9907 130C85.0926 130.223 85.1018 130.482 85.0185 130.713C83.75 134.176 81.9166 137.361 79.574 140.167C79.4166 140.352 79.1944 140.472 78.9444 140.491C78.7037 140.519 78.4537 140.435 78.2685 140.278L73.324 136.13C71.8518 137.732 70.1666 139.13 68.2963 140.297L71.537 145.908C71.7963 146.352 71.6389 146.917 71.2037 147.176C68.0555 149 64.6018 150.26 60.9537 150.917C60.9074 150.917 60.8518 150.917 60.7963 150.917ZM41.5185 146.019C44 147.352 46.6666 148.324 49.4629 148.908L50.5833 142.51C50.6296 142.269 50.7592 142.047 50.9629 141.908C51.1666 141.769 51.4166 141.713 51.6574 141.76C52.8888 141.982 54.1759 142.093 55.4907 142.093C56.8333 142.093 58.0926 141.982 59.3333 141.76C59.574 141.713 59.824 141.769 60.0277 141.908C60.2314 142.047 60.3703 142.26 60.4074 142.51L61.5277 148.908C64.324 148.315 66.9907 147.352 69.4629 146.019L66.2314 140.426C66.1111 140.213 66.074 139.963 66.1388 139.723C66.2037 139.482 66.3611 139.287 66.574 139.158C68.8426 137.843 70.8426 136.185 72.5185 134.223C72.8518 133.834 73.4259 133.787 73.8148 134.111L78.7314 138.241C80.4537 136.037 81.8981 133.537 82.9444 130.926L77 128.76C76.7685 128.676 76.5833 128.5 76.4722 128.278C76.3703 128.056 76.3611 127.797 76.4444 127.565C77.3611 125.102 77.8426 122.528 77.8611 119.935C77.8611 119.426 78.2777 119.019 78.787 119.019H85.0648C84.9629 116.167 84.4629 113.371 83.5833 110.695L77.787 112.806C77.5555 112.889 77.2963 112.88 77.074 112.769C76.8518 112.658 76.6759 112.473 76.5926 112.241C75.7314 109.778 74.4351 107.491 72.75 105.445C72.4259 105.056 72.4814 104.472 72.8703 104.148L77.5463 100.213C75.7129 98.1392 73.537 96.3243 71.0648 94.8058L68.0463 100.028C67.9259 100.241 67.7222 100.398 67.4814 100.463C67.2407 100.528 66.9907 100.491 66.7777 100.371C64.4907 99.0281 62.0185 98.1206 59.4166 97.6669C59.1759 97.6206 58.9629 97.491 58.8148 97.2873C58.6759 97.0836 58.6203 96.8336 58.6574 96.5929L59.7037 90.6762C59.1388 90.5929 58.6111 90.5095 58.0833 90.4725L55.4351 90.3429L52.8703 90.4725C52.3611 90.5003 51.824 90.5836 51.2685 90.6762L52.3055 96.5929C52.3518 96.8336 52.2963 97.0836 52.1481 97.2873C52.0092 97.491 51.787 97.6206 51.5463 97.6669C48.9444 98.1206 46.4722 99.0281 44.1851 100.371C43.9722 100.491 43.7129 100.528 43.4814 100.463C43.2407 100.398 43.037 100.241 42.9166 100.028L39.8981 94.8058C37.4259 96.3243 35.25 98.1392 33.4166 100.213L38.0926 104.148C38.4814 104.472 38.537 105.056 38.2129 105.445C36.5185 107.51 35.2222 109.797 34.3796 112.241C34.2963 112.473 34.1296 112.667 33.8981 112.778C33.6759 112.889 33.4166 112.898 33.1851 112.815L27.3888 110.704C26.5092 113.352 26.0092 116.148 25.8981 119.028H32.1759C32.6851 119.028 33.1018 119.435 33.1018 119.945C33.1203 122.556 33.5926 125.121 34.5092 127.565C34.5926 127.797 34.5833 128.056 34.4814 128.278C34.3796 128.5 34.1851 128.676 33.9537 128.76L28.0092 130.926C29.0555 133.537 30.4907 136.037 32.2129 138.241L37.1388 134.111C37.5277 133.787 38.1111 133.834 38.4444 134.223C40.1111 136.185 42.1018 137.843 44.3888 139.148C44.6018 139.269 44.7592 139.473 44.824 139.713C44.8888 139.954 44.8518 140.204 44.7314 140.417L41.5185 146.019Z" fill="var(--fill-0, #1B6025)"/>
</g>
<path id="Vector_3" d="M157.148 80.7137H163.972C163.944 76.4452 163.194 72.1766 161.722 68.1489L155.343 70.4729C154.148 67.1674 152.37 64.1211 150.139 61.4637L155.352 57.0841C152.63 53.797 149.259 51.0378 145.574 48.8989L142.176 54.7785C139.204 53.0655 135.898 51.8433 132.398 51.2322L133.574 44.547C132.5 44.3896 131.463 44.1767 130.389 44.1211L127.194 43.9637L124 44.1211C122.926 44.1859 121.87 44.3989 120.815 44.547L121.991 51.2322C118.491 51.8433 115.185 53.0655 112.213 54.7785L108.815 48.8989C105.111 51.0378 101.759 53.797 99.0369 57.0841L104.25 61.4637C102.018 64.1304 100.241 67.1674 99.0462 70.4729L92.6666 68.1489C91.1943 72.1766 90.4443 76.4452 90.4166 80.7137H97.2406C97.2406 84.3063 97.8795 87.7693 99.0462 90.9637L92.6666 93.2878C94.1203 97.297 96.2962 101.056 99.0277 104.334L104.241 99.9544C106.472 102.621 109.167 104.88 112.194 106.64L108.796 112.529C112.5 114.658 116.583 116.14 120.796 116.89L121.972 110.186C123.657 110.491 125.398 110.649 127.176 110.649C128.954 110.649 130.694 110.491 132.38 110.186L133.555 116.89C137.759 116.14 141.852 114.658 145.555 112.529L142.139 106.64C145.167 104.899 147.88 102.612 150.111 99.9544L155.324 104.334C158.065 101.056 160.231 97.297 161.685 93.2878L155.305 90.9637C156.5 87.76 157.148 84.3063 157.148 80.7137ZM127.204 96.3804C118.389 96.3804 111.241 89.2322 111.241 80.4174C111.241 71.6211 118.389 64.473 127.204 64.473C136.018 64.473 143.148 71.6211 143.148 80.4174C143.139 89.2322 136.009 96.3804 127.204 96.3804Z" fill="var(--fill-0, #FF730F)"/>
<path id="Vector_4" d="M40.7685 0C34.8148 0 34.7963 9.25926 40.7685 9.25926C46.7222 9.25926 46.7315 0 40.7685 0Z" fill="var(--fill-0, #1B6025)"/>
<path id="Vector_5" d="M4.47223 88.8062C-1.48148 88.8062 -1.5 98.0655 4.47223 98.0655C10.4259 98.0655 10.4352 88.8062 4.47223 88.8062Z" fill="var(--fill-0, #1B6025)"/>
<path id="Vector_6" d="M121.074 136.686C115.12 136.686 115.102 145.945 121.074 145.945C127.028 145.945 127.037 136.686 121.074 136.686Z" fill="var(--fill-0, #1B6025)"/>
</g>
</svg>
