<svg preserveAspectRatio="none" width="100%" height="100%" overflow="visible" style="display: block;" viewBox="0 0 35.3534 19.6632" fill="none" xmlns="http://www.w3.org/2000/svg">
<g id="Group">
<path id="Vector" d="M17.6721 19.6632C5.22761 19.6632 0.385012 13.5521 0.190568 13.2928C0.0331601 13.0891 -0.031657 12.8206 0.0146393 12.5613L1.69056 3.18171C1.7739 2.74653 2.14427 2.42246 2.58871 2.42246C8.49612 2.34839 15.0517 1.89467 23.2183 0.978004C23.3017 0.940966 23.385 0.922455 23.4776 0.913196C26.5609 0.626159 29.5332 0.320607 32.2832 0.00579241C32.5239 -0.0219854 32.7739 0.0520808 32.9683 0.200229C33.1628 0.357636 33.2832 0.579857 33.3109 0.820598L33.4313 1.93171L34.9406 10.3576L35.3387 12.5706C35.385 12.8299 35.3202 13.0891 35.1628 13.3021C34.9591 13.5521 30.1165 19.6632 17.6721 19.6632ZM1.91279 12.4502C3.01464 13.5984 7.71835 17.8113 17.6721 17.8113C27.6906 17.8113 32.348 13.6076 33.4406 12.4502L31.5795 1.94097C29.1535 2.20949 26.5702 2.478 23.9035 2.728C23.8295 2.75578 23.7554 2.78357 23.6721 2.79282C15.6813 3.69097 9.19983 4.16319 3.37576 4.26504L1.91279 12.4502Z" fill="var(--fill-0, #1B6025)"/>
</g>
</svg>
