<svg preserveAspectRatio="none" width="100%" height="100%" overflow="visible" style="display: block;" viewBox="0 0 20.8007 20.8555" fill="none" xmlns="http://www.w3.org/2000/svg">
<g id="Group">
<path id="Vector" d="M10.4661 4.44082C7.15499 4.44082 4.45681 7.12902 4.45681 10.4279C4.45681 13.7268 7.15499 16.415 10.4661 16.415C13.7773 16.415 16.4756 13.7268 16.4756 10.4279C16.4756 7.12902 13.7773 4.44082 10.4661 4.44082ZM10.4661 15.2176C7.81604 15.2176 5.65869 13.0682 5.65869 10.4279C5.65869 7.78761 7.81604 5.63825 10.4661 5.63825C13.1164 5.63825 15.2737 7.78761 15.2737 10.4279C15.2737 13.0682 13.1164 15.2176 10.4661 15.2176ZM12.269 10.4279C12.269 11.4218 11.4637 12.224 10.4661 12.224C9.46865 12.224 8.66335 11.4218 8.66335 10.4279C8.66335 9.43404 9.46865 8.6318 10.4661 8.6318C11.4637 8.6318 12.269 9.43404 12.269 10.4279Z" fill="var(--fill-0, white)"/>
<path id="Vector_2" d="M19.0371 13.4466C17.7893 16.9642 14.4225 19.4844 10.4649 19.4844C8.27125 19.4844 6.25901 18.71 4.68862 17.4206C4.42047 17.2005 4.1652 16.9652 3.9241 16.7164C2.74072 15.4946 1.89892 13.9422 1.55199 12.2118C1.54957 12.1997 1.54717 12.1876 1.54479 12.1754C1.43383 11.61 1.37569 11.0256 1.37569 10.4277C1.37569 5.4259 5.44511 1.37111 10.4649 1.37111C12.4581 1.37111 14.3013 2.01032 15.7996 3.09421C16.0579 3.28113 16.4185 3.26959 16.6527 3.05333C16.9329 2.79462 16.9287 2.34476 16.6216 2.11847C14.9001 0.849993 12.7704 0.1 10.4649 0.1C4.74055 0.1 0.1 4.72388 0.1 10.4277C0.1 11.0235 0.150618 11.6073 0.247808 12.1754C0.61159 14.3021 1.62785 16.207 3.08406 17.6786C3.32774 17.9249 3.58375 18.159 3.85109 18.3799C5.64577 19.8636 7.95081 20.7555 10.4649 20.7555C14.7922 20.7555 18.5001 18.1133 20.0523 14.3596C20.339 13.6663 20.5522 12.935 20.6822 12.1754H15.0894V13.4466H19.0371Z" fill="var(--fill-0, white)"/>
<path id="Vector_3" d="M10.4661 4.44082C7.15499 4.44082 4.45681 7.12902 4.45681 10.4279C4.45681 13.7268 7.15499 16.415 10.4661 16.415C13.7773 16.415 16.4756 13.7268 16.4756 10.4279C16.4756 7.12902 13.7773 4.44082 10.4661 4.44082ZM10.4661 15.2176C7.81604 15.2176 5.65869 13.0682 5.65869 10.4279C5.65869 7.78761 7.81604 5.63825 10.4661 5.63825C13.1164 5.63825 15.2737 7.78761 15.2737 10.4279C15.2737 13.0682 13.1164 15.2176 10.4661 15.2176ZM12.269 10.4279C12.269 11.4218 11.4637 12.224 10.4661 12.224C9.46865 12.224 8.66335 11.4218 8.66335 10.4279C8.66335 9.43404 9.46865 8.6318 10.4661 8.6318C11.4637 8.6318 12.269 9.43404 12.269 10.4279Z" stroke="var(--stroke-0, white)" stroke-width="0.2"/>
<path id="Vector_4" d="M19.0371 13.4466C17.7893 16.9642 14.4225 19.4844 10.4649 19.4844C8.27125 19.4844 6.25901 18.71 4.68862 17.4206C4.42047 17.2005 4.1652 16.9652 3.9241 16.7164C2.74072 15.4946 1.89892 13.9422 1.55199 12.2118C1.54957 12.1997 1.54717 12.1876 1.54479 12.1754C1.43383 11.61 1.37569 11.0256 1.37569 10.4277C1.37569 5.4259 5.44511 1.37111 10.4649 1.37111C12.4581 1.37111 14.3013 2.01032 15.7996 3.09421C16.0579 3.28113 16.4185 3.26959 16.6527 3.05333C16.9329 2.79462 16.9287 2.34476 16.6216 2.11847C14.9001 0.849993 12.7704 0.1 10.4649 0.1C4.74055 0.1 0.1 4.72388 0.1 10.4277C0.1 11.0235 0.150618 11.6073 0.247808 12.1754C0.61159 14.3021 1.62785 16.207 3.08406 17.6786C3.32774 17.9249 3.58375 18.159 3.85109 18.3799C5.64577 19.8636 7.95081 20.7555 10.4649 20.7555C14.7922 20.7555 18.5001 18.1133 20.0523 14.3596C20.339 13.6663 20.5522 12.935 20.6822 12.1754H15.0894V13.4466H19.0371Z" stroke="var(--stroke-0, white)" stroke-width="0.2"/>
</g>
</svg>
