<svg preserveAspectRatio="none" width="100%" height="100%" overflow="visible" style="display: block;" viewBox="0 0 41.3333 16.5951" fill="none" xmlns="http://www.w3.org/2000/svg">
<g id="ApplePay_1_">
<path id="XMLID_1_" fill-rule="evenodd" clip-rule="evenodd" d="M7.55131 2.1368C7.07029 2.70106 6.29328 3.14507 5.52551 3.08032C5.42376 2.32181 5.80301 1.51704 6.24702 1.01752C6.72804 0.444011 7.57906 0.0277507 8.26357 0C8.34683 0.786269 8.03232 1.56329 7.55131 2.1368ZM8.25432 3.22833C7.57906 3.19133 6.95004 3.43183 6.45053 3.61684C6.12677 3.74634 5.84927 3.84809 5.64576 3.84809C5.41451 3.84809 5.12775 3.73709 4.80399 3.61684C4.37848 3.45033 3.89747 3.26533 3.39796 3.27458C2.24168 3.29308 1.16865 3.93134 0.57664 4.94887C-0.635139 6.98392 0.262132 9.99949 1.43691 11.6553C2.01042 12.4785 2.69494 13.3758 3.60146 13.3481C3.99922 13.3296 4.28598 13.2186 4.58199 13.0891C4.92424 12.9503 5.27575 12.8023 5.83077 12.8023C6.36728 12.8023 6.70029 12.9411 7.02404 13.0798C7.3293 13.2093 7.63456 13.3388 8.06932 13.3296C9.00359 13.3111 9.5956 12.5063 10.1691 11.6923C10.7889 10.8135 11.0571 9.95324 11.1034 9.82373L11.1126 9.80523C11.1126 9.80523 11.1034 9.80523 11.0941 9.79598C10.8906 9.70348 9.30885 9.00046 9.29035 7.10417C9.27185 5.51313 10.5484 4.70836 10.7426 4.57886C10.7519 4.56961 10.7611 4.56961 10.7704 4.56036C9.95636 3.38558 8.69833 3.25608 8.25432 3.22833ZM14.7387 13.2371V0.943522H19.4656C21.9076 0.943522 23.6097 2.58081 23.6097 4.98587C23.6097 7.38168 21.8706 9.03747 19.4008 9.03747H16.6998V13.2463H14.7387V13.2371ZM16.6998 2.55306H18.9568C20.6496 2.55306 21.6209 3.44108 21.6209 4.99512C21.6209 6.54916 20.6496 7.43718 18.9476 7.43718H16.6998V2.55306ZM30.0571 11.7663C29.5391 12.7283 28.4013 13.3388 27.171 13.3388C25.358 13.3388 24.0907 12.2843 24.0907 10.684C24.0907 9.10222 25.321 8.1957 27.5873 8.06619L30.0293 7.92744V7.24292C30.0293 6.2439 29.3633 5.69814 28.1608 5.69814C27.1803 5.69814 26.4588 6.19765 26.3108 6.95617H24.5532C24.6087 5.36513 26.1442 4.1996 28.2163 4.1996C30.4549 4.1996 31.9071 5.34663 31.9071 7.12267V13.2463H30.0941V11.7663H30.0571ZM27.6983 11.8773C26.653 11.8773 25.9962 11.387 25.9962 10.6378C25.9962 9.86074 26.6345 9.41672 27.8555 9.34272L30.0293 9.20397V9.89774C30.0293 11.054 29.0211 11.8773 27.6983 11.8773ZM37.9013 13.7273C37.115 15.8826 36.2177 16.5949 34.3122 16.5949C34.1642 16.5949 33.6832 16.5764 33.5722 16.5486V15.0686C33.6924 15.0871 33.9884 15.0964 34.1457 15.0964C35.006 15.0964 35.4962 14.7449 35.7922 13.8198L35.968 13.2741L32.6564 4.31985H34.7007L37.004 11.5905H37.041L39.3443 4.31985H41.3331L37.9013 13.7273Z" fill="var(--fill-0, white)"/>
</g>
</svg>
