<svg preserveAspectRatio="none" width="100%" height="100%" overflow="visible" style="display: block;" viewBox="0 0 93.5115 73.0094" fill="none" xmlns="http://www.w3.org/2000/svg">
<g id="Group">
<g id="Group_2">
<path id="Vector" d="M14.4271 50.611H3.52896C3.0197 50.611 2.60303 50.1944 2.60303 49.6851V23.2592C2.60303 22.7499 3.0197 22.3333 3.52896 22.3333C4.03822 22.3333 4.45489 22.7499 4.45489 23.2592V48.7592H14.4271C14.9364 48.7592 15.3531 49.1759 15.3531 49.6851C15.3531 50.2036 14.9456 50.611 14.4271 50.611Z" fill="var(--fill-0, #1B6025)"/>
</g>
<g id="Group_3">
<path id="Vector_2" d="M8.15861 69.4997C7.64935 69.4997 7.23269 69.0831 7.23269 68.5738V49.6849C7.23269 49.1757 7.64935 48.759 8.15861 48.759C8.66787 48.759 9.08454 49.1757 9.08454 49.6849V68.5738C9.08454 69.0831 8.66787 69.4997 8.15861 69.4997Z" fill="var(--fill-0, #1B6025)"/>
</g>
<g id="Group_4">
<path id="Vector_3" d="M87.9548 43.4269H70.8252C70.3159 43.4269 69.8992 43.0103 69.8992 42.501C69.8992 41.9917 70.3159 41.5751 70.8252 41.5751H87.0289V17.788C87.0289 17.2788 87.4455 16.8621 87.9548 16.8621C88.4641 16.8621 88.8807 17.2788 88.8807 17.788V42.501C88.8807 43.0103 88.4733 43.4269 87.9548 43.4269Z" fill="var(--fill-0, #1B6025)"/>
</g>
<g id="Group_5">
<path id="Vector_4" d="M89.2419 63.056H80.5475C80.0382 63.056 79.6215 62.6393 79.6215 62.1301V42.4912C79.6215 41.9819 80.0382 41.5652 80.5475 41.5652C81.0567 41.5652 81.4734 41.9819 81.4734 42.4912V61.2041H89.2419C89.7512 61.2041 90.1679 61.6208 90.1679 62.1301C90.1679 62.6393 89.7605 63.056 89.2419 63.056Z" fill="var(--fill-0, #1B6025)"/>
</g>
<g id="Group_6">
<path id="Vector_5" d="M87.9549 33.6405H74.7512C74.2419 33.6405 73.8252 33.2238 73.8252 32.7146V21.0109C73.8252 20.5016 74.2419 20.085 74.7512 20.085C75.2604 20.085 75.6771 20.5016 75.6771 21.0109V31.7887H87.9549C88.4641 31.7887 88.8808 32.2053 88.8808 32.7146C88.8808 33.2238 88.4734 33.6405 87.9549 33.6405Z" fill="var(--fill-0, #1B6025)"/>
</g>
<g id="Group_7">
<path id="Vector_6" d="M43.3993 21.6398C42.89 21.6398 42.4734 21.2231 42.4734 20.7139V14.5009H28.5752C28.066 14.5009 27.6493 14.0842 27.6493 13.575V4.98238C27.6493 4.47313 28.066 4.05646 28.5752 4.05646C29.0845 4.05646 29.5012 4.47313 29.5012 4.98238V12.6491H43.3993C43.9085 12.6491 44.3252 13.0657 44.3252 13.575V20.7139C44.3252 21.2324 43.9178 21.6398 43.3993 21.6398Z" fill="var(--fill-0, #1B6025)"/>
</g>
<g id="Group_8">
<path id="Vector_7" d="M57.464 17.5089H43.4085C42.8992 17.5089 42.4825 17.0922 42.4825 16.583C42.4825 16.0737 42.8992 15.657 43.4085 15.657H56.5381V6.16629C56.5381 5.65703 56.9547 5.24036 57.464 5.24036C57.9733 5.24036 58.3899 5.65703 58.3899 6.16629V16.583C58.3899 17.0922 57.9733 17.5089 57.464 17.5089Z" fill="var(--fill-0, #1B6025)"/>
</g>
<path id="Vector_8" d="M28.3623 0C23.39 0 23.3808 7.72222 28.3623 7.72222C33.3345 7.72222 33.3437 0 28.3623 0Z" fill="var(--fill-0, #1B6025)"/>
<path id="Vector_9" d="M57.7142 1.5749C52.742 1.5749 52.7327 9.29712 57.7142 9.29712C62.6864 9.29712 62.6957 1.5749 57.7142 1.5749Z" fill="var(--fill-0, #1B6025)"/>
<path id="Vector_10" d="M74.3159 16.0379C69.3437 16.0379 69.3345 23.7601 74.3159 23.7601C79.2882 23.7601 79.2974 16.0379 74.3159 16.0379Z" fill="var(--fill-0, #1B6025)"/>
<path id="Vector_11" d="M88.0661 13.1665C83.0939 13.1665 83.0846 20.8887 88.0661 20.8887C93.0383 20.898 93.0476 13.1665 88.0661 13.1665Z" fill="var(--fill-0, #1B6025)"/>
<path id="Vector_12" d="M89.7789 58.2685C84.8067 58.2685 84.7974 65.9907 89.7789 65.9907C94.7511 65.9907 94.7604 58.2685 89.7789 58.2685Z" fill="var(--fill-0, #1B6025)"/>
<path id="Vector_13" d="M8.17714 65.2869C3.20492 65.2869 3.19566 73.0091 8.17714 73.0091C13.1494 73.0091 13.1586 65.2869 8.17714 65.2869Z" fill="var(--fill-0, #1B6025)"/>
<path id="Vector_14" d="M3.73264 18.8988C-1.23958 18.8988 -1.24884 26.621 3.73264 26.621C8.70486 26.621 8.71412 18.8988 3.73264 18.8988Z" fill="var(--fill-0, #1B6025)"/>
</g>
</svg>
