<svg preserveAspectRatio="none" width="100%" height="100%" overflow="visible" style="display: block;" viewBox="0 0 53.7689 47.3587" fill="none" xmlns="http://www.w3.org/2000/svg">
<path id="Vector" d="M15.2824 44.7037C7.46761 40.9537 1.58798 33.4907 0.273166 24.2685C-0.615723 18.1018 0.680575 11.7778 3.93057 6.47221L18.4861 15.3519C17.6435 16.7315 16.7361 18.963 17.1528 21.8611C17.9213 27.2315 22.9121 30.9815 28.2824 30.2037C33.6528 29.4352 37.3935 24.4444 36.625 19.0833C36.2824 16.7037 35.088 14.537 33.2639 12.9907L44.3102 0C49.3102 4.25 52.5695 10.1667 53.4954 16.6667C54.9676 26.9444 50.3843 36.7315 42.4676 42.3704C39.088 44.7963 35.088 46.463 30.6991 47.0926C25.2269 47.8611 19.9121 46.9352 15.2824 44.7037Z" fill="var(--fill-0, #FFF8F2)"/>
</svg>
