<svg preserveAspectRatio="none" width="100%" height="100%" overflow="visible" style="display: block;" viewBox="0 0 17 12.2398" fill="none" xmlns="http://www.w3.org/2000/svg">
<g id="Group">
<path id="Vector" d="M15.5872 12.2398H1.41279C0.634731 12.2398 0 11.5278 0 10.6504V1.58939C0 0.714075 0.634731 0 1.41279 0H15.5872C16.3671 0 17 0.714075 17 1.58939V10.6504C17 11.5278 16.3671 12.2398 15.5872 12.2398ZM1.41279 0.764332C1.00887 0.764332 0.679404 1.13498 0.679404 1.58939V10.6504C0.679404 11.1048 1.00887 11.4755 1.41279 11.4755H15.5872C15.9911 11.4755 16.3206 11.1048 16.3206 10.6504V1.58939C16.3206 1.13498 15.9911 0.764332 15.5872 0.764332H1.41279Z" fill="var(--fill-0, white)"/>
</g>
</svg>
