<svg preserveAspectRatio="none" width="100%" height="100%" overflow="visible" style="display: block;" viewBox="0 0 8.15162 9.17428" fill="none" xmlns="http://www.w3.org/2000/svg">
<path id="Vector" d="M0 4.6534C0 3.8806 0.115538 3.20716 0.346522 2.63308C0.588549 2.04796 0.902036 1.5622 1.28707 1.1758C1.67211 0.789397 2.11217 0.496837 2.60718 0.29808C3.11323 0.0993603 3.63023 0 4.15827 0C5.3904 0 6.36398 0.380881 7.07902 1.14268C7.79406 1.8934 8.15162 3.00292 8.15162 4.47124C8.15162 4.61476 8.14606 4.77484 8.13511 4.95148C8.12407 5.11708 8.11311 5.26612 8.10207 5.3986H2.52468C2.57971 5.90644 2.81617 6.3094 3.23424 6.60748C3.65222 6.90556 4.2133 7.0546 4.91739 7.0546C5.3684 7.0546 5.80838 7.01596 6.23749 6.93868C6.67747 6.85036 7.03504 6.74548 7.31001 6.62404L7.64001 8.6278C7.50804 8.69404 7.332 8.76028 7.11206 8.82652C6.89202 8.89276 6.64452 8.94796 6.36946 8.99212C6.10544 9.04732 5.81942 9.09148 5.51141 9.1246C5.2034 9.15772 4.8954 9.17428 4.5873 9.17428C3.80627 9.17428 3.12427 9.05836 2.54119 8.82652C1.96916 8.59468 1.49059 8.28004 1.10555 7.8826C0.73156 7.47412 0.451017 6.99388 0.26402 6.44188C0.0879758 5.88988 0 5.29372 0 4.6534ZM5.77543 3.70948C5.76439 3.49972 5.72588 3.29548 5.65989 3.09676C5.60486 2.89804 5.51141 2.7214 5.37936 2.56684C5.25834 2.41228 5.09891 2.28532 4.90087 2.18596C4.71387 2.0866 4.47732 2.03692 4.1913 2.03692C3.91624 2.03692 3.67978 2.0866 3.48174 2.18596C3.2837 2.27428 3.1187 2.39572 2.98673 2.55028C2.85468 2.70484 2.75018 2.887 2.67316 3.09676C2.60718 3.29548 2.55772 3.49972 2.52468 3.70948H5.77543Z" fill="var(--fill-0, white)"/>
</svg>
