<svg preserveAspectRatio="none" width="100%" height="100%" overflow="visible" style="display: block;" viewBox="0 0 144.354 117.577" fill="none" xmlns="http://www.w3.org/2000/svg">
<path id="Vector" d="M7.885 96.4052C5.15352 91.3959 3.19982 85.2848 2.24612 77.8681C0.412783 67.47 -0.531673 56.9329 0.31092 47.2199C2.09796 26.3033 12.1165 9.18291 39.172 5.31254C47.5054 4.72921 56.9961 3.37736 66.7554 2.27551L66.7461 2.23847C76.5424 1.50699 86.1165 1.06254 94.422 0.0717985C121.737 -1.16894 134.774 13.8125 140.422 34.044C143.052 43.4237 144.079 53.9329 144.218 64.47C144.663 71.9792 144.005 78.3403 142.394 83.7477C135.802 106.164 113.144 112.09 86.2832 115.146C83.385 115.479 80.4313 115.776 77.4498 116.053L77.4591 116.09C70.5054 116.868 63.4128 117.479 56.4869 117.563C36.172 117.859 17.3202 113.683 7.885 96.4052ZM133.718 90.4607C146.098 74.9051 139.005 38.8403 139.005 38.8403C139.005 38.8403 130.82 28.6088 69.7832 34.3496C8.73685 40.0903 2.59796 51.6737 2.59796 51.6737C2.59796 51.6737 2.35722 88.4237 17.4128 101.405C32.4683 114.387 54.1813 112.831 76.9591 110.692C99.7276 108.544 121.348 106.026 133.718 90.4607Z" fill="var(--fill-0, #FFF8F2)"/>
</svg>
