<svg preserveAspectRatio="none" width="100%" height="100%" overflow="visible" style="display: block;" viewBox="0 0 9.57352 10.8581" fill="none" xmlns="http://www.w3.org/2000/svg">
<path id="Vector" d="M0 10.8581V0H4.52532C5.66324 0 6.48893 0.09876 7.00221 0.296271C7.52038 0.488843 7.93436 0.83448 8.24432 1.3332C8.5542 1.83191 8.70917 2.40222 8.70917 3.04413C8.70917 3.85886 8.47435 4.53286 8.00461 5.06614C7.53487 5.59448 6.83274 5.92778 5.89815 6.06604C6.363 6.34255 6.74557 6.64622 7.04575 6.97705C7.35082 7.30788 7.76001 7.89551 8.27338 8.73985L9.57352 10.8581H7.00221L5.44778 8.49542C4.89575 7.65108 4.51798 7.12025 4.31466 6.90298C4.11125 6.68079 3.8958 6.53019 3.66813 6.45118C3.44055 6.36724 3.07979 6.32526 2.58588 6.32526H2.15009V10.8581H0ZM2.15009 4.59211H3.74082C4.77228 4.59211 5.41628 4.54768 5.67292 4.45879C5.92957 4.36992 6.13053 4.21685 6.27583 3.99958C6.42112 3.78233 6.49373 3.51075 6.49373 3.18486C6.49373 2.81946 6.39686 2.52567 6.20323 2.30346C6.0143 2.07633 5.74562 1.93314 5.39691 1.87388C5.22255 1.84919 4.69958 1.83685 3.828 1.83685H2.15009V4.59211Z" fill="var(--fill-0, white)"/>
</svg>
