<svg preserveAspectRatio="none" width="100%" height="100%" overflow="visible" style="display: block;" viewBox="0 0 15.8706 51.5262" fill="none" xmlns="http://www.w3.org/2000/svg">
<g id="Group">
<path id="Vector" d="M3.05385 51.5262C2.59088 51.5262 2.19273 51.1744 2.13717 50.7021C2.08162 50.1929 2.44273 49.7392 2.95199 49.6744C2.98903 49.6744 7.35014 49.1096 10.5446 44.9336C13.7205 40.7762 14.7298 34.5818 13.5353 26.517C11.2298 10.9244 0.433474 1.72992 0.331622 1.63733C-0.0572671 1.31326 -0.112827 0.729921 0.211247 0.331773C0.535321 -0.0571163 1.11866 -0.112676 1.51681 0.211398C1.97977 0.600287 12.9612 9.95214 15.3687 26.2392C16.6372 34.841 15.4983 41.517 11.989 46.091C8.30384 50.8781 3.37792 51.4892 3.16495 51.517C3.12792 51.5262 3.09088 51.5262 3.05385 51.5262Z" fill="var(--fill-0, #1B6025)"/>
</g>
</svg>
