<svg preserveAspectRatio="none" width="100%" height="100%" overflow="visible" style="display: block;" viewBox="0 0 18.6833 18.6833" fill="none" xmlns="http://www.w3.org/2000/svg">
<path id="Icon" d="M6.77917 9.34167L8.4875 11.05L12.3313 7.20625M14.3823 3.36122C14.5581 3.78662 14.8958 4.12476 15.3209 4.30129L16.8116 4.91877C17.237 5.09499 17.575 5.43299 17.7512 5.85843C17.9274 6.28386 17.9274 6.76186 17.7512 7.18729L17.1342 8.67696C16.9579 9.10257 16.9576 9.58107 17.1347 10.0065L17.7507 11.4957C17.838 11.7064 17.883 11.9323 17.883 12.1604C17.8831 12.3885 17.8382 12.6143 17.7509 12.8251C17.6636 13.0358 17.5356 13.2273 17.3743 13.3886C17.213 13.5498 17.0215 13.6777 16.8107 13.7649L15.3211 14.382C14.8958 14.5579 14.5576 14.8955 14.3811 15.3206L13.7636 16.8114C13.5874 17.2368 13.2494 17.5748 12.824 17.751C12.3986 17.9272 11.9206 17.9272 11.4952 17.751L10.0056 17.134C9.58017 16.9582 9.10235 16.9586 8.67719 17.135L7.18651 17.7516C6.76133 17.9274 6.28376 17.9272 5.85869 17.7512C5.43362 17.5751 5.09582 17.2375 4.91949 16.8125L4.30184 15.3213C4.12596 14.8959 3.78834 14.5578 3.36322 14.3813L1.87255 13.7638C1.44732 13.5876 1.10943 13.2499 0.933149 12.8247C0.756872 12.3995 0.756632 11.9217 0.932485 11.4963L1.5495 10.0067C1.72528 9.58124 1.72492 9.1034 1.5485 8.67822L0.932372 7.18642C0.845017 6.97571 0.800037 6.74985 0.8 6.52175C0.799964 6.29365 0.844872 6.06777 0.932159 5.85704C1.01945 5.6463 1.1474 5.45483 1.30871 5.29356C1.47003 5.13229 1.66153 5.0044 1.87229 4.91717L3.3619 4.30013C3.78691 4.12439 4.12483 3.78719 4.30149 3.36255L4.91895 1.87182C5.09516 1.44639 5.43315 1.10838 5.85857 0.932164C6.28398 0.755945 6.76197 0.755945 7.18739 0.932164L8.67699 1.5492C9.10242 1.72499 9.58024 1.72463 10.0054 1.5482L11.4967 0.933121C11.9221 0.757001 12.4 0.757037 12.8253 0.933221C13.2506 1.10941 13.5886 1.44731 13.7648 1.87263L14.3824 3.36381L14.3823 3.36122Z" stroke="var(--stroke-0, #FF730F)" stroke-width="1.6" stroke-linecap="round" stroke-linejoin="round"/>
</svg>
