<svg preserveAspectRatio="none" width="100%" height="100%" overflow="visible" style="display: block;" viewBox="0 0 71.6441 41.8842" fill="none" xmlns="http://www.w3.org/2000/svg">
<g id="Group 305">
<rect id="Rectangle 102" width="71.6441" height="41.8842" rx="5" fill="var(--fill-0, #353535)"/>
<path id="AMEX_1_" fill-rule="evenodd" clip-rule="evenodd" d="M17.474 15.4308L12.1244 26.4378H18.5276L19.3198 24.6831H21.133L21.9252 26.4378H28.9737V25.1008L29.6026 26.4378H33.2452L33.8741 25.0705V26.4378H48.5346L50.315 24.7286L51.9812 26.4378L59.5115 26.453L54.1455 20.9685L59.5197 15.4308H52.1037L50.3722 17.1096L48.7551 15.4308H32.8123L31.4402 18.2718L30.0354 15.4308H23.6485V16.7222L22.938 15.4308H17.474ZM39.3626 16.9956H47.7832L50.3559 19.586L53.0103 16.9956H55.583L51.6708 20.9685L55.583 24.8957H52.8878L50.315 22.2826L47.6443 24.8957H39.3626V16.9956ZM41.4453 20.0721V18.6288H46.6969L48.9919 20.9381L46.5907 23.255H41.4453V21.6825H46.0353V20.0721H41.4453ZM18.7154 16.9956H21.8354L25.38 24.4628V16.9956H28.8022L31.5464 22.351L34.0701 16.9956H37.4759V24.8957H35.4014L35.3851 18.7048L32.3631 24.8957H30.5091L27.479 18.7048V24.8957H23.2238L22.4153 23.1258H18.0457L17.2371 24.8957H14.9584L18.7154 16.9956ZM18.7971 21.485L20.2346 18.3326L21.672 21.485H18.7971Z" fill="var(--fill-0, white)"/>
</g>
</svg>
