<svg preserveAspectRatio="none" width="100%" height="100%" overflow="visible" style="display: block;" viewBox="0 0 119.758 127.956" fill="none" xmlns="http://www.w3.org/2000/svg">
<g id="Group">
<path id="Vector" d="M66.4496 127.956C63.3199 127.956 59.9681 127.835 56.3199 127.641C47.3755 127.169 40.1996 126.483 34.0977 124.687C24.0051 121.706 17.2088 115.576 11.3755 104.187C6.56067 94.7982 2.09771 74.863 0.005115 53.4C-0.031922 53.0574 0.134742 52.7241 0.421779 52.5389C0.708816 52.3537 1.07919 52.3352 1.37548 52.5019C7.40326 55.863 15.1718 55.4741 20.7088 51.5296C24.2459 49.0019 29.8477 42.8352 27.5144 29.9648C25.5699 19.2056 22.2273 10.3722 18.0977 5.10371C17.9033 4.85371 17.8477 4.52964 17.9496 4.23334C18.0514 3.93704 18.2921 3.71483 18.5977 3.63149C28.7829 0.992605 40.357 0.214829 44.8662 0.00186585C45.1533 -0.0166527 45.4218 0.103714 45.607 0.316677C45.7922 0.52964 45.8755 0.816674 45.8199 1.09445L45.3477 3.72408C46.4496 4.87223 51.1533 9.0852 61.107 9.0852C71.0607 9.0852 75.7736 4.87223 76.8755 3.72408L76.5607 1.95557C76.5051 1.65927 76.607 1.35371 76.8199 1.14075C77.0329 0.927788 77.3385 0.825937 77.6348 0.881493C84.3199 2.05742 97.0699 4.62223 107.366 8.65001C107.635 8.75186 107.838 8.97408 107.922 9.25186C108.005 9.52964 107.95 9.82594 107.783 10.0574C103.764 15.5945 100.977 25.0574 99.9403 36.6963C99.2551 44.3445 101.07 50.613 105.163 54.8259C108.616 58.3815 113.57 60.2333 118.774 59.9093C119.061 59.8907 119.338 60.0111 119.533 60.2241C119.718 60.4463 119.801 60.7333 119.737 61.0204C115.431 81.5759 109.033 100.409 103.431 108.983C96.4403 119.687 89.0422 125.076 78.6996 127.002C74.9959 127.696 70.9681 127.956 66.4496 127.956ZM34.6255 122.909C40.5607 124.659 47.6162 125.326 56.3755 125.789C65.1903 126.243 72.2736 126.317 78.357 125.187C88.2922 123.335 95.107 118.354 101.876 107.974C107.255 99.7333 113.422 81.6963 117.681 61.7889C117.663 61.7889 117.644 61.7889 117.625 61.7889C112.357 61.7889 107.385 59.7519 103.838 56.1037C100.709 52.8908 97.1718 46.8722 98.0977 36.5111C99.107 25.1963 101.764 15.8352 105.607 9.93705C96.3014 6.44631 85.2366 4.12223 78.6255 2.91853L78.7829 3.81668C78.8292 4.07594 78.7644 4.33519 78.607 4.54815C78.4033 4.80741 73.5699 10.9185 61.1162 10.9185C48.6718 10.9185 43.8292 4.80741 43.6347 4.54815C43.4773 4.34445 43.4125 4.07594 43.4588 3.81668L43.8014 1.89075C38.9866 2.15927 29.2922 2.92779 20.4033 5.06668C24.3662 10.6871 27.4403 19.1222 29.3384 29.613C31.1718 39.7519 28.4125 48.2796 21.7829 53.0111C16.144 57.0389 8.40326 57.7148 2.01437 54.8723C4.12548 75.1871 8.49586 94.5019 13.0236 103.326C18.681 114.372 24.9403 120.048 34.6255 122.909Z" fill="var(--fill-0, #1B6025)"/>
</g>
</svg>
