<svg preserveAspectRatio="none" width="100%" height="100%" overflow="visible" style="display: block;" viewBox="0 0 14.3704 52.1794" fill="none" xmlns="http://www.w3.org/2000/svg">
<g id="Group">
<path id="Vector" d="M2.90234 52.1794C2.62456 52.1794 2.36531 52.0591 2.18939 51.8368C1.99494 51.5961 1.93012 51.2813 2.01346 50.985C3.62457 45.5776 4.21716 39.1979 3.80049 32.022C3.64308 20.3183 2.37456 10.1609 0.0319629 1.79053C-0.0421112 1.51275 0.0134568 1.21645 0.189383 0.984973C0.365309 0.753492 0.633816 0.614602 0.930112 0.614602L7.4116 0.00349403C7.73567 -0.0242837 8.05975 0.114601 8.25419 0.38312C8.29123 0.438676 8.67087 0.984975 9.21716 2.31831C10.3283 5.00349 12.3838 11.559 13.6709 25.2905C14.3375 32.3646 14.532 38.4202 14.2357 43.2905C13.9024 48.6702 13.0875 50.5683 12.9949 50.772C12.856 51.0683 12.569 51.272 12.2449 51.3091L3.00421 52.1702C2.95791 52.1794 2.93012 52.1794 2.90234 52.1794ZM2.10606 2.3646C4.30976 10.6887 5.50419 20.6331 5.65234 31.9665C6.05049 38.7535 5.55049 44.8924 4.15235 50.2165L11.4579 49.5313C11.6987 48.7165 12.1524 46.7905 12.3746 43.1979C12.6616 38.4202 12.4672 32.4572 11.8097 25.4757C10.5412 11.985 8.55976 5.62386 7.48569 3.03127C7.28198 2.53127 7.10604 2.1609 6.97641 1.9109L2.10606 2.3646Z" fill="var(--fill-0, #1B6025)"/>
</g>
</svg>
