<svg preserveAspectRatio="none" width="100%" height="100%" overflow="visible" style="display: block;" viewBox="0 0 29.735 16.0765" fill="none" xmlns="http://www.w3.org/2000/svg">
<g id="Group">
<path id="Vector" d="M15.9003 16.0765C11.9373 16.0765 7.23362 15.5395 1.9651 13.9654C1.52991 13.845 1.08546 13.7062 0.631761 13.558C0.233612 13.4284 -0.0256402 13.0487 0.00213763 12.6321L0.613252 1.00243C0.631771 0.678361 0.816946 0.391336 1.09472 0.233928C1.38176 0.0857803 1.72436 0.0857701 2.00214 0.252437C5.58547 2.35429 9.52992 3.53021 13.7244 3.75244C18.8725 4.02095 23.9281 2.77096 28.3355 0.132076C28.6318 -0.0438499 28.9929 -0.0438499 29.2892 0.132076C29.5855 0.308002 29.7522 0.632065 29.7336 0.974658L29.0947 13.1969C29.0762 13.5487 28.8633 13.8636 28.5392 14.0024C28.5114 14.0117 27.8077 14.3173 26.5207 14.6784C24.2151 15.3358 20.5762 16.0765 15.9003 16.0765ZM1.88177 12.021C2.08547 12.0858 2.27991 12.1413 2.48361 12.1969C13.9558 15.6228 22.7614 13.8265 26.0114 12.9006C26.0114 12.9006 26.0114 12.9006 26.0207 12.9006C26.5577 12.7524 26.9836 12.6136 27.2799 12.5024L27.7984 2.558C23.4373 4.81726 18.5762 5.86355 13.6318 5.60429C9.64103 5.39132 5.87252 4.38208 2.38177 2.57652L1.88177 12.021Z" fill="var(--fill-0, #1B6025)"/>
</g>
</svg>
