<svg preserveAspectRatio="none" width="100%" height="100%" overflow="visible" style="display: block;" viewBox="0 0 146.199 119.462" fill="none" xmlns="http://www.w3.org/2000/svg">
<g id="Group">
<path id="Vector" d="M55.5465 119.462C31.1854 119.462 16.0465 112.554 7.99092 97.7948C5.11129 92.5263 3.18536 86.1837 2.25018 78.9245C0.203882 67.3133 -0.453531 56.9152 0.305728 48.0819C2.4261 23.1745 15.7687 8.79482 39.9539 5.33185C45.7687 4.92445 52.0187 4.16519 58.6391 3.35037C61.4909 2.99852 64.3891 2.64667 67.315 2.31333C67.3983 2.2763 67.4909 2.24852 67.5928 2.23926C70.5928 2.01704 73.5743 1.81333 76.5002 1.61889C83.1761 1.17444 89.4909 0.757779 95.2317 0.0725942C119.722 -1.03852 135.5 10.6096 142.232 34.7115C144.621 43.2393 145.908 53.5633 146.065 65.3782C146.5 72.73 145.871 79.3226 144.204 84.9337C137.741 106.906 116.787 113.637 87.315 116.989C84.6206 117.295 81.7317 117.6 78.7224 117.878C78.6483 117.906 78.5743 117.934 78.4909 117.943C70.1483 118.878 63.4539 119.35 57.4261 119.424C56.7872 119.461 56.1668 119.462 55.5465 119.462ZM67.9909 4.09112C67.9261 4.11889 67.852 4.13741 67.778 4.14667C64.7687 4.48926 61.7965 4.85037 58.8705 5.20223C52.2224 6.01704 45.9446 6.7763 40.1483 7.18371C17.0002 10.4985 4.19462 24.3133 2.14833 48.2485C1.39833 56.9245 2.05574 67.1559 4.07425 78.6559C4.99092 85.7208 6.85203 91.8504 9.61129 96.9152C17.5002 111.378 32.6576 117.952 57.3891 117.6C63.2965 117.526 69.852 117.073 78.028 116.156C78.1113 116.119 78.1946 116.1 78.2872 116.091C81.3706 115.804 84.3428 115.499 87.0928 115.184C115.843 111.915 136.25 105.443 142.417 84.443C144.028 79.0356 144.621 72.6559 144.204 65.48C144.047 53.7763 142.778 43.6189 140.435 35.2485C133.972 12.0911 118.796 0.896667 95.3706 1.95222C89.6483 2.63741 83.315 3.05407 76.6113 3.49852C73.7872 3.6837 70.8983 3.87815 67.9909 4.09112Z" fill="var(--fill-0, #1B6025)"/>
</g>
</svg>
