<svg preserveAspectRatio="none" width="100%" height="100%" overflow="visible" style="display: block;" viewBox="0 0 16.3527 42.9452" fill="none" xmlns="http://www.w3.org/2000/svg">
<g id="Group">
<path id="Vector" d="M15.432 42.9452C15.3857 42.9452 15.3301 42.9452 15.2838 42.9359C15.1542 42.9174 1.83012 40.5563 0.154193 22.7322C-0.077288 20.2785 -0.0495046 17.9174 0.246792 15.7137C1.87642 3.59329 10.8672 0.195153 11.2468 0.0562641C11.5431 -0.054847 11.8857 0.000697802 12.1357 0.204402C12.3857 0.408105 12.5153 0.722929 12.4783 1.03774C12.0616 4.49145 11.7838 10.8433 12.7931 21.547C13.8023 32.26 15.256 38.4359 16.3116 41.7414C16.4042 42.047 16.3394 42.3803 16.1264 42.6303C15.9598 42.8248 15.7005 42.9452 15.432 42.9452ZM10.4875 2.48219C8.05235 3.88033 3.20975 7.65811 2.08938 15.9544C1.8116 18.0192 1.78383 20.2322 1.99679 22.547C3.21901 35.5563 10.7838 39.5563 14.0709 40.6859C13.0616 37.0377 11.8301 31.0563 10.9505 21.7044C10.0801 12.3803 10.1727 6.26922 10.4875 2.48219Z" fill="var(--fill-0, #1B6025)"/>
</g>
</svg>
