<svg preserveAspectRatio="none" width="100%" height="100%" overflow="visible" style="display: block;" viewBox="0 0 85.9445 58.7674" fill="none" xmlns="http://www.w3.org/2000/svg">
<path id="Vector" d="M85.25 1.39816C84.1296 11.7315 80.0278 29.4445 65.4259 42.4907C54.213 52.5093 39.3611 57.713 21.1018 58.0556C18.5926 58.1019 16.0185 58.0556 13.3889 57.9167C12.9074 57.8889 12.4259 57.8611 11.9352 57.8333C10.037 57.713 8.27777 57.1574 6.73147 56.2685C3.08332 54.1852 0.694445 50.2593 0.694445 45.8982C0.694445 45.2593 0.740725 44.6204 0.851836 43.963C1.49073 39.9722 4.06481 36.7408 7.49074 35.0926C9.30555 34.2222 11.3611 33.7963 13.5 33.9352C14.7315 34.0093 15.9444 34.0648 17.1204 34.1019C31.0833 34.4537 41.8889 31.3241 49.3241 24.7593C57.463 17.5833 60.2593 7.3426 61.213 0.694448C72.7222 4.12963 81.5463 2.45372 85.25 1.39816Z" fill="var(--fill-0, #1B6025)" stroke="var(--stroke-0, #1B6025)" stroke-width="1.38889" stroke-miterlimit="10" stroke-linecap="round" stroke-linejoin="round"/>
</svg>
