<svg preserveAspectRatio="none" width="100%" height="100%" overflow="visible" style="display: block;" viewBox="0 0 9.6862 11.9563" fill="none" xmlns="http://www.w3.org/2000/svg">
<path id="Vector" d="M6.07249 2.25216C4.8734 2.25216 4.00431 2.58888 3.46522 3.26232C2.93727 3.92475 2.67325 4.83555 2.67325 5.99475C2.67325 6.55779 2.73923 7.07115 2.8712 7.53483C3.00325 7.98747 3.20129 8.37939 3.46522 8.71059C3.72924 9.04179 4.05934 9.30123 4.45533 9.48891C4.8514 9.66555 5.31337 9.75387 5.84141 9.75387C6.12743 9.75387 6.36946 9.74835 6.5675 9.73731C6.77649 9.72627 6.95801 9.70419 7.11206 9.67107V5.68011H9.6862V11.3602C9.37819 11.4816 8.88318 11.6086 8.20109 11.7411C7.51909 11.8846 6.67747 11.9563 5.67641 11.9563C4.81837 11.9563 4.03734 11.8239 3.33326 11.5589C2.64021 11.2939 2.04619 10.9075 1.55109 10.3997C1.05608 9.89187 0.671051 9.26811 0.396078 8.52843C0.132056 7.78875 0 6.94419 0 5.99475C0 5.03427 0.148483 4.18419 0.445541 3.44451C0.742599 2.7048 1.14963 2.08104 1.66663 1.5732C2.18363 1.05432 2.7887 0.6624 3.48174 0.39744C4.18583 0.13248 4.9339 0 5.72597 0C6.26496 0 6.74902 0.0386399 7.17804 0.11592C7.6181 0.18216 7.9921 0.26496 8.30011 0.36432C8.61916 0.45264 8.87762 0.54648 9.07566 0.64584C9.28465 0.7452 9.43322 0.82248 9.52119 0.87768L8.77869 2.94768C8.4266 2.76 8.01957 2.59992 7.5576 2.46744C7.10649 2.32392 6.61148 2.25216 6.07249 2.25216Z" fill="var(--fill-0, white)"/>
</svg>
