<svg preserveAspectRatio="none" width="100%" height="100%" overflow="visible" style="display: block;" viewBox="0 0 171.778 56.3333" fill="none" xmlns="http://www.w3.org/2000/svg">
<g id="Group">
<path id="Vector" d="M170.843 8.64841V11.6484H0.92592V8.64841C0.92592 4.38915 4.37963 0.92619 8.63889 0.92619H163.13C167.389 0.92619 170.843 4.37989 170.843 8.64841Z" fill="var(--fill-0, #6CB41B)"/>
<path id="Vector_2" d="M170.843 11.6484V47.6947C170.843 51.954 167.389 55.4077 163.12 55.4077H8.63889C4.37963 55.4077 0.92592 51.954 0.92592 47.6947V11.6484H170.843Z" fill="var(--fill-0, #FFF8F2)"/>
<g id="Group_2">
<path id="Vector_3" d="M163.12 56.3333H8.63889C3.87963 56.3333 0 52.4537 0 47.6944V8.64815C0 3.87963 3.87963 0 8.63889 0H163.13C167.898 0 171.778 3.87963 171.778 8.64815V47.6852C171.769 52.4537 167.889 56.3333 163.12 56.3333ZM8.63889 1.85185C4.89815 1.85185 1.85185 4.89815 1.85185 8.64815V47.6852C1.85185 51.4259 4.89815 54.4722 8.63889 54.4722H163.13C166.87 54.4722 169.926 51.4259 169.926 47.6852V8.64815C169.926 4.89815 166.88 1.85185 163.13 1.85185H8.63889Z" fill="var(--fill-0, #1B6025)"/>
</g>
<g id="Group_3">
<path id="Vector_4" d="M170.843 12.5737H88.6204C88.1111 12.5737 87.6944 12.1571 87.6944 11.6478C87.6944 11.1386 88.1111 10.7219 88.6204 10.7219H170.843C171.352 10.7219 171.769 11.1386 171.769 11.6478C171.769 12.1571 171.352 12.5737 170.843 12.5737Z" fill="var(--fill-0, #1B6025)"/>
</g>
<g id="Group_4">
<path id="Vector_5" d="M52.0926 12.5737H0.925928C0.416668 12.5737 1.7386e-06 12.1571 1.7386e-06 11.6478C1.7386e-06 11.1386 0.416668 10.7219 0.925928 10.7219H52.1019C52.6111 10.7219 53.0278 11.1386 53.0278 11.6478C53.0185 12.1571 52.6111 12.5737 52.0926 12.5737Z" fill="var(--fill-0, #1B6025)"/>
</g>
<path id="Vector_6" d="M140.694 6.12974C140.694 7.47233 139.611 8.55566 138.268 8.55566C136.926 8.55566 135.843 7.47233 135.843 6.12974C135.843 4.78714 136.926 3.70381 138.268 3.70381C139.602 3.70381 140.694 4.78714 140.694 6.12974Z" fill="var(--fill-0, #FF730F)"/>
<g id="Group_5">
<path id="Vector_7" d="M161.694 9.49105C159.843 9.49105 158.343 7.98179 158.343 6.1392C158.343 4.29661 159.843 2.77809 161.694 2.77809C163.546 2.77809 165.046 4.28735 165.046 6.12994C165.046 7.97254 163.546 9.49105 161.694 9.49105ZM161.694 4.62994C160.87 4.62994 160.194 5.30587 160.194 6.12994C160.194 6.95402 160.87 7.62994 161.694 7.62994C162.519 7.62994 163.194 6.95402 163.194 6.12994C163.194 5.30587 162.528 4.62994 161.694 4.62994Z" fill="var(--fill-0, #1B6025)"/>
</g>
<path id="Vector_8" d="M152.185 6.43563C152.185 7.77822 151.102 8.86155 149.759 8.86155C148.417 8.86155 147.333 7.77822 147.333 6.43563C147.333 5.09303 148.417 4.0097 149.759 4.0097C151.102 4.0097 152.185 5.10229 152.185 6.43563Z" fill="var(--fill-0, #1B6025)"/>
<path id="Vector_9" d="M157.917 32.62V35.4997C157.917 40.5552 154.333 44.6941 149.954 44.6941H50.4074C46.0278 44.6941 42.4444 40.5552 42.4444 35.4997V32.62C42.4444 27.5645 46.0278 23.4256 50.4074 23.4256H149.954C154.333 23.4256 157.917 27.5645 157.917 32.62Z" fill="var(--fill-0, #6CB41B)"/>
<g id="Group_6">
<path id="Vector_10" d="M51.7778 39.9724C51.7778 37.8335 51.7778 35.6761 51.7778 33.4817C51.7778 31.2965 51.7778 29.1298 51.7778 26.991C53.0648 26.991 54.3611 26.991 55.6667 26.991C56.9815 26.991 58.2778 26.991 59.5555 26.991C59.5555 27.4724 59.5555 27.9724 59.5555 28.4817C59.5555 28.991 59.5555 29.4817 59.5555 29.9724C58.8148 29.9724 58.0741 29.9724 57.3333 29.9724C56.5926 29.9724 55.8518 29.9724 55.1111 29.9724C55.1111 30.2872 55.1111 30.6021 55.1111 30.9169C55.1111 31.2317 55.1111 31.5465 55.1111 31.8613C55.787 31.8613 56.4629 31.8613 57.1574 31.8613C57.8426 31.8613 58.5185 31.8613 59.1759 31.8613C59.1759 32.3335 59.1759 32.8058 59.1759 33.2873C59.1759 33.7687 59.1759 34.2502 59.1759 34.741C58.5185 34.741 57.8426 34.741 57.1574 34.741C56.4722 34.741 55.787 34.741 55.1111 34.741C55.1111 35.1113 55.1111 35.4817 55.1111 35.8706C55.1111 36.2502 55.1111 36.6298 55.1111 37.0002C55.8518 37.0002 56.5926 37.0002 57.3333 37.0002C58.0741 37.0002 58.8148 37.0002 59.5555 37.0002C59.5555 37.4817 59.5555 37.9817 59.5555 38.491C59.5555 39.0002 59.5555 39.491 59.5555 39.9817C58.2685 39.9817 56.9722 39.9817 55.6667 39.9817C54.3611 39.9724 53.0648 39.9724 51.7778 39.9724Z" fill="var(--fill-0, #1B6025)"/>
<path id="Vector_11" d="M64.1203 39.9724C64.1203 38.3335 64.1203 36.6761 64.1203 35.0002C64.1203 33.3243 64.1203 31.6669 64.1203 30.028C63.6389 30.028 63.1481 30.028 62.6481 30.028C62.1481 30.028 61.6666 30.028 61.1759 30.028C61.1759 29.528 61.1759 29.028 61.1759 28.5095C61.1759 27.991 61.1759 27.491 61.1759 26.991C62.6851 26.991 64.2222 26.991 65.7685 26.991C67.324 26.991 68.8518 26.991 70.3611 26.991C70.3611 27.491 70.3611 27.991 70.3611 28.5095C70.3611 29.028 70.3611 29.528 70.3611 30.028C69.8888 30.028 69.4074 30.028 68.9166 30.028C68.4166 30.028 67.9351 30.028 67.4444 30.028C67.4444 31.6669 67.4444 33.3243 67.4444 35.0002C67.4444 36.6761 67.4444 38.3243 67.4444 39.9724C66.8981 39.9724 66.3426 39.9724 65.787 39.9724C65.2407 39.9724 64.6851 39.9724 64.1203 39.9724Z" fill="var(--fill-0, #1B6025)"/>
<path id="Vector_12" d="M75.5277 39.9724C74.9814 39.9724 74.4259 39.9724 73.8703 39.9724C73.3055 39.9724 72.75 39.9724 72.1944 39.9724C72.1944 37.8335 72.1944 35.6761 72.1944 33.4817C72.1944 31.2965 72.1944 29.1298 72.1944 26.991C72.75 26.991 73.3148 26.991 73.8703 26.991C74.4259 26.991 74.9814 26.991 75.5277 26.991C75.5277 27.7687 75.5277 28.5465 75.5277 29.3243C75.5277 30.1113 75.5277 30.8891 75.5277 31.6669C76.2037 31.6669 76.8796 31.6669 77.574 31.6669C78.2592 31.6669 78.9352 31.6669 79.5926 31.6669C79.5926 30.8891 79.5926 30.1113 79.5926 29.3243C79.5926 28.5465 79.5926 27.7595 79.5926 26.991C80.1574 26.991 80.7129 26.991 81.2685 26.991C81.8241 26.991 82.3796 26.991 82.9259 26.991C82.9259 29.1298 82.9259 31.2873 82.9259 33.4817C82.9259 35.6669 82.9259 37.8335 82.9259 39.9724C82.3796 39.9724 81.8241 39.9724 81.2685 39.9724C80.7037 39.9724 80.1481 39.9724 79.5926 39.9724C79.5926 39.1113 79.5926 38.2317 79.5926 37.3521C79.5926 36.4724 79.5926 35.6021 79.5926 34.7502C78.9352 34.7502 78.2592 34.7502 77.574 34.7502C76.8889 34.7502 76.2037 34.7502 75.5277 34.7502C75.5277 35.6021 75.5277 36.4724 75.5277 37.3521C75.5277 38.2317 75.5277 39.1113 75.5277 39.9724Z" fill="var(--fill-0, #1B6025)"/>
<path id="Vector_13" d="M85.5092 39.9724C85.5092 37.8335 85.5092 35.6761 85.5092 33.4817C85.5092 31.2965 85.5092 29.1298 85.5092 26.991C86.0741 26.991 86.6296 26.991 87.1852 26.991C87.7407 26.991 88.2963 26.991 88.8426 26.991C88.8426 29.1298 88.8426 31.2873 88.8426 33.4817C88.8426 35.6669 88.8426 37.8335 88.8426 39.9724C88.2963 39.9724 87.7407 39.9724 87.1852 39.9724C86.6296 39.9724 86.0741 39.9724 85.5092 39.9724Z" fill="var(--fill-0, #1B6025)"/>
<path id="Vector_14" d="M90.7778 33.4911C90.7778 32.5096 90.9352 31.6208 91.2408 30.8152C91.5556 30.0096 91.9908 29.3059 92.5649 28.7041C93.1389 28.1022 93.8241 27.6393 94.6297 27.3152C95.4352 26.9819 96.3149 26.8059 97.2871 26.7782C98.2593 26.7504 99.2963 26.9078 100.407 27.2319C100.407 27.7689 100.407 28.3059 100.407 28.843C100.407 29.38 100.407 29.9171 100.407 30.4541C99.6575 30.1022 98.9167 29.8985 98.176 29.843C97.4352 29.7874 96.7686 29.8985 96.176 30.1485C95.5741 30.4078 95.1019 30.8059 94.75 31.3615C94.3889 31.9171 94.213 32.6208 94.213 33.4911C94.213 34.3522 94.3889 35.0652 94.75 35.6208C95.1019 36.1763 95.5834 36.5745 96.176 36.8337C96.7778 37.0837 97.4445 37.1948 98.176 37.1393C98.9167 37.0837 99.6575 36.88 100.407 36.5282C100.407 37.0652 100.407 37.6022 100.407 38.1393C100.407 38.6763 100.407 39.2134 100.407 39.7504C99.3056 40.0837 98.2593 40.2319 97.2871 40.2041C96.3149 40.1763 95.426 40.0004 94.6297 39.6671C93.8241 39.3337 93.1389 38.8708 92.5649 38.2782C91.9908 37.6763 91.5463 36.9819 91.2408 36.1671C90.926 35.3615 90.7778 34.4633 90.7778 33.4911Z" fill="var(--fill-0, #1B6025)"/>
<path id="Vector_15" d="M111.13 36.0646C111.13 37.0276 110.88 37.8146 110.38 38.4257C109.88 39.0276 109.204 39.4628 108.361 39.7313C107.518 39.9998 106.574 40.1202 105.528 40.0831C104.481 40.0461 103.426 39.8887 102.343 39.5924C102.343 39.0461 102.343 38.4998 102.343 37.9535C102.343 37.4072 102.343 36.8609 102.343 36.3146C103.333 36.6665 104.241 36.8979 105.056 36.9813C105.87 37.0739 106.518 37.0368 107 36.8794C107.481 36.722 107.722 36.4535 107.722 36.0646C107.722 35.7961 107.593 35.5831 107.324 35.4072C107.056 35.2313 106.713 35.0831 106.287 34.9442C105.861 34.8053 105.417 34.6387 104.944 34.4628C104.472 34.2776 104.028 34.0461 103.602 33.759C103.176 33.472 102.833 33.1016 102.565 32.6294C102.296 32.1665 102.167 31.5831 102.167 30.8887C102.167 30.0276 102.398 29.2961 102.852 28.6942C103.306 28.0924 103.926 27.6479 104.713 27.3424C105.5 27.0368 106.389 26.8887 107.389 26.8887C108.389 26.8887 109.417 27.0368 110.491 27.3424C110.491 27.8887 110.491 28.435 110.491 28.9813C110.491 29.5276 110.491 30.0739 110.491 30.6202C109.602 30.2405 108.787 30.009 108.037 29.9257C107.296 29.8424 106.694 29.8794 106.25 30.0368C105.806 30.1942 105.583 30.4535 105.583 30.8053C105.583 31.0646 105.713 31.2683 105.981 31.435C106.25 31.6016 106.593 31.7498 107.018 31.8794C107.444 32.009 107.889 32.1757 108.361 32.3516C108.833 32.5368 109.278 32.7776 109.704 33.0739C110.13 33.3702 110.472 33.759 110.741 34.2405C111 34.722 111.13 35.3239 111.13 36.0646Z" fill="var(--fill-0, #1B6025)"/>
<path id="Vector_16" d="M114.12 40.2778C113.75 40.2778 113.407 40.1852 113.102 40.0093C112.787 39.8333 112.546 39.5926 112.37 39.287C112.194 38.9815 112.102 38.6482 112.102 38.2963C112.102 37.9352 112.194 37.6111 112.37 37.3148C112.546 37.0185 112.796 36.7778 113.102 36.6019C113.417 36.4259 113.75 36.3333 114.12 36.3333C114.491 36.3333 114.824 36.4259 115.12 36.6019C115.417 36.7778 115.657 37.0185 115.843 37.3148C116.028 37.6111 116.12 37.9445 116.12 38.2963C116.12 38.6482 116.028 38.9815 115.843 39.287C115.657 39.5926 115.417 39.8333 115.12 40.0093C114.824 40.1852 114.491 40.2778 114.12 40.2778Z" fill="var(--fill-0, #1B6025)"/>
<path id="Vector_17" d="M119.676 40.2778C119.306 40.2778 118.963 40.1852 118.657 40.0093C118.343 39.8333 118.102 39.5926 117.926 39.287C117.75 38.9815 117.657 38.6482 117.657 38.2963C117.657 37.9352 117.75 37.6111 117.926 37.3148C118.102 37.0185 118.352 36.7778 118.657 36.6019C118.972 36.4259 119.306 36.3333 119.676 36.3333C120.046 36.3333 120.38 36.4259 120.676 36.6019C120.972 36.7778 121.213 37.0185 121.398 37.3148C121.583 37.6111 121.676 37.9445 121.676 38.2963C121.676 38.6482 121.583 38.9815 121.398 39.287C121.213 39.5926 120.972 39.8333 120.676 40.0093C120.38 40.1852 120.046 40.2778 119.676 40.2778Z" fill="var(--fill-0, #1B6025)"/>
<path id="Vector_18" d="M125.231 40.2778C124.861 40.2778 124.518 40.1852 124.213 40.0093C123.898 39.8333 123.657 39.5926 123.481 39.287C123.306 38.9815 123.213 38.6482 123.213 38.2963C123.213 37.9352 123.306 37.6111 123.481 37.3148C123.657 37.0185 123.907 36.7778 124.213 36.6019C124.528 36.4259 124.861 36.3333 125.231 36.3333C125.602 36.3333 125.935 36.4259 126.231 36.6019C126.528 36.7778 126.768 37.0185 126.954 37.3148C127.139 37.6111 127.231 37.9445 127.231 38.2963C127.231 38.6482 127.139 38.9815 126.954 39.287C126.768 39.5926 126.528 39.8333 126.231 40.0093C125.935 40.1852 125.602 40.2778 125.231 40.2778Z" fill="var(--fill-0, #1B6025)"/>
</g>
<g id="Group_7">
<path id="Vector_19" d="M7.20378 34.7961C7.20378 34.148 7.20378 33.5091 7.20378 32.8609C7.20378 32.2128 7.20378 31.5739 7.20378 30.9257C8.53711 30.2961 9.8797 29.6572 11.2315 29.0183C12.5834 28.3794 13.9167 27.7498 15.2408 27.1202C15.2408 27.7683 15.2408 28.4165 15.2408 29.0646C15.2408 29.7128 15.2408 30.3702 15.2408 31.0091C14.5649 31.2961 13.889 31.5924 13.2038 31.898C12.5186 32.2035 11.8427 32.5091 11.1667 32.8146C11.8427 33.1109 12.5186 33.4165 13.2038 33.722C13.889 34.0276 14.5649 34.3331 15.2408 34.6387C15.2408 35.2868 15.2408 35.9443 15.2408 36.6109C15.2408 37.2776 15.2408 37.9443 15.2408 38.6017C13.9167 37.972 12.5834 37.3424 11.2315 36.7035C9.8797 36.0646 8.53711 35.4257 7.20378 34.7961Z" fill="var(--fill-0, #1B6025)"/>
<path id="Vector_20" d="M16.4723 43.3981C17.5834 39.9444 18.7038 36.4629 19.8519 32.9352C20.9908 29.4074 22.1205 25.9259 23.2316 22.4722C23.8427 22.4722 24.4723 22.4722 25.1019 22.4722C25.7316 22.4722 26.3427 22.4722 26.9445 22.4722C25.8334 25.9259 24.713 29.4074 23.5649 32.9352C22.426 36.4629 21.2964 39.9537 20.1853 43.3981C19.5834 43.3981 18.9723 43.3981 18.3427 43.3981C17.713 43.3981 17.0927 43.3981 16.4723 43.3981Z" fill="var(--fill-0, #1B6025)"/>
<path id="Vector_21" d="M36.5464 34.7959C35.2223 35.4255 33.889 36.0552 32.5371 36.694C31.1853 37.3329 29.8427 37.9626 28.5093 38.5922C28.5093 37.9348 28.5093 37.2681 28.5093 36.6015C28.5093 35.9348 28.5093 35.2774 28.5093 34.6292C29.1853 34.3329 29.8612 34.0274 30.5464 33.7126C31.2316 33.407 31.9075 33.1015 32.5834 32.8052C31.9075 32.5089 31.2316 32.2033 30.5464 31.8885C29.8612 31.5829 29.1853 31.2866 28.5093 30.9996C28.5093 30.3515 28.5093 29.7033 28.5093 29.0552C28.5093 28.3977 28.5093 27.7496 28.5093 27.1107C29.8427 27.7403 31.1853 28.37 32.5371 29.0089C33.889 29.6477 35.2223 30.2774 36.5464 30.9163C36.5464 31.5644 36.5464 32.2033 36.5464 32.8515C36.5464 33.5089 36.5464 34.157 36.5464 34.7959Z" fill="var(--fill-0, #1B6025)"/>
</g>
</g>
</svg>
