<svg preserveAspectRatio="none" width="100%" height="100%" overflow="visible" style="display: block;" viewBox="0 0 8.99316 11.4761" fill="none" xmlns="http://www.w3.org/2000/svg">
<path id="Vector" d="M8.81164 1.78848C8.45955 2.1528 8.04157 2.62752 7.55751 3.21268C7.07346 3.78676 6.57298 4.41604 6.05589 5.10052C5.53889 5.785 5.02736 6.49156 4.52131 7.2202C4.01526 7.94884 3.56425 8.64436 3.16817 9.30676H8.99316V11.4761H0V9.93604C0.30801 9.373 0.682002 8.74924 1.12207 8.06476C1.57309 7.36924 2.04062 6.67372 2.52468 5.9782C3.00864 5.27164 3.49826 4.59268 3.99327 3.94132C4.49932 3.27892 4.96685 2.68824 5.39587 2.16936H0.26402V0H8.81164V1.78848Z" fill="var(--fill-0, white)"/>
</svg>
