<svg preserveAspectRatio="none" width="100%" height="100%" overflow="visible" style="display: block;" viewBox="0 0 40.8525 15.1973" fill="none" xmlns="http://www.w3.org/2000/svg">
<g id="GooglePay_1_">
<path id="Shape_1_" fill-rule="evenodd" clip-rule="evenodd" d="M19.3199 11.8818V7.42209H21.8131C22.8416 7.42209 23.7055 7.10942 24.4049 6.48407C25.1126 5.89164 25.5075 5.03591 25.4911 4.14726C25.5075 3.26684 25.1126 2.41934 24.4049 1.82691C23.7138 1.20156 22.7758 0.855976 21.8131 0.872433H17.8141V11.8736H19.3199V11.8818ZM19.3199 6.07266V2.23009H21.846C22.4137 2.21363 22.9568 2.42756 23.3353 2.81429C23.722 3.1681 23.9442 3.65357 23.9442 4.15549C23.9442 4.65741 23.722 5.14287 23.3353 5.49669C22.9485 5.87518 22.4055 6.08089 21.846 6.06443H19.3199V6.07266Z" fill="var(--fill-0, white)"/>
<path id="Shape_2_1_" fill-rule="evenodd" clip-rule="evenodd" d="M31.6042 4.9446C30.9624 4.38509 30.082 4.10533 28.963 4.10533C27.5313 4.10533 26.4451 4.59902 25.7211 5.57818L27.0458 6.35986C27.5395 5.69337 28.206 5.36424 29.0452 5.36424C29.5801 5.35602 30.0985 5.54526 30.5016 5.88262C30.8966 6.18706 31.127 6.64784 31.127 7.13331V7.45421C30.551 7.14977 29.8105 6.99343 28.9136 6.99343C27.8604 6.99343 27.0211 7.22382 26.3958 7.6846C25.7704 8.14538 25.4495 8.76249 25.4495 9.54417C25.4331 10.2518 25.7622 10.9265 26.3464 11.3873C26.9388 11.881 27.6794 12.1278 28.568 12.1278C29.6048 12.1278 30.4358 11.7 31.0612 10.836H31.127V11.881H32.5669V7.24028C32.5752 6.26935 32.2543 5.50412 31.6042 4.9446ZM27.5148 10.4986C27.2021 10.2847 27.0129 9.93913 27.0129 9.57709C27.0129 9.16568 27.2186 8.82832 27.63 8.54856C28.0414 8.2688 28.5516 8.13715 29.1604 8.13715C29.9997 8.13715 30.658 8.30994 31.127 8.66376C31.127 9.25619 30.8801 9.77456 30.3782 10.2107C29.9257 10.6303 29.3168 10.8689 28.6832 10.8689C28.2636 10.8689 27.8439 10.7373 27.5148 10.4986Z" fill="var(--fill-0, white)"/>
<path id="Path_1_" fill-rule="evenodd" clip-rule="evenodd" d="M40.8525 4.35256L35.8168 15.1973H34.2617L36.1295 11.4041L32.8135 4.35256H34.4509L36.8454 9.75849H36.8783L39.2069 4.35256H40.8525Z" fill="var(--fill-0, white)"/>
<path id="Path_2_1_" fill-rule="evenodd" clip-rule="evenodd" d="M13.2224 6.46721C13.2224 6.03935 13.1812 5.60325 13.1072 5.18361H6.74677V7.61916H10.3919C10.2438 8.40084 9.75829 9.10024 9.04244 9.53634V11.1162H11.2147C12.4901 10.0136 13.2224 8.38439 13.2224 6.46721Z" fill="var(--fill-0, #4285F4)"/>
<path id="Path_3_1_" fill-rule="evenodd" clip-rule="evenodd" d="M6.74707 12.6379C8.5655 12.6379 10.1042 12.0784 11.215 11.1157L9.04274 9.53591C8.43385 9.92264 7.6604 10.1366 6.74707 10.1366C4.98623 10.1366 3.49693 9.02576 2.96209 7.52823H0.715791V9.15741C1.86774 11.2885 4.19632 12.6379 6.74707 12.6379Z" fill="var(--fill-0, #34A853)"/>
<path id="Path_4_1_" fill-rule="evenodd" clip-rule="evenodd" d="M2.96216 7.52974C2.6824 6.74806 2.6824 5.89233 2.96216 5.11065V3.48146H0.715854C-0.238618 5.26699 -0.238618 7.37341 0.715854 9.15893L2.96216 7.52974Z" fill="var(--fill-0, #FBBC04)"/>
<path id="Path_5_1_" fill-rule="evenodd" clip-rule="evenodd" d="M6.74707 2.50171C7.70977 2.48526 8.63956 2.83084 9.33896 3.44796L11.2644 1.64598C10.0384 0.568085 8.42562 -0.016118 6.74707 0.000338421C4.19632 0.000338421 1.86774 1.34977 0.715791 3.48087L2.96209 5.11006C3.49693 3.61252 4.98623 2.50171 6.74707 2.50171Z" fill="var(--fill-0, #EA4335)"/>
</g>
</svg>
