<svg preserveAspectRatio="none" width="100%" height="100%" overflow="visible" style="display: block;" viewBox="0 0 17.6177 16.3434" fill="none" xmlns="http://www.w3.org/2000/svg">
<path id="Star 1" d="M7.86206 0.678166C8.16943 -0.226056 9.44829 -0.226055 9.75566 0.678167L11.1751 4.85396C11.3129 5.25943 11.6936 5.53213 12.1219 5.53213H16.6158C17.5955 5.53213 17.9909 6.79469 17.1863 7.35348L13.6294 9.82369C13.263 10.0781 13.1094 10.5445 13.253 10.9669L14.6297 15.0171C14.9402 15.9305 13.9049 16.7106 13.1125 16.1603L9.37928 13.5676C9.0363 13.3294 8.58142 13.3294 8.23844 13.5676L4.50522 16.1603C3.71281 16.7106 2.67751 15.9305 2.988 15.0171L4.36474 10.9669C4.50831 10.5445 4.35476 10.0781 3.98836 9.82369L0.431463 7.35348C-0.37315 6.79469 0.0222644 5.53213 1.00188 5.53213H5.49584C5.92409 5.53213 6.30481 5.25943 6.44263 4.85396L7.86206 0.678166Z" fill="url(#paint0_linear_7_1176)"/>
<defs>
<linearGradient id="paint0_linear_7_1176" x1="8.80886" y1="17.8928" x2="8.80886" y2="-2.04364" gradientUnits="userSpaceOnUse">
<stop stop-color="#F85300"/>
<stop offset="1" stop-color="#F58200"/>
</linearGradient>
</defs>
</svg>
