<svg preserveAspectRatio="none" width="100%" height="100%" overflow="visible" style="display: block;" viewBox="0 0 19.6895 21.5385" fill="none" xmlns="http://www.w3.org/2000/svg">
<g id="Group">
<path id="Vector" fill-rule="evenodd" clip-rule="evenodd" d="M3.28158 6.46154C3.28158 4.74784 3.97306 3.10432 5.20389 1.89254C6.43472 0.680769 8.1041 0 9.84474 0C11.5854 0 13.2548 0.680769 14.4856 1.89254C15.7165 3.10432 16.4079 4.74784 16.4079 6.46154H17.5017C18.082 6.46154 18.6385 6.68846 19.0487 7.09239C19.459 7.49631 19.6895 8.04415 19.6895 8.61538V19.3846C19.6895 19.9558 19.459 20.5037 19.0487 20.9076C18.6385 21.3116 18.082 21.5385 17.5017 21.5385H2.18772C1.6075 21.5385 1.05105 21.3116 0.640772 20.9076C0.230489 20.5037 0 19.9558 0 19.3846V8.61538C0 8.04415 0.230489 7.49631 0.640772 7.09239C1.05105 6.68846 1.6075 6.46154 2.18772 6.46154H3.28158ZM9.84474 2.15384C11.0052 2.15384 12.1181 2.60769 12.9387 3.41554C13.7592 4.22339 14.2201 5.31906 14.2201 6.46154H5.4693C5.4693 5.31906 5.93028 4.22339 6.75084 3.41554C7.57139 2.60769 8.68428 2.15384 9.84474 2.15384ZM12.0325 12.9231C12.0325 13.3011 11.9314 13.6725 11.7394 14C11.5474 14.3274 11.2712 14.5993 10.9386 14.7883V16.1539C10.9386 16.4395 10.8233 16.7133 10.6182 16.9153C10.4131 17.1173 10.1349 17.2307 9.84474 17.2307C9.5546 17.2307 9.27641 17.1173 9.07128 16.9153C8.86615 16.7133 8.75091 16.4395 8.75091 16.1539V14.7883C8.33385 14.5512 8.0079 14.1853 7.82362 13.7472C7.63934 13.3092 7.60702 12.8236 7.73166 12.3657C7.8563 11.9076 8.13098 11.5029 8.513 11.2143C8.89503 10.9257 9.36314 10.7693 9.84474 10.7692C10.4249 10.7692 10.9814 10.9962 11.3917 11.4001C11.802 11.804 12.0325 12.3518 12.0325 12.9231Z" fill="var(--fill-0, white)"/>
</g>
</svg>
