<svg preserveAspectRatio="none" width="100%" height="100%" overflow="visible" style="display: block;" viewBox="0 0 67.7284 67.7284" fill="none" xmlns="http://www.w3.org/2000/svg">
<g id="Group">
<path id="Vector" d="M61.3317 40.2607C64.8645 25.0908 55.4307 9.92924 40.2608 6.39649C25.0908 2.86375 9.92932 12.2976 6.39657 27.4675C2.86383 42.6374 12.2976 57.7989 27.4676 61.3317C42.6375 64.8644 57.799 55.4306 61.3317 40.2607Z" fill="var(--fill-0, #FFF8F2)"/>
<g id="Group_2">
<path id="Vector_2" d="M33.8657 62.9712C17.8102 62.9712 4.73612 49.9064 4.73612 33.8415C4.73612 17.786 17.8009 4.71192 33.8657 4.71192C49.9213 4.71192 62.9954 17.7767 62.9954 33.8415C62.9954 49.9064 49.9306 62.9712 33.8657 62.9712ZM33.8657 6.57302C18.8287 6.57302 6.58797 18.8045 6.58797 33.8508C6.58797 48.8971 18.8194 61.1286 33.8657 61.1286C48.9028 61.1286 61.1435 48.8971 61.1435 33.8508C61.1435 18.8045 48.912 6.57302 33.8657 6.57302Z" fill="var(--fill-0, #1B6025)"/>
</g>
</g>
</svg>
