<svg preserveAspectRatio="none" width="100%" height="100%" overflow="visible" style="display: block;" viewBox="0 0 4.05449 5.37074" fill="none" xmlns="http://www.w3.org/2000/svg">
<path id="Vector" d="M0 3.61357L0.635767 3.55689C0.665913 3.81665 0.735347 4.03043 0.84425 4.19806C0.955417 4.36338 1.12678 4.49806 1.35844 4.602C1.5901 4.70354 1.85063 4.75431 2.14013 4.75431C2.39723 4.75431 2.62427 4.71535 2.82116 4.63735C3.01797 4.55945 3.1639 4.4532 3.25886 4.31852C3.35618 4.18154 3.40479 4.03274 3.40479 3.87222C3.40479 3.7092 3.35853 3.56751 3.26583 3.44705C3.17322 3.32428 3.02032 3.22154 2.80722 3.13883C2.67062 3.08455 2.36835 3.00065 1.90042 2.88729C1.43258 2.77154 1.10479 2.66289 0.917215 2.56135C0.673971 2.43148 0.492194 2.27086 0.371703 2.0796C0.253567 1.88594 0.194542 1.66985 0.194542 1.43123C0.194542 1.16908 0.267508 0.924646 0.413437 0.697938C0.559365 0.46883 0.772464 0.2952 1.05273 0.177139C1.333 0.0590771 1.6445 0 1.98733 0C2.36482 0 2.69723 0.0625843 2.98438 0.187754C3.27397 0.310615 3.49631 0.492462 3.65147 0.733385C3.80672 0.974216 3.8901 1.24708 3.90169 1.55169L3.25542 1.60135C3.22065 1.27302 3.10252 1.02508 2.90101 0.857354C2.70185 0.689631 2.40655 0.605815 2.01512 0.605815C1.60748 0.605815 1.30983 0.682615 1.12217 0.836123C0.936858 0.987231 0.84425 1.17028 0.84425 1.38517C0.84425 1.57182 0.910244 1.72532 1.04223 1.84578C1.17196 1.96625 1.51016 2.09021 2.05676 2.21778C2.60571 2.34295 2.98212 2.45271 3.18589 2.54723C3.48237 2.68652 3.70126 2.86366 3.84257 3.07865C3.98388 3.29114 4.05449 3.53677 4.05449 3.81554C4.05449 4.09181 3.97691 4.35277 3.82175 4.5984C3.66659 4.84172 3.44299 5.03178 3.15122 5.16877C2.86163 5.30345 2.5351 5.37074 2.17146 5.37074C1.7105 5.37074 1.32368 5.30225 1.011 5.16526C0.700676 5.02828 0.456255 4.8228 0.277919 4.54883C0.101935 4.27246 0.00923368 3.96074 0 3.61357Z" fill="var(--fill-0, white)"/>
</svg>
