<svg preserveAspectRatio="none" width="100%" height="100%" overflow="visible" style="display: block;" viewBox="0 0 4.87095 5.37425" fill="none" xmlns="http://www.w3.org/2000/svg">
<path id="Vector" d="M0 2.75622C0 1.89415 0.226947 1.21985 0.680936 0.733385C1.13493 0.244431 1.7209 0 2.43896 0C2.90915 0 3.333 0.114555 3.71058 0.343663C4.08808 0.57277 4.37532 0.892801 4.57221 1.30375C4.77137 1.71231 4.87095 2.17643 4.87095 2.69603C4.87095 3.22265 4.76675 3.69388 4.55827 4.10954C4.34988 4.5252 4.05449 4.84052 3.67238 5.05541C3.29018 5.268 2.87792 5.37425 2.43552 5.37425C1.956 5.37425 1.52754 5.25619 1.14996 5.01997C0.772463 4.78385 0.486394 4.46142 0.291853 4.05286C0.0973116 3.64422 0 3.21203 0 2.75622ZM0.694881 2.76683C0.694881 3.39277 0.859275 3.88634 1.18825 4.24772C1.51939 4.60671 1.934 4.78615 2.43199 4.78615C2.9393 4.78615 3.35617 4.60431 3.68279 4.24062C4.01167 3.87692 4.17616 3.36083 4.17616 2.69243C4.17616 2.26966 4.10546 1.90126 3.96424 1.58714C3.82519 1.27062 3.62024 1.02618 3.3492 0.853754C3.08052 0.679015 2.77825 0.5916 2.4424 0.5916C1.96532 0.5916 1.55416 0.759323 1.20907 1.09468C0.866248 1.42772 0.694881 1.98508 0.694881 2.76683Z" fill="var(--fill-0, white)"/>
</svg>
