<svg preserveAspectRatio="none" width="100%" height="100%" overflow="visible" style="display: block;" viewBox="0 0 39.6798 24.3547" fill="none" xmlns="http://www.w3.org/2000/svg">
<g id="Mastercard_1_">
<path id="Left_1_" fill-rule="evenodd" clip-rule="evenodd" d="M19.8399 21.4359C17.7413 23.2523 15.0166 24.3457 12.0362 24.3457C5.38763 24.3457 0 18.8964 0 12.1773C0 5.44936 5.38763 0 12.0362 0C15.0166 0 17.7413 1.0934 19.8399 2.90985C21.9385 1.0934 24.6632 0 27.6436 0C34.2922 0 39.6798 5.44936 39.6798 12.1773C39.6798 18.8964 34.2922 24.3546 27.6436 24.3546C24.6632 24.3457 21.9385 23.2523 19.8399 21.4359Z" fill="var(--fill-0, #ED0006)"/>
<path id="Right_1_" fill-rule="evenodd" clip-rule="evenodd" d="M19.8399 21.436C22.4235 19.2051 24.0724 15.8809 24.0724 12.1686C24.0724 8.45634 22.4323 5.13205 19.8399 2.90117C21.9385 1.09353 24.6632 0.000135529 27.6436 0.000135529C34.2922 0.000135529 39.6798 5.44949 39.6798 12.1774C39.6798 18.8965 34.2922 24.3547 27.6436 24.3547C24.6632 24.3459 21.9385 23.2525 19.8399 21.436Z" fill="var(--fill-0, #F9A000)"/>
<path id="Middle_1_" fill-rule="evenodd" clip-rule="evenodd" d="M19.8401 2.91114C22.4237 5.14203 24.0726 8.46631 24.0726 12.1786C24.0726 15.8908 22.4325 19.2151 19.8401 21.446C17.2565 19.2151 15.6076 15.8908 15.6076 12.1786C15.6076 8.46631 17.2565 5.14203 19.8401 2.91114Z" fill="var(--fill-0, #FF5E00)"/>
</g>
</svg>
