<svg preserveAspectRatio="none" width="100%" height="100%" overflow="visible" style="display: block;" viewBox="0 0 5.64338 8.89275" fill="none" xmlns="http://www.w3.org/2000/svg">
<path id="Vector" d="M5.23087 2.36811C5.01084 2.31291 4.75229 2.25771 4.45532 2.20251C4.15827 2.13627 3.83931 2.10315 3.49826 2.10315C3.34421 2.10315 3.15721 2.11971 2.93718 2.15283C2.72819 2.17491 2.56866 2.20251 2.45869 2.23563V8.89275H0V0.645868C0.439975 0.491308 0.957066 0.34776 1.55109 0.21528C2.15616 0.0717602 2.82721 0 3.56424 0C3.6963 0 3.85574 0.0110402 4.04282 0.0331202C4.22982 0.0441602 4.41682 0.0662407 4.60381 0.0993607C4.79081 0.121441 4.97789 0.154561 5.16489 0.198721C5.35189 0.231841 5.51141 0.276001 5.64338 0.331201L5.23087 2.36811Z" fill="var(--fill-0, white)"/>
</svg>
