<svg preserveAspectRatio="none" width="100%" height="100%" overflow="visible" style="display: block;" viewBox="0 0 21.2 21.2" fill="none" xmlns="http://www.w3.org/2000/svg">
<g id="Icon">
<path d="M16.5012 3.59851C16.7071 4.09653 17.1024 4.4924 17.6001 4.69907L19.3452 5.42198C19.8433 5.62828 20.239 6.02399 20.4453 6.52206C20.6516 7.02012 20.6516 7.57974 20.4453 8.07781L19.7229 9.8218C19.5165 10.3201 19.5162 10.8803 19.7236 11.3783L20.4447 13.1218C20.5469 13.3685 20.5996 13.6329 20.5996 13.8999C20.5997 14.167 20.5471 14.4314 20.4449 14.6781C20.3427 14.9249 20.1929 15.149 20.0041 15.3378C19.8152 15.5266 19.591 15.6764 19.3443 15.7785L17.6004 16.5009C17.1023 16.7068 16.7065 17.1021 16.4998 17.5998L15.7769 19.345C15.5706 19.8431 15.175 20.2388 14.6769 20.4451C14.1789 20.6514 13.6193 20.6514 13.1212 20.4451L11.3773 19.7227C10.8792 19.5169 10.3198 19.5173 9.82208 19.7239L8.07689 20.4458C7.57912 20.6516 7.02001 20.6514 6.52237 20.4453C6.02473 20.2391 5.62925 19.8439 5.42281 19.3464L4.69972 17.6006C4.4938 17.1026 4.09854 16.7067 3.60085 16.5L1.85566 15.7771C1.35783 15.5709 0.962256 15.1754 0.755882 14.6777C0.549508 14.1799 0.549228 13.6205 0.755104 13.1225L1.47746 11.3786C1.68325 10.8805 1.68283 10.3211 1.4763 9.82328L0.754972 8.07678C0.652703 7.8301 0.600043 7.56568 0.6 7.29863C0.599957 7.03159 0.652533 6.76715 0.754723 6.52043C0.856913 6.27372 1.00671 6.04955 1.19557 5.86075C1.38442 5.67195 1.60862 5.52222 1.85537 5.4201L3.5993 4.69772C4.09687 4.49197 4.49248 4.0972 4.6993 3.60006L5.42218 1.85481C5.62848 1.35674 6.02418 0.961034 6.52222 0.754729C7.02027 0.548424 7.57987 0.548424 8.07792 0.754729L9.82185 1.47712C10.3199 1.68291 10.8793 1.68249 11.3771 1.47595L13.123 0.755849C13.621 0.54966 14.1804 0.549702 14.6784 0.755967C15.1763 0.962231 15.572 1.35783 15.7783 1.85576L16.5014 3.60153L16.5012 3.59851Z" fill="var(--fill-0, #6CB41B)"/>
<path d="M7.6 10.6L9.6 12.6L14.1 8.1M16.5012 3.59851C16.7071 4.09653 17.1024 4.4924 17.6001 4.69907L19.3452 5.42198C19.8433 5.62828 20.239 6.02399 20.4453 6.52206C20.6516 7.02012 20.6516 7.57974 20.4453 8.07781L19.7229 9.8218C19.5165 10.3201 19.5162 10.8803 19.7236 11.3783L20.4447 13.1218C20.5469 13.3685 20.5996 13.6329 20.5996 13.8999C20.5997 14.167 20.5471 14.4314 20.4449 14.6781C20.3427 14.9249 20.1929 15.149 20.0041 15.3378C19.8152 15.5266 19.591 15.6764 19.3443 15.7785L17.6004 16.5009C17.1023 16.7068 16.7065 17.1021 16.4998 17.5998L15.7769 19.345C15.5706 19.8431 15.175 20.2388 14.6769 20.4451C14.1789 20.6514 13.6193 20.6514 13.1212 20.4451L11.3773 19.7227C10.8792 19.5169 10.3198 19.5173 9.82208 19.7239L8.07689 20.4458C7.57912 20.6516 7.02001 20.6514 6.52237 20.4453C6.02473 20.2391 5.62925 19.8439 5.42281 19.3464L4.69972 17.6006C4.4938 17.1026 4.09854 16.7067 3.60085 16.5L1.85566 15.7771C1.35783 15.5709 0.962256 15.1754 0.755882 14.6777C0.549508 14.1799 0.549228 13.6205 0.755104 13.1225L1.47746 11.3786C1.68325 10.8805 1.68283 10.3211 1.4763 9.82328L0.754972 8.07678C0.652703 7.8301 0.600043 7.56568 0.6 7.29863C0.599957 7.03159 0.652533 6.76715 0.754723 6.52043C0.856913 6.27372 1.00671 6.04955 1.19557 5.86075C1.38442 5.67195 1.60862 5.52222 1.85537 5.4201L3.5993 4.69772C4.09687 4.49197 4.49248 4.0972 4.6993 3.60006L5.42218 1.85481C5.62848 1.35674 6.02418 0.961034 6.52222 0.754729C7.02027 0.548424 7.57987 0.548424 8.07792 0.754729L9.82185 1.47712C10.3199 1.68291 10.8793 1.68249 11.3771 1.47595L13.123 0.755849C13.621 0.54966 14.1804 0.549702 14.6784 0.755967C15.1763 0.962231 15.572 1.35783 15.7783 1.85576L16.5014 3.60153L16.5012 3.59851Z" stroke="var(--stroke-0, #FFF8F2)" stroke-width="1.2" stroke-linecap="round" stroke-linejoin="round"/>
</g>
</svg>
