<svg preserveAspectRatio="none" width="100%" height="100%" overflow="visible" style="display: block;" viewBox="0 0 117.907 126.096" fill="none" xmlns="http://www.w3.org/2000/svg">
<path id="Vector" d="M33.4352 122.87C24 120.083 17.2778 114.556 11.2685 102.843C6.17592 92.9167 1.89815 71.8981 0 52.3889C12.3056 59.2593 31.5741 51.3982 27.5 28.8704C25.4167 17.3518 21.9444 8.76852 17.9074 3.60185C28.0463 0.972222 39.7222 0.203704 43.9908 0L43.4444 3.07407C43.4444 3.07407 48.0648 9.08333 60.1945 9.08333C72.3334 9.08333 76.9537 3.07407 76.9537 3.07407L76.5556 0.861104C82.6852 1.93518 95.7222 4.51851 106.111 8.58332C102.194 13.9815 99.2037 23.2407 98.0926 35.6852C96.5648 52.8519 107.463 60.5555 117.907 59.9074C113.963 78.7222 107.685 98.4352 101.732 107.556C94.5371 118.574 87.2778 123.37 77.6019 125.167C71.4074 126.315 64.2315 126.241 55.4445 125.787C55.4259 125.787 55.4167 125.787 55.3982 125.787C46.6296 125.324 39.4815 124.657 33.4352 122.87Z" fill="var(--fill-0, #FFF8F2)"/>
</svg>
