<svg preserveAspectRatio="none" width="100%" height="100%" overflow="visible" style="display: block;" viewBox="0 0 79.7714 79.7714" fill="none" xmlns="http://www.w3.org/2000/svg">
<g id="Group">
<path id="Vector" d="M59.8285 59.8285C70.8426 48.8144 70.8426 30.957 59.8285 19.9428C48.8144 8.92871 30.957 8.92872 19.9428 19.9428C8.92871 30.957 8.92871 48.8144 19.9428 59.8285C30.957 70.8426 48.8144 70.8426 59.8285 59.8285Z" fill="var(--fill-0, #FFF8F2)"/>
<g id="Group_2">
<path id="Vector_2" d="M39.8847 69.0053C23.8292 69.0053 10.7551 55.9405 10.7551 39.8757C10.7551 23.8109 23.8292 10.7553 39.8847 10.7553C55.9403 10.7553 69.0144 23.8201 69.0144 39.8849C69.0144 55.9497 55.9495 69.0053 39.8847 69.0053ZM39.8847 12.6071C24.8477 12.6071 12.6069 24.8386 12.6069 39.8849C12.6069 54.922 24.8384 67.1627 39.8847 67.1627C54.9218 67.1627 67.1625 54.9312 67.1625 39.8849C67.1625 24.8479 54.9218 12.6071 39.8847 12.6071Z" fill="var(--fill-0, #1B6025)"/>
</g>
</g>
</svg>
