<svg preserveAspectRatio="none" width="100%" height="100%" overflow="visible" style="display: block;" viewBox="0 0 52.7037 52.6947" fill="none" xmlns="http://www.w3.org/2000/svg">
<g id="Group">
<path id="Vector" d="M26.3519 0.00019873C11.8241 0.00019873 3.66468e-05 11.8243 3.66468e-05 26.3428C3.66468e-05 40.8706 11.8241 52.6947 26.3519 52.6947C40.8797 52.6947 52.7037 40.8706 52.7037 26.3428C52.7037 11.815 40.8889 0.00019873 26.3519 0.00019873ZM26.3519 45.7409C15.6574 45.7409 6.95374 37.0465 6.95374 26.3428C6.95374 15.6483 15.6574 6.9539 26.3519 6.9539C37.0463 6.9539 45.75 15.6483 45.75 26.3428C45.75 37.0465 37.0463 45.7409 26.3519 45.7409Z" fill="var(--fill-0, #6CB41B)"/>
<path id="Vector_2" d="M45.75 26.3421C45.75 37.0458 37.0463 45.7403 26.3519 45.7403C15.6574 45.7403 6.95374 37.0458 6.95374 26.3421C6.95374 15.6477 15.6574 6.95325 26.3519 6.95325C37.0463 6.95325 45.75 15.6477 45.75 26.3421Z" fill="var(--fill-0, #1B6025)"/>
</g>
</svg>
