<svg preserveAspectRatio="none" width="100%" height="100%" overflow="visible" style="display: block;" viewBox="0 0 135.787 146.111" fill="none" xmlns="http://www.w3.org/2000/svg">
<g id="Group 352">
<path id="Vector" d="M128.25 53.667C128.25 52.8615 128.213 52.0745 128.13 51.2967C128.13 51.2874 128.13 51.2874 128.13 51.2874C130.722 50.3059 133.269 49.0559 135.787 47.5559C134.981 43.5282 133.38 39.6485 131.102 36.2411C128.278 36.9541 125.574 37.8893 123.046 39.0096C122.037 37.7781 120.907 36.6393 119.676 35.63C120.806 33.1022 121.75 30.3985 122.444 27.593C119.037 25.3152 115.167 23.7041 111.13 22.917C109.639 25.417 108.398 27.9541 107.398 30.5559C106.611 30.4819 105.815 30.4356 105.019 30.4356C104.222 30.4356 103.426 30.4726 102.639 30.5559C101.639 27.9541 100.398 25.417 98.9074 22.917C94.8704 23.7041 91 25.3152 87.5926 27.593C88.2963 30.3985 89.2407 33.1115 90.3611 35.63C89.1296 36.6393 88 37.7781 86.9908 39.0096C84.4537 37.88 81.7593 36.9356 78.9352 36.2411C76.6574 39.6485 75.0463 43.5282 74.25 47.5559C76.7593 49.0467 79.2963 50.2967 81.9074 51.2874C81.8333 52.0652 81.7871 52.8708 81.7871 53.667C81.7871 54.4726 81.8241 55.2689 81.9074 56.0467C79.3055 57.0467 76.7685 58.2874 74.25 59.7782C75.0556 63.8152 76.6574 67.6856 78.9352 71.093C81.7593 70.3893 84.4537 69.4448 86.9908 68.3244C88 69.5559 89.1296 70.6948 90.3611 71.7041C89.2315 74.2318 88.287 76.9356 87.5926 79.7411C91 82.0189 94.8704 83.63 98.9074 84.4263C100.407 81.9171 101.639 79.3615 102.639 76.7689C103.426 76.843 104.222 76.8893 105.019 76.8893C105.815 76.8893 106.611 76.8522 107.398 76.7689C108.398 79.3615 109.63 81.9078 111.13 84.4263C115.167 83.6208 119.037 82.0189 122.444 79.7411C121.741 76.9356 120.796 74.2226 119.676 71.7041C120.907 70.6948 122.037 69.5559 123.046 68.3244C125.574 69.4541 128.278 70.38 131.102 71.093C133.38 67.6856 134.991 63.8152 135.787 59.7782C133.278 58.2782 130.722 57.0467 128.13 56.0467C128.204 55.2689 128.25 54.4726 128.25 53.667ZM93.9444 53.667C93.9444 47.5559 98.9074 42.593 105.019 42.593C111.13 42.593 116.093 47.5559 116.093 53.667C116.093 59.7782 111.13 64.7411 105.019 64.7411C98.9074 64.7411 93.9444 59.7782 93.9444 53.667Z" fill="var(--fill-0, #6CB41B)"/>
<g id="Group">
<path id="Vector_2" d="M90.4075 146.111C90.3519 146.111 90.2964 146.111 90.2408 146.093C87.7778 145.657 85.4353 144.806 83.2871 143.556C83.0742 143.435 82.9167 143.231 82.8519 142.991C82.7871 142.75 82.8242 142.5 82.9445 142.287L84.963 138.796C83.8797 138.093 82.889 137.269 82.0001 136.333L78.9167 138.917C78.7316 139.074 78.4908 139.157 78.2408 139.13C78.0001 139.111 77.7686 138.991 77.6112 138.796C76.0093 136.88 74.7686 134.722 73.926 132.389C73.7501 131.907 74.0001 131.38 74.4816 131.204L78.1853 129.852C77.7964 128.611 77.5649 127.333 77.4815 126.037H73.5556C73.3056 126.037 73.0742 125.935 72.8982 125.759C72.7223 125.583 72.6297 125.343 72.6297 125.102C72.6482 122.583 73.0834 120.13 73.9353 117.824C74.1112 117.343 74.639 117.102 75.1204 117.269L78.7223 118.583C79.2223 117.38 79.8704 116.231 80.6482 115.167L77.7316 112.713C77.3427 112.389 77.2871 111.806 77.6112 111.417C79.1575 109.546 81.0649 107.944 83.2871 106.667C83.7316 106.407 84.2964 106.565 84.5556 107.009L86.4353 110.259C87.6204 109.657 88.8612 109.194 90.139 108.898L89.4908 105.204C89.4445 104.954 89.5093 104.704 89.6575 104.5C89.8056 104.296 90.0279 104.167 90.2779 104.13C90.463 104.102 90.639 104.074 90.8241 104.046C91.2408 103.981 91.6667 103.907 92.1204 103.889L93.8982 103.806L95.7593 103.889C96.213 103.917 96.639 103.981 97.0556 104.046C97.2408 104.074 97.4167 104.102 97.6019 104.13C97.8519 104.167 98.0742 104.296 98.2223 104.5C98.3705 104.704 98.426 104.963 98.389 105.204L97.7408 108.898C99.0278 109.194 100.269 109.648 101.445 110.259L103.324 107.009C103.583 106.565 104.148 106.417 104.593 106.667C106.815 107.954 108.722 109.546 110.269 111.417C110.593 111.806 110.537 112.389 110.148 112.713L107.232 115.167C108.019 116.231 108.657 117.37 109.157 118.583L112.759 117.269C113.241 117.093 113.769 117.343 113.945 117.824C114.787 120.13 115.222 122.583 115.25 125.102C115.25 125.352 115.157 125.583 114.982 125.759C114.806 125.935 114.574 126.037 114.324 126.037H110.398C110.315 127.333 110.083 128.611 109.695 129.852L113.398 131.204C113.88 131.38 114.13 131.907 113.954 132.389C113.102 134.722 111.861 136.88 110.269 138.796C110.111 138.982 109.889 139.102 109.639 139.13C109.389 139.157 109.148 139.074 108.963 138.917L105.88 136.333C104.991 137.269 104 138.093 102.917 138.796L104.935 142.287C105.056 142.5 105.093 142.75 105.028 142.991C104.963 143.231 104.806 143.426 104.593 143.556C102.445 144.796 100.102 145.648 97.639 146.093C97.3982 146.139 97.1482 146.083 96.9445 145.935C96.7408 145.796 96.6019 145.583 96.5649 145.333L95.8612 141.333C94.5834 141.481 93.2964 141.481 92.0186 141.333L91.3149 145.333C91.2686 145.574 91.139 145.787 90.9353 145.935C90.7871 146.056 90.6019 146.111 90.4075 146.111ZM85.0371 142.407C86.5001 143.157 88.0464 143.722 89.6667 144.093L90.3612 140.139C90.4538 139.639 90.9353 139.306 91.4353 139.389C93.0927 139.676 94.8149 139.676 96.463 139.389C96.9723 139.306 97.4445 139.639 97.5371 140.139L98.2316 144.093C99.8427 143.722 101.398 143.167 102.861 142.407L100.861 138.954C100.741 138.741 100.704 138.491 100.769 138.25C100.833 138.009 100.991 137.815 101.204 137.685C102.685 136.843 103.991 135.759 105.093 134.463C105.426 134.074 106 134.028 106.389 134.352L109.426 136.898C110.426 135.583 111.241 134.157 111.88 132.63L108.213 131.287C107.982 131.204 107.796 131.028 107.685 130.806C107.583 130.583 107.574 130.324 107.658 130.093C108.259 128.491 108.565 126.815 108.583 125.111C108.583 124.602 109 124.194 109.509 124.194H113.38C113.287 122.528 113 120.907 112.519 119.343L108.945 120.648C108.713 120.731 108.454 120.722 108.232 120.611C108.009 120.509 107.833 120.315 107.75 120.083C107.185 118.472 106.343 116.981 105.241 115.639C104.917 115.25 104.972 114.667 105.361 114.343L108.241 111.926C107.148 110.741 105.88 109.676 104.463 108.769L102.602 111.981C102.482 112.194 102.278 112.352 102.037 112.417C101.806 112.481 101.546 112.444 101.333 112.324C99.8334 111.444 98.213 110.852 96.5186 110.556C96.2778 110.519 96.0649 110.38 95.9167 110.176C95.7778 109.972 95.7223 109.722 95.7593 109.481L96.3982 105.833C96.1482 105.796 95.8982 105.769 95.6667 105.75L93.8982 105.667L92.213 105.75C91.9816 105.759 91.7316 105.796 91.4816 105.833L92.1204 109.481C92.1667 109.722 92.1112 109.972 91.963 110.176C91.8242 110.38 91.6019 110.519 91.3612 110.556C89.6668 110.852 88.0464 111.444 86.5464 112.324C86.3334 112.444 86.0834 112.481 85.8427 112.417C85.6019 112.352 85.3982 112.194 85.2779 111.981L83.4167 108.769C81.9908 109.676 80.7316 110.731 79.639 111.926L82.5186 114.343C82.9075 114.667 82.963 115.25 82.639 115.639C81.5371 116.981 80.6945 118.472 80.1297 120.083C80.0464 120.315 79.8797 120.509 79.6482 120.611C79.426 120.722 79.1667 120.731 78.9353 120.648L75.3612 119.343C74.8705 120.907 74.5834 122.528 74.5001 124.194H78.3705C78.8797 124.194 79.2964 124.602 79.2964 125.111C79.3056 126.815 79.6205 128.491 80.2223 130.093C80.3056 130.324 80.2964 130.583 80.1945 130.806C80.0927 131.028 79.9075 131.204 79.6667 131.287L76.0001 132.63C76.639 134.148 77.4538 135.583 78.4538 136.898L81.4908 134.352C81.8797 134.028 82.463 134.074 82.7871 134.463C83.889 135.759 85.1945 136.843 86.676 137.685C86.889 137.806 87.0464 138.009 87.1112 138.25C87.176 138.491 87.139 138.741 87.0186 138.954L85.0371 142.407Z" fill="var(--fill-0, #1B6025)"/>
</g>
<g id="Group_2">
<path id="Vector_3" d="M93.9444 136.14C87.7778 136.14 82.7685 131.121 82.7685 124.964C82.7685 118.807 87.787 113.788 93.9444 113.788C100.111 113.788 105.12 118.797 105.12 124.964C105.12 131.121 100.111 136.14 93.9444 136.14ZM93.9444 115.64C88.8055 115.64 84.6204 119.825 84.6204 124.964C84.6204 130.103 88.8055 134.288 93.9444 134.288C99.0833 134.288 103.269 130.103 103.269 124.964C103.269 119.816 99.0926 115.64 93.9444 115.64Z" fill="var(--fill-0, #1B6025)"/>
</g>
<path id="Vector_4" d="M52.8704 87.8522H58.2778C58.25 84.4726 57.6574 81.0929 56.5 77.8985L51.4445 79.7411C50.5 77.1207 49.0926 74.7133 47.3241 72.6022L51.4537 69.1392C49.2963 66.5374 46.6296 64.3522 43.7037 62.6577L41.0093 67.3151C38.6574 65.954 36.0371 64.9911 33.2593 64.5003L34.1944 59.204C33.3426 59.0837 32.5185 58.917 31.6759 58.8614L29.1389 58.7411L26.6019 58.8614C25.75 58.9077 24.9167 59.0837 24.0833 59.204L25.0185 64.5003C22.2408 64.9818 19.6204 65.954 17.2685 67.3151L14.5741 62.6577C11.6389 64.3522 8.99074 66.5374 6.82407 69.1392L10.9537 72.6022C9.1852 74.7133 7.77778 77.1207 6.83334 79.7411L1.77779 77.8985C0.611124 81.0837 0.0185185 84.4726 0 87.8522H5.4074C5.4074 90.704 5.91667 93.4448 6.83334 95.9726L1.77779 97.8152C2.92594 100.991 4.64814 103.973 6.82407 106.565L10.9537 103.102C12.7222 105.213 14.8611 107.01 17.2593 108.398L14.5648 113.065C17.5 114.75 20.7315 115.926 24.0648 116.519L25 111.213C26.3333 111.454 27.713 111.574 29.1204 111.574C30.5278 111.574 31.9074 111.454 33.2407 111.213L34.1759 116.519C37.5093 115.926 40.75 114.75 43.6759 113.065L40.9722 108.398C43.3704 107.019 45.5185 105.213 47.2871 103.102L51.4167 106.565C53.5833 103.973 55.3056 100.991 56.463 97.8152L51.4074 95.9726C52.3611 93.4355 52.8704 90.704 52.8704 87.8522ZM29.1482 100.26C22.1667 100.26 16.5093 94.6022 16.5093 87.6207C16.5093 80.6485 22.1667 74.9911 29.1482 74.9911C36.1296 74.9911 41.7778 80.6485 41.7778 87.6207C41.7778 94.6022 36.1296 100.26 29.1482 100.26Z" fill="var(--fill-0, #FF730F)"/>
<path id="Vector_5" d="M105.528 0C99.574 0 99.5555 9.25926 105.528 9.25926C111.491 9.25926 111.5 0 105.528 0Z" fill="var(--fill-0, #1B6025)"/>
<path id="Vector_6" d="M127.157 99.6212C121.204 99.6212 121.185 108.881 127.157 108.881C133.111 108.881 133.12 99.6212 127.157 99.6212Z" fill="var(--fill-0, #1B6025)"/>
<path id="Vector_7" d="M47.6203 124.324C41.6666 124.324 41.6481 133.584 47.6203 133.584C53.574 133.584 53.5833 124.324 47.6203 124.324Z" fill="var(--fill-0, #1B6025)"/>
</g>
</svg>
