<svg preserveAspectRatio="none" width="100%" height="100%" overflow="visible" style="display: block;" viewBox="0 0 39.0066 58.6981" fill="none" xmlns="http://www.w3.org/2000/svg">
<g id="Group">
<path id="Vector" d="M19.6778 58.6981C14.4093 58.6981 9.43708 56.6611 5.89079 53.013C2.76116 49.8 -0.775892 43.7815 0.150034 33.4204C1.22411 21.4574 4.13152 11.6704 8.34449 5.85553C11.4556 1.5685 15.1408 -0.431509 19.0111 0.0777501C24.9186 0.855528 30.5852 7.54997 34.9741 18.9389C35.0852 19.2259 35.0482 19.55 34.863 19.8092C34.6871 20.0592 34.3815 20.1981 34.0852 20.1981C32.8815 20.1703 31.6593 20.1148 30.4278 20.0315C28.5112 19.9018 26.5945 20.2722 24.8723 21.1055C21.613 22.6704 19.3167 25.7352 18.7519 29.2907C18.6593 29.8648 18.613 30.4481 18.613 31.0778C18.613 35.0129 20.7426 38.6796 24.1778 40.6426C25.6501 41.4944 27.2612 41.9759 28.9741 42.087L30.4186 42.1703C33.0297 42.3092 35.6038 42.3555 38.0667 42.3093C38.3538 42.3278 38.6223 42.4296 38.7982 42.6518C38.9741 42.8741 39.0482 43.1611 38.9834 43.4389C37.0112 52.1426 29.9278 58.1055 20.9371 58.6518C20.5204 58.6889 20.0945 58.6981 19.6778 58.6981ZM17.8537 1.86479C15.0204 1.86479 12.2611 3.60553 9.83521 6.94812C5.81669 12.4852 3.02968 21.9481 1.99265 33.587C1.30746 41.2352 3.12226 47.5037 7.21485 51.7166C10.6686 55.2722 15.6223 57.1241 20.826 56.8C28.5667 56.337 34.7519 51.4203 36.8815 44.1703C34.7519 44.1796 32.5389 44.1333 30.3167 44.013H30.3075L28.8537 43.9296C26.8537 43.8 24.9649 43.2352 23.2519 42.2352C19.2426 39.9481 16.7612 35.6611 16.7612 31.0685C16.7612 30.337 16.8167 29.6611 16.9278 28.9852C17.5945 24.837 20.2704 21.2629 24.076 19.4296C26.076 18.4666 28.3075 18.0407 30.5482 18.1796C31.2797 18.2259 32.0019 18.2629 32.7334 18.2907C28.6963 8.35553 23.7611 2.55923 18.7797 1.90183C18.4556 1.88331 18.1593 1.86479 17.8537 1.86479Z" fill="var(--fill-0, #1B6025)"/>
</g>
</svg>
