<svg preserveAspectRatio="none" width="100%" height="100%" overflow="visible" style="display: block;" viewBox="0 0 8.531 9.17428" fill="none" xmlns="http://www.w3.org/2000/svg">
<path id="Vector" d="M8.531 4.5706C8.531 5.25508 8.43244 5.88436 8.2344 6.45844C8.03637 7.02148 7.7498 7.50724 7.37563 7.91572C7.00236 8.31316 6.55062 8.62228 6.02294 8.84308C5.50594 9.06388 4.92287 9.17428 4.27381 9.17428C3.6358 9.17428 3.05272 9.06388 2.52468 8.84308C2.00768 8.62228 1.56214 8.31316 1.18805 7.91572C0.814062 7.50724 0.522572 7.02148 0.313491 6.45844C0.1045 5.88436 0 5.25508 0 4.5706C0 3.88612 0.1045 3.26236 0.313491 2.69932C0.533524 2.13628 0.830577 1.65604 1.20457 1.2586C1.5896 0.861157 2.04063 0.552037 2.55772 0.331201C3.08576 0.110401 3.65779 0 4.27381 0C4.90087 0 5.4729 0.110401 5.9899 0.331201C6.51776 0.552037 6.96859 0.861157 7.34277 1.2586C7.71694 1.65604 8.00899 2.13628 8.21798 2.69932C8.42697 3.26236 8.531 3.88612 8.531 4.5706ZM6.02294 4.5706C6.02294 3.80884 5.86889 3.21268 5.56088 2.78212C5.26391 2.34052 4.83489 2.11972 4.27381 2.11972C3.71273 2.11972 3.27823 2.34052 2.97022 2.78212C2.66221 3.21268 2.50816 3.80884 2.50816 4.5706C2.50816 5.33236 2.66221 5.93956 2.97022 6.3922C3.27823 6.8338 3.71273 7.0546 4.27381 7.0546C4.83489 7.0546 5.26391 6.8338 5.56088 6.3922C5.86889 5.93956 6.02294 5.33236 6.02294 4.5706Z" fill="var(--fill-0, white)"/>
</svg>
