<svg preserveAspectRatio="none" width="100%" height="100%" overflow="visible" style="display: block;" viewBox="0 0 60.4732 12.5822" fill="none" xmlns="http://www.w3.org/2000/svg">
<g id="winston">
<path id="Path" d="M9.04481 9.53094L10.642 3.49902H12.8852L10.1934 12.3176H8.05777L6.44262 6.69136L4.7198 12.3176H2.60218L0 3.49902H2.24325L3.80456 9.53094L5.47354 3.49902H7.39377L9.04481 9.53094Z" fill="var(--fill-0, white)"/>
<path id="Shape" d="M14.051 6.91414e-08H16.1847V2.13228H14.051V6.91414e-08ZM14.051 3.50682H16.1847V12.3179H14.051V3.50682Z" fill="var(--fill-0, white)"/>
<path id="Path_2" d="M17.9819 12.3179V3.50676H20.1515V4.54644C20.3428 4.27628 20.5758 4.04716 20.8508 3.8592C21.4246 3.44802 22.1119 3.24242 22.9128 3.24242C23.4029 3.24242 23.8602 3.34228 24.2845 3.542C24.7089 3.74172 25.0346 3.9943 25.2618 4.29978C25.441 4.53474 25.5725 4.81669 25.6562 5.14563C25.7399 5.47458 25.7877 5.76533 25.7997 6.01789C25.8116 6.27054 25.8176 6.64348 25.8176 7.1369V12.3179H23.6838V7.82418C23.6838 7.0958 23.6599 6.64938 23.6121 6.4849C23.4089 5.69774 22.9188 5.30421 22.1418 5.30421C21.7951 5.30421 21.4723 5.39529 21.1735 5.57736C20.8747 5.75943 20.6476 5.99738 20.4922 6.29104C20.265 6.72576 20.1515 7.46003 20.1515 8.49386V12.3179H17.9819Z" fill="var(--fill-0, white)"/>
<path id="Path_3" d="M27.0548 11.0138L28.6506 9.70975C29.2722 10.4616 30.1329 10.8376 31.2327 10.8376C31.7944 10.8376 32.2307 10.7289 32.5415 10.5116C32.8523 10.2942 33.0077 10.0563 33.0077 9.79784C33.0077 9.4102 32.6969 9.15764 32.0753 9.04016C32.0036 9.02837 31.666 8.96378 31.0623 8.8463C30.4586 8.72882 30.097 8.65243 29.9775 8.61723C29.0212 8.39398 28.3607 8.05034 27.9961 7.58631C27.6315 7.1222 27.4493 6.63178 27.4493 6.11487C27.4493 5.32771 27.796 4.65222 28.4893 4.08829C29.1826 3.52437 30.115 3.24242 31.2864 3.24242C32.4459 3.24242 33.4321 3.52437 34.245 4.08829C34.5916 4.31148 34.8965 4.57583 35.1594 4.88128L33.6354 6.27344C33.1692 5.38059 32.3563 4.93417 31.1968 4.93417C30.7186 4.93417 30.3511 5.02226 30.0941 5.19852C29.837 5.3747 29.7085 5.58616 29.7085 5.83291C29.7085 6.12657 29.849 6.34103 30.1299 6.47611C30.4108 6.61119 30.874 6.73166 31.5195 6.83735C32.5476 7.02531 33.2319 7.16339 33.5726 7.25147C33.9133 7.33956 34.2151 7.48934 34.4781 7.7008C35.0877 8.15902 35.3926 8.78171 35.3926 9.56878C35.3926 10.3441 35.0429 11.0402 34.3436 11.657C33.6443 12.2738 32.6492 12.5822 31.3582 12.5822C29.5889 12.5822 28.1545 12.0594 27.0548 11.0138Z" fill="var(--fill-0, white)"/>
<path id="Path_4" d="M41.1841 5.02226H39.2656V9.00487C39.2656 9.34552 39.2715 9.58638 39.2835 9.72735C39.2955 9.86833 39.3313 10.0181 39.3911 10.1767C39.4509 10.3353 39.5525 10.441 39.6959 10.4939C39.8393 10.5468 40.0366 10.5732 40.2876 10.5732C40.6462 10.5732 40.945 10.538 41.1841 10.4675V12.2473C40.6104 12.3413 40.0904 12.3883 39.6242 12.3883C38.3212 12.3883 37.5323 12.03 37.2574 11.3134C37.1617 11.0784 37.1138 10.4792 37.1138 9.51589V5.02226H35.8049V3.5067H37.1138V0.387579H39.2656V3.5067H41.1841V5.02226Z" fill="var(--fill-0, white)"/>
<path id="Shape_2" d="M51.1673 7.87707C51.1673 9.25163 50.7458 10.3794 49.9031 11.2605C49.0604 12.1416 47.9636 12.5822 46.6129 12.5822C45.2262 12.5822 44.1025 12.1387 43.2419 11.2517C42.3812 10.3647 41.9509 9.23983 41.9509 7.87707C41.9509 6.526 42.3782 5.41579 43.2329 4.54644C44.0876 3.6771 45.1844 3.24242 46.5232 3.24242C47.8261 3.24242 48.923 3.66242 49.8135 4.50244C50.7041 5.3424 51.1553 6.46731 51.1673 7.87707ZM48.908 7.84178C48.884 7.0782 48.6599 6.43791 48.2356 5.921C47.8112 5.40409 47.2345 5.14563 46.5053 5.14563C45.8239 5.14563 45.2681 5.3923 44.8377 5.88571C44.4074 6.37913 44.1922 7.02531 44.1922 7.82418C44.1922 8.69353 44.4253 9.38081 44.8915 9.88602C45.3577 10.3911 45.9314 10.6438 46.6129 10.6438C47.354 10.6438 47.9278 10.3706 48.3342 9.82433C48.7406 9.27803 48.9319 8.61723 48.908 7.84178Z" fill="var(--fill-0, white)"/>
<path id="Path_5" d="M52.6375 12.3179V3.50676H54.8071V4.54644C54.9984 4.27628 55.2314 4.04716 55.5064 3.8592C56.0802 3.44802 56.7675 3.24242 57.5684 3.24242C58.0585 3.24242 58.5157 3.34228 58.9401 3.542C59.3644 3.74172 59.6902 3.9943 59.9173 4.29978C60.0967 4.53474 60.2281 4.81669 60.3118 5.14563C60.3955 5.47458 60.4433 5.76533 60.4553 6.01789C60.4672 6.27054 60.4732 6.64348 60.4732 7.1369V12.3179H58.3394V7.82418C58.3394 7.0958 58.3156 6.64938 58.2677 6.4849C58.0645 5.69774 57.5744 5.30421 56.7974 5.30421C56.4508 5.30421 56.128 5.39529 55.8292 5.57736C55.5303 5.75943 55.3032 5.99738 55.1478 6.29104C54.9206 6.72576 54.8071 7.46003 54.8071 8.49386V12.3179H52.6375Z" fill="var(--fill-0, white)"/>
</g>
</svg>
