<svg preserveAspectRatio="none" width="100%" height="100%" overflow="visible" style="display: block;" viewBox="0 0 46.0144 17.9241" fill="none" xmlns="http://www.w3.org/2000/svg">
<g id="Group">
<path id="Vector" d="M27.8622 17.9241C26.1677 17.9241 24.2881 17.8778 22.214 17.7667C6.19549 16.9241 2.36216 13.7574 2.20475 13.6278C2.03808 13.4889 1.92697 13.2852 1.89919 13.0722L0.0103095 1.07221C-0.0359868 0.757398 0.075126 0.44258 0.315867 0.229617C0.556608 0.0166542 0.880684 -0.048181 1.18624 0.0351523C7.12143 1.78515 14.177 2.45183 22.9362 2.9148C31.751 3.3685 38.8344 3.44258 44.9177 2.31295C45.2325 2.2574 45.5474 2.35924 45.7696 2.59072C45.9825 2.8222 46.0659 3.15553 45.9825 3.46109L42.8622 15.1926C42.8066 15.4055 42.677 15.5907 42.4918 15.7111C42.3437 15.8315 39.1862 17.9241 27.8622 17.9241ZM3.65846 12.387C4.6955 13.0074 9.26957 15.2296 22.2603 15.9148C35.2974 16.5907 40.0751 14.85 41.177 14.3407L43.8251 4.38702C37.8992 5.29442 31.1214 5.20184 22.8899 4.77592C14.6214 4.34073 7.86216 3.72034 2.06587 2.21108L3.65846 12.387Z" fill="var(--fill-0, #1B6025)"/>
</g>
</svg>
