<svg preserveAspectRatio="none" width="100%" height="100%" overflow="visible" style="display: block;" viewBox="0 0 8.6583 11.2358" fill="none" xmlns="http://www.w3.org/2000/svg">
<path id="Vector" d="M0 7.5103L2.09197 7.30294C2.21789 8.01892 2.47209 8.54479 2.85466 8.88052C3.24202 9.21633 3.76264 9.38424 4.41633 9.38424C5.10876 9.38424 5.62938 9.23609 5.978 8.93978C6.3315 8.63858 6.5083 8.28799 6.5083 7.88803C6.5083 7.63132 6.43325 7.41404 6.28307 7.23628C6.13787 7.05358 5.88113 6.89558 5.51314 6.76226C5.2613 6.67338 4.68754 6.51536 3.79169 6.28823C2.63911 5.9969 1.83044 5.63891 1.36559 5.21427C0.711808 4.6168 0.385009 3.88848 0.385009 3.02931C0.385009 2.47628 0.537545 1.96028 0.842618 1.48133C1.15249 0.997421 1.59562 0.629557 2.17182 0.377732C2.7529 0.125908 3.45267 0 4.27103 0C5.60756 0 6.61241 0.298726 7.28547 0.896197C7.96342 1.49367 8.31937 2.29111 8.35323 3.28854L6.20323 3.38483C6.11116 2.82686 5.91264 2.42691 5.60756 2.18495C5.30738 1.93806 4.85456 1.81462 4.24931 1.81462C3.62458 1.81462 3.13547 1.94548 2.78196 2.20717C2.55438 2.37506 2.44059 2.59973 2.44059 2.88118C2.44059 3.13794 2.54714 3.35767 2.76024 3.54037C3.03136 3.77244 3.68994 4.0144 4.73598 4.26622C5.78192 4.51805 6.55428 4.77975 7.05308 5.05133C7.55668 5.31796 7.94893 5.68582 8.22975 6.15491C8.51545 6.61906 8.6583 7.1943 8.6583 7.88064C8.6583 8.50279 8.48883 9.08544 8.1499 9.62858C7.81088 10.1718 7.33146 10.5767 6.71162 10.8433C6.09179 11.105 5.31942 11.2358 4.39451 11.2358C3.04829 11.2358 2.01448 10.9199 1.2929 10.2878C0.571402 9.65083 0.140406 8.72498 0 7.5103Z" fill="var(--fill-0, white)"/>
</svg>
