<svg preserveAspectRatio="none" width="100%" height="100%" overflow="visible" style="display: block;" viewBox="0 0 31 31" fill="none" xmlns="http://www.w3.org/2000/svg">
<g id="anonymous 1" clip-path="url(#clip0_4_585)">
<path id="Vector" d="M20.9896 14.2084C20.4549 14.2084 20.0209 13.7744 20.0209 13.2397V7.65711C20.0209 7.09136 19.7458 6.59278 19.2666 6.29053C18.7886 5.98828 18.219 5.95599 17.7075 6.2014L17.351 6.37319C16.7091 6.66124 16.0012 6.60311 15.4368 6.23628C14.871 5.86815 14.5326 5.24557 14.5326 4.57003L12.5938 4.52094C11.7038 4.52094 10.9792 5.24557 10.9792 6.13553V13.2397C10.9792 13.7744 10.5452 14.2084 10.0105 14.2084C9.47572 14.2084 9.04172 13.7744 9.04172 13.2397V6.13553C9.04172 4.17607 10.6343 2.58344 12.5938 2.58344H14.4822C15.5776 2.58344 16.4688 3.47469 16.4688 4.57003L16.8692 4.45507C17.9788 3.9229 19.2601 3.99653 20.2986 4.6514C21.3371 5.30628 21.9584 6.42874 21.9584 7.65711V13.2397C21.9584 13.7744 21.5244 14.2084 20.9896 14.2084Z" fill="var(--fill-0, white)"/>
<path id="Vector_2" d="M10.8759 29.7084C10.6938 29.7084 10.5116 29.6942 10.3295 29.6645L7.96189 29.2873C6.34214 29.029 5.16672 27.6857 5.16672 26.093V23.4787C5.16672 23.0576 5.43926 22.6843 5.83968 22.5564C8.32226 21.7647 11.0516 21.7647 13.5341 22.5564C13.9358 22.6843 14.2084 23.0576 14.2084 23.4787V26.4715C14.2084 27.4015 13.7963 28.2863 13.0756 28.9011C12.4595 29.4255 11.6806 29.7084 10.8759 29.7084ZM10.6343 27.7515C11.0671 27.8187 11.4959 27.7012 11.8175 27.4273C12.1107 27.178 12.2709 26.8383 12.2709 26.4715V24.2111C10.5827 23.7952 8.79243 23.7952 7.10422 24.2111V26.093C7.10422 26.7272 7.59376 27.2659 8.26672 27.3731L10.6343 27.7515Z" fill="var(--fill-0, white)"/>
<path id="Vector_3" d="M6.13535 25.1875H3.55201C3.01726 25.1875 2.58326 24.7535 2.58326 24.2187C2.58326 23.684 3.01726 23.25 3.55201 23.25H6.13535C6.6701 23.25 7.1041 23.684 7.1041 24.2187C7.1041 24.7535 6.6701 25.1875 6.13535 25.1875Z" fill="var(--fill-0, white)"/>
<path id="Vector_4" d="M20.1242 29.7084C19.3195 29.7084 18.5393 29.4255 17.9245 28.9011C17.2038 28.2863 16.7917 27.4015 16.7917 26.4715V23.4787C16.7917 23.0576 17.0643 22.6843 17.4647 22.5564C19.9473 21.7647 22.6766 21.7647 25.1591 22.5564C25.5608 22.6843 25.8334 23.0576 25.8334 23.4787V26.093C25.8334 27.6857 24.658 29.0277 23.0382 29.2873L20.6706 29.6645C20.4885 29.6942 20.3063 29.7084 20.1242 29.7084ZM18.7292 24.2111V26.4715C18.7292 26.8383 18.8894 27.178 19.1826 27.4273C19.5029 27.7012 19.9331 27.8187 20.3658 27.7515L22.7334 27.3744C23.4063 27.2672 23.8959 26.7285 23.8959 26.0943V24.2124C22.2077 23.7952 20.4174 23.7952 18.7292 24.2111Z" fill="var(--fill-0, white)"/>
<path id="Vector_5" d="M27.4479 24.8647H25.1875C24.6527 24.8647 24.2187 24.4307 24.2187 23.8959C24.2187 23.3612 24.6527 22.9272 25.1875 22.9272H27.4479C27.9827 22.9272 28.4167 23.3612 28.4167 23.8959C28.4167 24.4307 27.9827 24.8647 27.4479 24.8647Z" fill="var(--fill-0, white)"/>
<path id="Vector_6" d="M17.7603 25.1875H13.2395C12.7048 25.1875 12.2708 24.7535 12.2708 24.2187C12.2708 23.684 12.7048 23.25 13.2395 23.25H17.7603C18.2951 23.25 18.7291 23.684 18.7291 24.2187C18.7291 24.7535 18.2951 25.1875 17.7603 25.1875Z" fill="var(--fill-0, white)"/>
<path id="Vector_7" d="M15.5 19.3748C7.79778 19.3748 -7.83349e-06 17.6001 -7.83349e-06 14.2081C-7.83349e-06 10.886 6.92203 9.71831 9.89803 9.37085C10.4186 9.31143 10.9094 9.6886 10.9727 10.2208C11.0347 10.7516 10.6537 11.2334 10.1228 11.2954C4.33741 11.971 1.93749 13.5261 1.93749 14.2081C1.93749 15.3048 6.72441 17.4373 15.5 17.4373C24.2756 17.4373 29.0625 15.3048 29.0625 14.2081C29.0625 13.5261 26.6626 11.971 20.8772 11.2954C20.3463 11.2334 19.9653 10.7516 20.0273 10.2208C20.0893 9.6886 20.5788 9.31402 21.1019 9.37085C24.0779 9.71831 31 10.886 31 14.2081C31 17.6001 23.2022 19.3748 15.5 19.3748Z" fill="var(--fill-0, white)"/>
</g>
<defs>
<clipPath id="clip0_4_585">
<rect width="31" height="31" fill="white"/>
</clipPath>
</defs>
</svg>
