<svg preserveAspectRatio="none" width="100%" height="100%" overflow="visible" style="display: block;" viewBox="0 0 55.5943 47.544" fill="none" xmlns="http://www.w3.org/2000/svg">
<g id="Group">
<path id="Vector" d="M27.8257 47.544C27.335 47.544 26.8535 47.5348 26.3627 47.507C21.872 47.2755 17.6405 46.007 13.7979 43.757C4.77015 38.47 -0.507648 28.7107 0.0386484 18.294C0.3905 11.5163 3.2053 5.1181 7.9553 0.275505C8.31642 -0.0856062 8.89975 -0.0948604 9.26086 0.266251L21.4275 12.2014C21.6035 12.3774 21.7053 12.6088 21.7053 12.8496C21.7053 13.0996 21.6127 13.3311 21.4368 13.507C19.9183 15.0533 19.0109 17.1088 18.8998 19.2848C18.6405 24.1922 22.4275 28.3866 27.335 28.6459C32.2516 28.9051 36.4368 25.1181 36.6961 20.2107C36.8349 17.5533 35.8257 15.6088 34.9646 14.4422C34.8164 14.2477 34.7516 13.9977 34.7887 13.757C34.8257 13.5162 34.9553 13.294 35.1498 13.1459L48.8442 2.99773C49.0386 2.84958 49.2887 2.78476 49.5294 2.8218C49.7701 2.85884 49.9924 2.98847 50.1405 3.18291C53.9739 8.35884 55.8905 14.7477 55.5572 21.1829C55.0757 30.4607 50.0016 38.8496 41.9924 43.6274C37.7146 46.2014 32.835 47.544 27.8257 47.544ZM8.64975 2.23846C4.59419 6.67365 2.20532 12.3681 1.89977 18.3866C1.39051 28.1088 6.31643 37.22 14.7424 42.1644C18.3257 44.2663 22.2701 45.4422 26.4646 45.6644C31.6127 45.9329 36.6683 44.6829 41.0757 42.044C48.5479 37.5811 53.2794 29.757 53.7331 21.0996C54.0294 15.3959 52.4276 9.73847 49.2146 5.05329L36.9831 14.1181C37.872 15.5533 38.6961 17.6366 38.5572 20.3125C38.2424 26.2385 33.1405 30.7848 27.2516 30.4977C21.3257 30.1829 16.7516 25.1088 17.0664 19.1922C17.1868 16.8774 18.0479 14.6829 19.5109 12.9051L8.64975 2.23846Z" fill="var(--fill-0, #1B6025)"/>
</g>
</svg>
