<svg preserveAspectRatio="none" width="100%" height="100%" overflow="visible" style="display: block;" viewBox="0 0 81.5061 20.2746" fill="none" xmlns="http://www.w3.org/2000/svg">
<g id="logo" opacity="0.8">
<path id="Vector" d="M20.9701 10.3706C20.398 10.044 19.4498 10.1062 18.9921 10.5882C18.7469 14.7862 15.0849 18.129 10.6057 18.129C6.12635 18.129 2.20286 14.5529 2.20286 10.1374C2.20286 5.73722 5.96285 2.14562 10.6057 2.14562C14.2839 2.14562 17.4227 4.41564 18.5506 7.55631C19.0411 7.40085 19.5642 7.32314 20.12 7.32314C20.3816 7.32314 20.6268 7.33869 20.8721 7.36974C19.597 3.12515 15.4773 0 10.6057 0C-3.53522 0.528625 -3.53522 19.746 10.6057 20.2746C16.4909 20.2746 21.0028 15.9679 21.2481 10.5726C21.1663 10.4949 21.0682 10.4327 20.9701 10.3706Z" fill="var(--fill-0, white)"/>
<path id="Vector_2" d="M13.5645 7.36975L15.1175 5.8927C13.9078 4.80435 12.5182 4.26016 10.7363 4.27571C8.28412 4.26016 6.06083 5.64391 5.14535 7.7896C3.51057 11.6144 6.33875 15.8124 10.7527 15.7968C12.4855 15.8124 13.9731 15.2371 15.1829 14.1642L13.6299 12.6872C12.8779 13.4491 11.9134 13.8067 10.7363 13.7911C9.19963 13.8222 7.7937 12.9671 7.28693 11.5833C6.78011 10.2151 6.97632 8.38043 8.07161 7.32315C9.44481 5.92381 12.2403 5.95491 13.5645 7.36975Z" fill="var(--fill-0, white)"/>
<path id="Vector_3" d="M33.7704 9.74908C32.7731 7.8056 29.7488 7.0748 28.065 8.62963V7.94543H25.8743V18.8602H28.0486V14.9732C28.6535 15.533 29.4708 15.7972 30.3537 15.7972C33.6559 15.7972 35.1435 12.33 33.7704 9.74908ZM31.7433 12.8586C31.3835 13.4961 30.7787 13.8848 29.9777 13.8693C27.7707 13.916 27.2149 10.9774 28.9314 9.96679C29.5363 9.60907 30.4681 9.64022 31.0566 9.99785C32.0211 10.5575 32.25 11.9413 31.7433 12.8586Z" fill="var(--fill-0, white)"/>
<path id="Vector_4" d="M40.7674 7.94531L38.8383 12.8274L37.0074 7.94531H34.6042L37.6776 14.9731L35.7322 18.8756H38.0863C39.0345 16.8077 42.1733 10.0754 43.1704 7.94531C43.1214 7.94531 40.7674 7.94531 40.7674 7.94531Z" fill="var(--fill-0, white)"/>
<path id="Vector_5" d="M44.0532 15.6413V4.13574H46.2438V15.6413H44.0532Z" fill="var(--fill-0, white)"/>
<path id="Vector_6" d="M55.3659 9.63971C53.9274 7.04321 49.6604 7.24535 48.2056 9.73308C47.8296 10.3394 47.6498 11.0079 47.6498 11.7854C47.6171 14.1332 49.6441 15.8435 52.0637 15.8123C53.3386 15.8123 54.5157 15.4081 55.3496 14.4752L54.0415 13.2313C53.306 14.102 51.8349 14.2265 50.8376 13.76C50.3634 13.4957 49.9874 13.0448 49.8728 12.5317L55.7744 12.5162C56.0036 11.5521 55.84 10.4483 55.3659 9.63971ZM50.7724 9.79521C51.7041 9.29766 53.1262 9.45315 53.6004 10.4638C53.6819 10.6038 53.7313 10.7747 53.7802 10.9613L49.8728 10.9769C49.9874 10.4793 50.3307 10.044 50.7724 9.79521Z" fill="var(--fill-0, white)"/>
<path id="Vector_7" d="M62.9514 7.94486V8.67562C61.8888 7.58732 59.8942 7.50957 58.6355 8.3025C55.3659 10.2616 56.4937 15.7656 60.6134 15.7811C61.5124 15.7811 62.3463 15.5168 62.9677 14.9104V15.6257H65.1748V7.94486H62.9514ZM62.5098 13.2778C62.1339 13.6665 61.627 13.8687 61.0224 13.8687C59.8127 13.8842 58.8968 12.9047 58.9625 11.7541C58.93 10.1372 60.6461 9.18874 62.085 9.98171C63.1801 10.6347 63.3925 12.4072 62.5098 13.2778Z" fill="var(--fill-0, white)"/>
<path id="Vector_8" d="M74.8855 15.6413L71.5506 11.6143L74.7382 7.94501H72.1878L69.2615 11.4744V4.13574H67.0712V15.6413H69.2615V11.8942L72.2042 15.6413H74.8855Z" fill="var(--fill-0, white)"/>
<path id="Vector_9" d="M78.2364 15.8124C76.9121 15.8124 75.5714 15.3304 74.7214 14.3664L76.0457 13.107C76.5851 13.729 77.3374 14.0088 78.2039 14.0088C78.5635 14.0088 78.8411 13.9622 79.0209 13.8533C79.4136 13.6512 79.3805 13.1382 79.0046 12.9515C77.9094 12.3918 76.2581 12.454 75.5063 11.319C75.0814 10.6971 75.1141 9.53095 75.6046 8.89347C75.8659 8.53584 76.2255 8.24051 76.6998 8.05395C78.2364 7.44753 80.4924 7.72739 81.5061 9.08003L80.1817 10.3551C79.6098 9.65538 78.4163 9.32881 77.6151 9.68644C77.2718 9.873 77.3044 10.3551 77.6477 10.526C77.8274 10.6193 78.0893 10.7126 78.4 10.8059C79.0209 10.9924 79.7732 11.1635 80.3453 11.5056C81.0319 11.9253 81.4078 12.5162 81.3915 13.3714C81.3915 15.035 79.9531 15.828 78.2364 15.8124Z" fill="var(--fill-0, white)"/>
<path id="Vector_10" d="M16.3601 9.73291C15.6081 10.9146 15.5918 12.6404 16.3928 13.822C16.5727 14.1175 16.8015 14.3818 17.0467 14.615C17.1285 14.6772 17.2429 14.786 17.3737 14.8637C17.8151 14.2885 18.1747 13.6666 18.4526 12.9825C18.2238 12.6249 18.1584 12.4227 18.1093 12.034C18.0766 11.8163 18.0766 11.5831 18.1093 11.3654C18.142 11.1011 18.2238 10.8835 18.3546 10.6814C19.2536 9.15765 21.6568 9.48413 22.1308 11.1323C22.1799 11.2877 22.1963 11.4432 22.1963 11.5987C22.229 12.1429 22.1963 12.4071 21.9511 12.8736C21.7712 13.1846 21.5096 13.4333 21.199 13.5888C21.0192 13.7132 20.725 13.7755 20.5288 13.8376C20.2509 14.5217 19.9076 15.1747 19.4825 15.7656C19.4989 15.7656 19.5152 15.7656 19.5152 15.7656C22.229 16.0454 24.4687 14.2419 24.4523 11.6453C24.4195 7.54065 18.518 6.32788 16.3601 9.73291Z" fill="var(--fill-0, white)"/>
</g>
</svg>
