<svg preserveAspectRatio="none" width="100%" height="100%" overflow="visible" style="display: block;" viewBox="0 0 31 31" fill="none" xmlns="http://www.w3.org/2000/svg">
<g id="paper (1) 1" clip-path="url(#clip0_4_577)">
<path id="Vector" d="M21.9583 28.4167C18.3972 28.4167 15.5 25.5195 15.5 21.9583C15.5 18.3972 18.3972 15.5 21.9583 15.5C25.5195 15.5 28.4167 18.3972 28.4167 21.9583C28.4167 25.5195 25.5195 28.4167 21.9583 28.4167ZM21.9583 17.4375C19.4654 17.4375 17.4375 19.4654 17.4375 21.9583C17.4375 24.4513 19.4654 26.4792 21.9583 26.4792C24.4512 26.4792 26.4792 24.4513 26.4792 21.9583C26.4792 19.4654 24.4512 17.4375 21.9583 17.4375Z" fill="var(--fill-0, white)"/>
<path id="Vector_2" d="M30.0312 31C29.7832 31 29.5352 30.9057 29.3467 30.7158L25.1487 26.5179C24.7703 26.1394 24.7703 25.5259 25.1487 25.1474C25.5272 24.769 26.1407 24.769 26.5192 25.1474L30.7171 29.3453C31.0956 29.7238 31.0956 30.3373 30.7171 30.7158C30.5272 30.9057 30.2792 31 30.0312 31Z" fill="var(--fill-0, white)"/>
<path id="Vector_3" d="M13.6013 27.125H3.55208C1.59263 27.125 0 25.5324 0 23.5729V3.55208C0 1.59263 1.59263 0 3.55208 0H18.4063C20.3657 0 21.9583 1.59263 21.9583 3.55208V12.6454C21.9583 13.1802 21.5243 13.6142 20.9896 13.6142C20.4548 13.6142 20.0208 13.1802 20.0208 12.6454V3.55208C20.0208 2.66212 19.2962 1.9375 18.4063 1.9375H3.55208C2.66213 1.9375 1.9375 2.66212 1.9375 3.55208V23.5729C1.9375 24.4629 2.66213 25.1875 3.55208 25.1875H13.6013C14.136 25.1875 14.57 25.6215 14.57 26.1562C14.57 26.691 14.136 27.125 13.6013 27.125Z" fill="var(--fill-0, white)"/>
<path id="Vector_4" d="M17.1146 12.271H4.84374C4.30899 12.271 3.87499 11.837 3.87499 11.3022C3.87499 10.7675 4.30899 10.3335 4.84374 10.3335H17.1146C17.6493 10.3335 18.0833 10.7675 18.0833 11.3022C18.0833 11.837 17.6493 12.271 17.1146 12.271Z" fill="var(--fill-0, white)"/>
<path id="Vector_5" d="M11.9479 17.4375H4.84374C4.30899 17.4375 3.87499 17.0035 3.87499 16.4687C3.87499 15.934 4.30899 15.5 4.84374 15.5H11.9479C12.4827 15.5 12.9167 15.934 12.9167 16.4687C12.9167 17.0035 12.4827 17.4375 11.9479 17.4375Z" fill="var(--fill-0, white)"/>
<path id="Vector_6" d="M10.6562 7.10404H4.84374C4.30899 7.10404 3.87499 6.67004 3.87499 6.13529C3.87499 5.60054 4.30899 5.16654 4.84374 5.16654H10.6562C11.191 5.16654 11.625 5.60054 11.625 6.13529C11.625 6.67004 11.191 7.10404 10.6562 7.10404Z" fill="var(--fill-0, white)"/>
</g>
<defs>
<clipPath id="clip0_4_577">
<rect width="31" height="31" fill="white"/>
</clipPath>
</defs>
</svg>
