<svg preserveAspectRatio="none" width="100%" height="100%" overflow="visible" style="display: block;" viewBox="0 0 16.4246 42.4662" fill="none" xmlns="http://www.w3.org/2000/svg">
<g id="Group">
<path id="Vector" d="M5.88426 42.4662C5.70833 42.4662 5.5324 42.4199 5.38425 42.3181C5.10647 42.1329 4.93981 41.8181 4.95833 41.4847C5.24537 36.707 5.05091 30.744 4.3935 23.7625C3.12498 10.2718 1.14352 3.91065 0.0694445 1.31805C-0.0231482 1.08657 -0.0231482 0.836575 0.0694445 0.605094C0.162037 0.373612 0.34723 0.197685 0.569452 0.105093L0.662022 0.0680549C0.81943 0.00324004 0.995364 -0.0152762 1.16203 0.0125016C1.61573 0.0865756 12.3472 1.97546 15.5694 15.7995C15.8935 17.1699 16.125 18.6606 16.2732 20.2255C17.6713 35.1884 8.99538 40.9477 6.30094 42.3644C6.18057 42.4292 6.03241 42.4662 5.88426 42.4662ZM2.40277 2.2625C3.55092 5.64213 5.16202 12.1143 6.24536 23.5958C6.83795 29.8551 7.05092 35.3181 6.89352 39.8644C10.3287 37.5403 15.5324 32.0403 14.4491 20.4014C14.3102 18.9199 14.088 17.5125 13.7824 16.2255C11.5139 6.52176 5.31018 3.27176 2.40277 2.2625Z" fill="var(--fill-0, #1B6025)"/>
</g>
</svg>
