<svg preserveAspectRatio="none" width="100%" height="100%" overflow="visible" style="display: block;" viewBox="0 0 91.0389 11.9399" fill="none" xmlns="http://www.w3.org/2000/svg">
<g id="UniImpact von">
<path id="Vector" d="M88.3612 3.06715C88.8886 3.06715 89.3511 3.16858 89.7487 3.37143C90.1544 3.57428 90.4709 3.88262 90.6981 4.29644C90.9253 4.71026 91.0389 5.23362 91.0389 5.86652V9.57872H89.8704V6.0004C89.8704 5.37561 89.7163 4.905 89.4079 4.58855C89.1077 4.2721 88.6817 4.11387 88.13 4.11387C87.7162 4.11387 87.3551 4.19501 87.0467 4.3573C86.7384 4.51958 86.499 4.75894 86.3286 5.07539C86.1664 5.39184 86.0852 5.78538 86.0852 6.25599V9.57872H84.9168V3.12801H86.0365V4.86848L85.854 4.40598C86.0649 3.98405 86.3895 3.65543 86.8277 3.42012C87.2658 3.18481 87.777 3.06715 88.3612 3.06715Z" fill="var(--fill-0, #353058)"/>
<path id="Vector_2" d="M79.9538 9.65174C79.3046 9.65174 78.7285 9.50975 78.2255 9.22575C77.7224 8.94176 77.3248 8.55228 77.0327 8.05732C76.7406 7.55425 76.5945 6.98626 76.5945 6.35336C76.5945 5.71235 76.7406 5.14436 77.0327 4.6494C77.3248 4.15444 77.7224 3.76902 78.2255 3.49314C78.7285 3.20915 79.3046 3.06715 79.9538 3.06715C80.5948 3.06715 81.1668 3.20915 81.6699 3.49314C82.1811 3.76902 82.5787 4.15444 82.8627 4.6494C83.1548 5.13625 83.3008 5.70423 83.3008 6.35336C83.3008 6.99438 83.1548 7.56236 82.8627 8.05732C82.5787 8.55228 82.1811 8.94176 81.6699 9.22575C81.1668 9.50975 80.5948 9.65174 79.9538 9.65174ZM79.9538 8.62937C80.3676 8.62937 80.7368 8.53605 81.0613 8.34943C81.394 8.16281 81.6537 7.8991 81.8403 7.55831C82.0269 7.2094 82.1202 6.80775 82.1202 6.35336C82.1202 5.89086 82.0269 5.49327 81.8403 5.16059C81.6537 4.8198 81.394 4.55609 81.0613 4.36947C80.7368 4.18284 80.3676 4.08953 79.9538 4.08953C79.5399 4.08953 79.1708 4.18284 78.8462 4.36947C78.5216 4.55609 78.262 4.8198 78.0672 5.16059C77.8725 5.49327 77.7751 5.89086 77.7751 6.35336C77.7751 6.80775 77.8725 7.2094 78.0672 7.55831C78.262 7.8991 78.5216 8.16281 78.8462 8.34943C79.1708 8.53605 79.5399 8.62937 79.9538 8.62937Z" fill="var(--fill-0, #353058)"/>
<path id="Vector_3" d="M72.2623 9.57872L69.4386 3.12801H70.6557L73.163 8.97016H72.5787L75.1347 3.12801H76.2788L73.4551 9.57872H72.2623Z" fill="var(--fill-0, #353058)"/>
<path id="Vector_4" d="M64.1857 9.67608C63.4149 9.67608 62.8144 9.48134 62.3844 9.09187C61.9543 8.69427 61.7393 8.106 61.7393 7.32705V1.58227H63.638V7.30271C63.638 7.57859 63.711 7.79361 63.8571 7.94778C64.0031 8.09383 64.2019 8.16686 64.4535 8.16686C64.7537 8.16686 65.0093 8.08572 65.2203 7.92344L65.7314 9.26226C65.5367 9.4002 65.3014 9.50568 65.0255 9.57871C64.7578 9.64362 64.4778 9.67608 64.1857 9.67608ZM60.7291 4.63723V3.17669H65.2689V4.63723H60.7291Z" fill="var(--fill-0, #353058)"/>
<path id="Vector_5" d="M57.3865 9.67607C56.6806 9.67607 56.0517 9.53407 55.5 9.25008C54.9482 8.95797 54.5141 8.55632 54.1977 8.04514C53.8893 7.53395 53.7352 6.95379 53.7352 6.30466C53.7352 5.64742 53.8893 5.06726 54.1977 4.56419C54.5141 4.053 54.9482 3.65541 55.5 3.37142C56.0517 3.07931 56.6806 2.93326 57.3865 2.93326C58.0762 2.93326 58.6766 3.07931 59.1878 3.37142C59.699 3.65541 60.0763 4.06517 60.3197 4.6007L58.847 5.39183C58.6766 5.08349 58.4616 4.8563 58.202 4.71024C57.9504 4.56419 57.6745 4.49116 57.3743 4.49116C57.0498 4.49116 56.7577 4.56419 56.498 4.71024C56.2384 4.8563 56.0314 5.06321 55.8773 5.33097C55.7312 5.59874 55.6582 5.9233 55.6582 6.30466C55.6582 6.68602 55.7312 7.01059 55.8773 7.27835C56.0314 7.54612 56.2384 7.75303 56.498 7.89908C56.7577 8.04514 57.0498 8.11816 57.3743 8.11816C57.6745 8.11816 57.9504 8.04919 58.202 7.91125C58.4616 7.7652 58.6766 7.53395 58.847 7.2175L60.3197 8.02079C60.0763 8.54821 59.699 8.95797 59.1878 9.25008C58.6766 9.53407 58.0762 9.67607 57.3865 9.67607Z" fill="var(--fill-0, #353058)"/>
<path id="Vector_6" d="M50.6791 9.5787V8.30073L50.5574 8.02079V5.73262C50.5574 5.32691 50.4316 5.01046 50.1801 4.78327C49.9366 4.55607 49.5593 4.44248 49.0481 4.44248C48.6992 4.44248 48.3544 4.49928 48.0136 4.61287C47.6809 4.71836 47.3969 4.86441 47.1616 5.05103L46.48 3.72438C46.8371 3.47284 47.2671 3.2781 47.7702 3.14017C48.2732 3.00223 48.7844 2.93326 49.3037 2.93326C50.3018 2.93326 51.0767 3.16856 51.6284 3.63918C52.1802 4.1098 52.4561 4.84413 52.4561 5.84216V9.5787H50.6791ZM48.683 9.67607C48.1718 9.67607 47.7337 9.59087 47.3685 9.42048C47.0034 9.24197 46.7235 9.0026 46.5287 8.70238C46.334 8.40216 46.2366 8.06542 46.2366 7.69217C46.2366 7.3027 46.3299 6.9619 46.5165 6.6698C46.7113 6.37769 47.0156 6.15049 47.4294 5.98821C47.8432 5.81782 48.3828 5.73262 49.0481 5.73262H50.7886V6.84019H49.2551C48.8088 6.84019 48.5004 6.91322 48.33 7.05927C48.1678 7.20533 48.0866 7.38789 48.0866 7.60697C48.0866 7.8504 48.1799 8.04514 48.3666 8.19119C48.5613 8.32913 48.825 8.3981 49.1577 8.3981C49.4741 8.3981 49.7581 8.32507 50.0097 8.17902C50.2612 8.02485 50.4438 7.80171 50.5574 7.50961L50.8495 8.38593C50.7115 8.80786 50.46 9.12837 50.0949 9.34745C49.7297 9.56653 49.2591 9.67607 48.683 9.67607Z" fill="var(--fill-0, #353058)"/>
<path id="Vector_7" d="M42.2367 9.67607C41.6849 9.67607 41.2021 9.55436 40.7883 9.31093C40.3745 9.06751 40.0499 8.69832 39.8146 8.20336C39.5874 7.70029 39.4738 7.06739 39.4738 6.30466C39.4738 5.53382 39.5834 4.90092 39.8024 4.40596C40.0215 3.911 40.338 3.54181 40.7518 3.29839C41.1656 3.05497 41.6606 2.93326 42.2367 2.93326C42.8533 2.93326 43.4051 3.07525 43.8919 3.35925C44.3869 3.63513 44.7764 4.0246 45.0604 4.52768C45.3525 5.03075 45.4985 5.62308 45.4985 6.30466C45.4985 6.99436 45.3525 7.59075 45.0604 8.09382C44.7764 8.59689 44.3869 8.98637 43.8919 9.26225C43.4051 9.53813 42.8533 9.67607 42.2367 9.67607ZM38.3662 11.9399V3.03062H40.1797V4.36945L40.1432 6.31683L40.2649 8.25205V11.9399H38.3662ZM41.908 8.11816C42.2245 8.11816 42.5044 8.04514 42.7479 7.89908C42.9994 7.75303 43.1982 7.54612 43.3442 7.27835C43.4984 7.00247 43.5755 6.67791 43.5755 6.30466C43.5755 5.9233 43.4984 5.59874 43.3442 5.33097C43.1982 5.06321 42.9994 4.8563 42.7479 4.71024C42.5044 4.56419 42.2245 4.49116 41.908 4.49116C41.5916 4.49116 41.3076 4.56419 41.0561 4.71024C40.8045 4.8563 40.6057 5.06321 40.4597 5.33097C40.3136 5.59874 40.2406 5.9233 40.2406 6.30466C40.2406 6.67791 40.3136 7.00247 40.4597 7.27835C40.6057 7.54612 40.8045 7.75303 41.0561 7.89908C41.3076 8.04514 41.5916 8.11816 41.908 8.11816Z" fill="var(--fill-0, #353058)"/>
<path id="Vector_8" d="M33.9867 2.93326C34.506 2.93326 34.9645 3.03874 35.3621 3.24971C35.7678 3.45256 36.0842 3.76901 36.3114 4.19905C36.5467 4.62099 36.6644 5.16463 36.6644 5.82999V9.5787H34.7657V6.1221C34.7657 5.59468 34.6562 5.2052 34.4371 4.95367C34.218 4.70213 33.9097 4.57636 33.5121 4.57636C33.2362 4.57636 32.9887 4.64127 32.7696 4.7711C32.5506 4.89281 32.3802 5.07943 32.2584 5.33097C32.1367 5.58251 32.0759 5.90302 32.0759 6.29249V9.5787H30.1772V6.1221C30.1772 5.59468 30.0676 5.2052 29.8486 4.95367C29.6376 4.70213 29.3333 4.57636 28.9357 4.57636C28.6598 4.57636 28.4124 4.64127 28.1933 4.7711C27.9742 4.89281 27.8038 5.07943 27.6821 5.33097C27.5604 5.58251 27.4995 5.90302 27.4995 6.29249V9.5787H25.6008V3.03062H27.4143V4.81978L27.0735 4.29642C27.3007 3.85015 27.6212 3.51341 28.0351 3.28622C28.457 3.05091 28.9357 2.93326 29.4713 2.93326C30.0717 2.93326 30.5951 3.08742 31.0413 3.39576C31.4957 3.69598 31.7959 4.15848 31.942 4.78327L31.2726 4.6007C31.4917 4.08951 31.8406 3.68381 32.3193 3.38359C32.8061 3.08337 33.362 2.93326 33.9867 2.93326Z" fill="var(--fill-0, #353058)"/>
<path id="Vector_9" d="M21.741 9.57872V1.05892H23.7128V9.57872H21.741Z" fill="var(--fill-0, #353058)"/>
<path id="Vector_10" d="M17.9463 9.5787V3.03063H19.845V9.5787H17.9463ZM18.8956 2.11779C18.5467 2.11779 18.2627 2.01636 18.0437 1.81351C17.8246 1.61066 17.715 1.35912 17.715 1.0589C17.715 0.75868 17.8246 0.507143 18.0437 0.304291C18.2627 0.101438 18.5467 1.16383e-05 18.8956 1.16383e-05C19.2445 1.16383e-05 19.5285 0.0973811 19.7476 0.29212C19.9667 0.478744 20.0762 0.722167 20.0762 1.02239C20.0762 1.33884 19.9667 1.60255 19.7476 1.81351C19.5367 2.01636 19.2527 2.11779 18.8956 2.11779Z" fill="var(--fill-0, #353058)"/>
<path id="Vector_11" d="M13.5111 2.93326C14.0304 2.93326 14.4929 3.03874 14.8986 3.24971C15.3124 3.45256 15.6369 3.76901 15.8723 4.19905C16.1076 4.62099 16.2252 5.16463 16.2252 5.82999V9.5787H14.3265V6.1221C14.3265 5.59468 14.2089 5.2052 13.9736 4.95367C13.7464 4.70213 13.4218 4.57636 12.9999 4.57636C12.6996 4.57636 12.4278 4.64127 12.1844 4.7711C11.9491 4.89281 11.7625 5.08349 11.6245 5.34314C11.4947 5.60279 11.4298 5.93547 11.4298 6.34118V9.5787H9.53109V3.03062H11.3446V4.84413L11.0038 4.29642C11.2391 3.85826 11.5758 3.52153 12.014 3.28622C12.4522 3.05091 12.9512 2.93326 13.5111 2.93326Z" fill="var(--fill-0, #353058)"/>
<path id="Vector_12" d="M3.85829 9.72477C2.64929 9.72477 1.70399 9.38804 1.02241 8.71457C0.340827 8.0411 3.45808e-05 7.07958 3.45808e-05 5.83001V1.05892H1.97176V5.75698C1.97176 6.56839 2.1381 7.15261 2.47078 7.50963C2.80345 7.86665 3.27002 8.04516 3.87046 8.04516C4.4709 8.04516 4.93746 7.86665 5.27014 7.50963C5.60282 7.15261 5.76916 6.56839 5.76916 5.75698V1.05892H7.71654V5.83001C7.71654 7.07958 7.37575 8.0411 6.69416 8.71457C6.01258 9.38804 5.06729 9.72477 3.85829 9.72477Z" fill="var(--fill-0, #353058)"/>
</g>
</svg>
