<svg preserveAspectRatio="none" width="100%" height="100%" overflow="visible" style="display: block;" viewBox="0 0 53.7578 45.6944" fill="none" xmlns="http://www.w3.org/2000/svg">
<path id="Vector" d="M40.6198 41.9074C36.2124 44.5463 30.9901 45.9445 25.4901 45.6574C21.055 45.4259 16.9346 44.1389 13.342 42.0371C4.94385 37.1204 -0.500596 27.787 0.0364414 17.4167C0.379034 10.8611 3.09199 4.67593 7.69384 0L19.8605 11.9352C18.1753 13.6482 17.1846 15.9167 17.0642 18.3056C16.7772 23.7222 20.9624 28.3519 26.3698 28.6389C31.7864 28.9167 36.4161 24.7407 36.7031 19.3333C36.8513 16.4167 35.7494 14.2593 34.7864 12.9722L48.4809 2.82408C52.1846 7.82408 54.0457 14 53.7216 20.2315C53.2402 29.5093 48.0642 37.4722 40.6198 41.9074Z" fill="var(--fill-0, #FFF8F2)"/>
</svg>
