<svg preserveAspectRatio="none" width="100%" height="100%" overflow="visible" style="display: block;" viewBox="0 0 18.6667 20" fill="none" xmlns="http://www.w3.org/2000/svg">
<g id="Group">
<path id="Vector" d="M15.4507 13.4773L12.5347 12.8933C12.2253 12.832 12 12.5573 12 12.24V11.5707C12.192 11.304 12.372 10.948 12.5587 10.576C12.7013 10.2947 12.916 9.87067 13.012 9.77067C13.5773 9.21733 14.18 8.53067 14.364 7.636C14.5307 6.82533 14.364 6.404 14.1707 6.07067C14.1707 5.41867 14.1707 4.22533 13.944 3.36533C13.9213 2.32667 13.7307 1.74 13.252 1.21733C12.9133 0.852 12.4147 0.766667 12.0147 0.698667C11.856 0.672 11.6387 0.634667 11.5627 0.593333C10.8707 0.210667 10.168 0.0213333 9.308 0C7.548 0.0666667 5.388 1.18267 4.66533 3.18933C4.44533 3.79867 4.46667 4.79867 4.48267 5.60267L4.464 6.07067C4.29467 6.404 4.128 6.82533 4.296 7.63467C4.48 8.53333 5.08267 9.21867 5.64533 9.76933C5.74267 9.87067 5.96 10.2973 6.104 10.5787C6.29333 10.9493 6.47467 11.3053 6.66667 11.572V12.24C6.66667 12.5573 6.44133 12.832 6.13067 12.8933L3.21467 13.4773C1.352 13.8493 0 15.4987 0 17.3987V18.6667C0 19.4013 0.598667 20 1.33333 20H17.3333C18.068 20 18.6667 19.4013 18.6667 18.6667V17.3987C18.6667 15.4987 17.3147 13.8493 15.4507 13.4773ZM17.3333 18.6667H1.33333V17.3987C1.33333 16.132 2.23467 15.032 3.47733 14.784L6.392 14.2C7.324 14.016 8 13.1907 8 12.24V11.3333C8 11.1547 7.928 10.9827 7.80133 10.8587C7.68667 10.7467 7.44 10.2613 7.292 9.972C7.04133 9.48133 6.82533 9.05733 6.57867 8.81733C6.136 8.38533 5.71333 7.91067 5.60133 7.36667C5.51467 6.94533 5.57467 6.82667 5.652 6.676C5.72 6.54267 5.82133 6.34267 5.82133 6.07067L5.81467 5.576C5.80267 4.99333 5.78267 4.01733 5.91867 3.64133C6.436 2.20667 8.07733 1.38133 9.316 1.33333C9.92667 1.34933 10.4067 1.476 10.916 1.76C11.1907 1.912 11.5107 1.96533 11.792 2.01333C11.9507 2.04 12.216 2.08533 12.2707 2.12C12.4507 2.316 12.6 2.552 12.6107 3.46933C12.6107 3.52933 12.62 3.58933 12.6373 3.648C12.836 4.32933 12.836 5.50533 12.836 6.07067C12.836 6.34267 12.9387 6.54267 13.0053 6.676C13.0827 6.82667 13.1427 6.94533 13.056 7.368C12.9453 7.90933 12.52 8.38533 12.0787 8.81733C11.8307 9.06 11.616 9.484 11.368 9.976C11.224 10.264 10.98 10.7467 10.8667 10.8573C10.7387 10.9827 10.6667 11.1547 10.6667 11.3333V12.24C10.6667 13.1907 11.3427 14.016 12.2747 14.2013L15.1907 14.7853C16.432 15.032 17.3333 16.132 17.3333 17.3987V18.6667Z" fill="var(--fill-0, #FF730F)"/>
</g>
</svg>
