<svg preserveAspectRatio="none" width="100%" height="100%" overflow="visible" style="display: block;" viewBox="0 0 86.3952 59.2408" fill="none" xmlns="http://www.w3.org/2000/svg">
<g id="Group">
<path id="Vector" d="M19.4352 59.2408C17.5185 59.2408 15.5463 59.1853 13.5556 59.0834L12.0926 59.0001C10.0926 58.8704 8.20371 58.3056 6.49075 57.3056C2.48149 55.0186 0 50.7316 0 46.139C0 45.4075 0.0555488 44.7316 0.16666 44.0556C0.833327 39.9075 3.50925 36.3334 7.31481 34.5001C9.31481 33.5371 11.5463 33.1112 13.7871 33.2501C14.9908 33.3241 16.1945 33.3797 17.3704 33.4075C31.0833 33.7593 41.7037 30.6853 48.9352 24.2964C56.713 17.4353 59.5278 7.73155 60.5185 0.79636C60.5556 0.527842 60.713 0.296363 60.9352 0.148215C61.1667 6.68027e-05 61.4445 -0.0369798 61.7037 0.0370942C73.1667 3.46302 81.963 1.66672 85.213 0.731539C85.5093 0.648205 85.8334 0.713032 86.0648 0.916735C86.2963 1.11118 86.426 1.41673 86.3889 1.72229C85.3241 11.5186 81.2963 29.963 66.2593 43.4075C54.9167 53.5464 39.7963 58.8612 21.3426 59.213C20.7037 59.2316 20.0741 59.2408 19.4352 59.2408ZM12.9259 35.0741C11.25 35.0741 9.60185 35.4445 8.10185 36.1667C4.84259 37.7315 2.54631 40.7964 1.9815 44.3519C1.8889 44.926 1.84258 45.5093 1.84258 46.139C1.84258 50.0741 3.97222 53.7408 7.40741 55.7038C8.87963 56.5556 10.4907 57.0371 12.2037 57.1482L13.6574 57.2316C16.2593 57.3704 18.8241 57.4167 21.2963 57.3704C39.3056 57.0371 54.0093 51.8797 65.0185 42.0371C78.9352 29.6019 83.1296 12.676 84.3796 2.87969C79.9259 3.94451 72.1019 4.87043 62.1852 2.12043C61.0185 9.26858 57.963 18.8056 50.1482 25.6945C42.5556 32.3982 31.5371 35.6112 17.3148 35.2686C16.1111 35.2408 14.8796 35.1853 13.6574 35.1019C13.4167 35.0834 13.1667 35.0741 12.9259 35.0741Z" fill="var(--fill-0, #1B6025)"/>
</g>
</svg>
