<svg preserveAspectRatio="none" width="100%" height="100%" overflow="visible" style="display: block;" viewBox="0 0 31 31" fill="none" xmlns="http://www.w3.org/2000/svg">
<g id="paper (2) 1" clip-path="url(#clip0_4_594)">
<path id="Vector" d="M15.8229 16.7917C15.7596 16.7917 15.6963 16.7852 15.633 16.7723L11.1083 15.8681C10.921 15.8307 10.7479 15.7377 10.6136 15.6034L0.658694 5.64848C-0.218347 4.77144 -0.218347 3.34544 0.658694 2.4684L2.46832 0.658772C3.34407 -0.216978 4.77007 -0.220853 5.64711 0.658772L15.602 10.6136C15.7376 10.748 15.8293 10.9211 15.8668 11.1084L16.7722 15.6331C16.8355 15.9508 16.7361 16.2789 16.5074 16.5088C16.324 16.6909 16.0773 16.7917 15.8229 16.7917ZM11.7761 14.0249L14.588 14.5881L14.0249 11.7761L4.27924 2.02794C4.15782 1.90652 3.96019 1.90652 3.83878 2.02794L2.02786 3.83886C1.90644 3.96027 1.90644 4.1579 2.02786 4.27931L11.7761 14.0249Z" fill="var(--fill-0, white)"/>
<path id="Vector_2" d="M3.55201 24.5936C3.01726 24.5936 2.58326 24.1596 2.58326 23.6248V12.6456C2.58326 12.1109 3.01726 11.6769 3.55201 11.6769C4.08676 11.6769 4.52076 12.1109 4.52076 12.6456V23.6248C4.52076 24.1596 4.08676 24.5936 3.55201 24.5936Z" fill="var(--fill-0, white)"/>
<path id="Vector_3" d="M26.8021 1.93758H10.0621C9.52738 1.93758 9.09338 1.50358 9.09338 0.968827C9.09338 0.434077 9.52738 7.73242e-05 10.0621 7.73242e-05H26.8021C27.3369 7.73242e-05 27.7709 0.434077 27.7709 0.968827C27.7709 1.50358 27.3369 1.93758 26.8021 1.93758Z" fill="var(--fill-0, white)"/>
<path id="Vector_4" d="M30.0313 7.10424H23.573C23.0382 7.10424 22.6042 6.67024 22.6042 6.13549V4.19799C22.6042 1.88333 24.4875 7.73242e-05 26.8021 7.73242e-05C29.1168 7.73242e-05 31.0001 1.88333 31.0001 4.19799V6.13549C31.0001 6.67024 30.5661 7.10424 30.0313 7.10424ZM24.5417 5.16674H29.0626V4.19799C29.0626 2.95154 28.0486 1.93758 26.8021 1.93758C25.5557 1.93758 24.5417 2.95154 24.5417 4.19799V5.16674Z" fill="var(--fill-0, white)"/>
<path id="Vector_5" d="M20.6667 30.9999H3.55208C1.59262 30.9999 -7.83349e-06 29.4073 -7.83349e-06 27.4478V23.6271C-7.83349e-06 23.0923 0.433992 22.6583 0.968742 22.6583H17.1146C17.6493 22.6583 18.0833 23.0923 18.0833 23.6271V26.802C18.0833 28.0485 19.0973 29.0624 20.3437 29.0624C21.5902 29.0624 22.6042 28.0485 22.6042 26.802V6.13534C22.6042 5.60059 23.0382 5.16659 23.5729 5.16659C24.1077 5.16659 24.5417 5.60059 24.5417 6.13534V26.802C24.5417 28.9074 22.9826 30.655 20.9599 30.9547C20.8669 30.9831 20.7687 30.9999 20.6667 30.9999ZM1.93749 24.5958V27.4478C1.93749 28.3378 2.66212 29.0624 3.55208 29.0624H16.8072C16.3887 28.4088 16.1458 27.6338 16.1458 26.802V24.5958H1.93749Z" fill="var(--fill-0, white)"/>
</g>
<defs>
<clipPath id="clip0_4_594">
<rect width="31" height="31" fill="white"/>
</clipPath>
</defs>
</svg>
