<svg preserveAspectRatio="none" width="100%" height="100%" overflow="visible" style="display: block;" viewBox="0 0 90.112 55.5941" fill="none" xmlns="http://www.w3.org/2000/svg">
<g id="Group">
<path id="Vector" d="M63.1397 55.5941C47.686 55.5941 34.4916 51.5941 23.8249 43.6589C7.63971 31.6311 1.96378 13.6218 0.0193343 3.95517C-0.0454805 3.64961 0.0563682 3.34406 0.269331 3.12184C0.482294 2.89962 0.797111 2.80701 1.10267 2.86257C4.42674 3.4922 13.3527 4.49221 24.473 0.066283C24.723 -0.0355689 25.0008 -0.0170566 25.2416 0.103314C25.4823 0.223684 25.649 0.44591 25.7138 0.714428C27.3342 7.52924 31.0193 16.9459 39.3619 23.0663C47.1397 28.7885 57.9916 30.8811 71.6212 29.2978C72.7879 29.1681 73.9823 29.0015 75.1768 28.8163C76.3434 28.6311 77.5471 28.6126 78.7601 28.7515C84.0842 29.4089 88.3805 33.1774 89.7138 38.3533C89.9823 39.3904 90.1119 40.4644 90.1119 41.5478C90.1119 47.9459 85.5101 53.3163 79.1582 54.307L77.7231 54.52C77.6953 54.52 77.6675 54.5293 77.6397 54.5293C75.1119 54.8996 72.5379 55.1774 69.9823 55.3533C67.6675 55.5107 65.3805 55.5941 63.1397 55.5941ZM2.12118 4.89962C4.25081 14.5478 9.94526 31.0293 24.936 42.1681C36.7786 50.9737 51.8897 54.7885 69.8619 53.4922C72.3897 53.3163 74.9453 53.0385 77.4453 52.6774C77.4731 52.6774 77.5008 52.6681 77.5194 52.6681L78.8897 52.4644C84.3156 51.6126 88.2601 47.02 88.2601 41.5385C88.2601 40.6126 88.149 39.6867 87.9175 38.7978C86.7694 34.3626 83.0934 31.1404 78.5379 30.5755C77.5008 30.4552 76.4638 30.4737 75.4638 30.6311C74.2508 30.8255 73.0286 30.9922 71.8342 31.1218C57.7323 32.7607 46.4267 30.5478 38.2601 24.5385C29.8804 18.3904 25.9823 9.16814 24.1675 2.14962C14.3249 5.85332 6.19526 5.48295 2.12118 4.89962Z" fill="var(--fill-0, #1B6025)"/>
</g>
</svg>
