<svg preserveAspectRatio="none" width="100%" height="100%" overflow="visible" style="display: block;" viewBox="0 0 71.6441 41.8842" fill="none" xmlns="http://www.w3.org/2000/svg">
<g id="Group 302">
<rect id="Rectangle 104" width="71.6441" height="41.8842" rx="5" fill="var(--fill-0, #353535)"/>
<path id="Stripe_1_" fill-rule="evenodd" clip-rule="evenodd" d="M37.4181 16.2707L34.7252 16.7851V14.8358L37.4181 14.3281V16.2707ZM26.4878 15.4382L23.8706 15.9322L23.863 23.5941C23.863 25.0087 25.0506 26.0511 26.6391 26.0511C27.5165 26.0511 28.1595 25.909 28.515 25.733V23.7904C28.1746 23.9123 26.4802 24.3522 26.4802 22.9376V19.5534H28.515V17.5161H26.4802L26.4878 15.4382ZM55.1109 21.7328C55.1109 19.2826 53.7795 17.3536 51.2455 17.3536C48.6964 17.3536 47.1533 19.2826 47.1533 21.7125C47.1533 24.5891 48.9763 26.0443 51.5859 26.0443C52.8643 26.0443 53.8249 25.7871 54.5511 25.4216V23.5061C53.8249 23.831 52.9853 24.0341 51.9263 24.0341C50.89 24.0341 49.9672 23.7092 49.8461 22.5789H55.0882C55.0882 22.5247 55.0957 22.4097 55.0957 22.2675C55.1033 22.0848 55.1109 21.8614 55.1109 21.7328ZM49.8159 20.8258C49.8159 19.7429 50.5572 19.2962 51.2304 19.2962C51.8809 19.2962 52.5768 19.7429 52.5768 20.8258H49.8159ZM20.1565 19.4248C19.5892 19.4248 19.2488 19.5669 19.2488 19.9392C19.2488 20.3453 19.8388 20.528 20.5726 20.7446C21.7677 21.1101 23.3335 21.5839 23.3411 23.3505C23.3411 25.0629 21.8055 26.0511 19.5817 26.0511C18.6588 26.0511 17.6528 25.8886 16.6543 25.5028V23.2286C17.5544 23.6686 18.6891 23.9935 19.5817 23.9935C20.1792 23.9935 20.6104 23.8513 20.6104 23.4114C20.6104 22.9579 19.9674 22.7549 19.1959 22.5044C18.0159 22.1322 16.5333 21.6516 16.5333 20.061C16.5333 18.3689 17.978 17.3536 20.1565 17.3536C21.0491 17.3536 21.9266 17.4755 22.8116 17.7936V20.0407C22.0022 19.6481 20.9659 19.4248 20.1565 19.4248ZM31.8433 18.22L31.6693 17.5093H29.3546V25.8819H32.0324V20.2099C32.6678 19.4721 33.7343 19.6075 34.0672 19.7158V17.5161C33.7343 17.401 32.4787 17.1912 31.8433 18.22ZM34.7252 17.5161H37.4181V25.8886H34.7252V17.5161ZM40.9128 18.0982C41.291 17.7936 41.9642 17.3536 43.0156 17.3536C44.8916 17.3536 46.6616 18.863 46.6692 21.6381C46.6692 24.6703 44.9218 26.0443 43.0081 26.0443C42.0626 26.0443 41.4952 25.6924 41.1095 25.4419L41.1019 28.1493L38.4242 28.6569V17.5025H40.7842L40.9128 18.0982ZM41.1019 23.4926C41.3591 23.743 41.7373 23.9393 42.3651 23.9393C43.3485 23.9393 44.0141 22.985 44.0141 21.699C44.0141 20.4468 43.3409 19.4722 42.3651 19.4722C41.7524 19.4722 41.3666 19.6617 41.0868 19.9392L41.1019 23.4926Z" fill="var(--fill-0, #6461FC)"/>
</g>
</svg>
