<svg preserveAspectRatio="none" width="100%" height="100%" overflow="visible" style="display: block;" viewBox="0 0 30.6932 17.3381" fill="none" xmlns="http://www.w3.org/2000/svg">
<g id="Group">
<path id="Vector" d="M11.2125 17.3381C8.16618 17.3381 5.82359 17.014 4.4347 16.7455C3.12914 16.4955 2.40692 16.264 2.37914 16.2547C2.04581 16.1436 1.79581 15.8566 1.74951 15.5047L0.00877311 3.40289C-0.0375232 3.06029 0.101367 2.72696 0.379145 2.52326C0.656923 2.31956 1.01803 2.29178 1.32359 2.43993C5.94396 4.67141 11.0921 5.45845 16.2032 4.72697C20.2866 4.14364 24.2125 2.56956 27.5643 0.171415C27.8236 -0.0137705 28.1662 -0.0508081 28.4717 0.0695623C28.768 0.199192 28.981 0.467709 29.0273 0.791783L30.6847 12.3288C30.7403 12.7455 30.518 13.1436 30.1384 13.3103C29.7032 13.4955 29.2866 13.6714 28.8606 13.8473C28.8606 13.8473 28.8606 13.8473 28.8514 13.8473C21.8977 16.6066 15.7588 17.3381 11.2125 17.3381ZM3.481 14.6436C3.78655 14.7177 4.22174 14.8196 4.76803 14.9307C8.09211 15.5696 17.018 16.5603 28.1384 12.1344C28.3328 12.051 28.5273 11.977 28.7217 11.8936L27.3791 2.52326C24.0828 4.62511 20.3329 6.014 16.4532 6.56955C11.5458 7.27326 6.61063 6.66215 2.06433 4.8103L3.481 14.6436Z" fill="var(--fill-0, #1B6025)"/>
</g>
</svg>
