<svg preserveAspectRatio="none" width="100%" height="100%" overflow="visible" style="display: block;" viewBox="0 0 4.48884 5.1936" fill="none" xmlns="http://www.w3.org/2000/svg">
<path id="Vector" d="M0 5.1936V0H2.25836C2.71235 0 3.05743 0.0472629 3.29371 0.141694C3.52989 0.233817 3.71873 0.397939 3.85995 0.634154C4.00126 0.870369 4.07196 1.13132 4.07196 1.41711C4.07196 1.78551 3.95491 2.09612 3.72099 2.34886C3.48707 2.60151 3.12579 2.76212 2.63703 2.83062C2.81537 2.91803 2.95089 3.00425 3.04349 3.08926C3.24039 3.27351 3.42687 3.50372 3.60285 3.78009L4.48884 5.1936H3.64115L2.96709 4.11305C2.7702 3.80132 2.60806 3.5628 2.48069 3.39748C2.35332 3.23215 2.23862 3.1164 2.13669 3.05031C2.03711 2.98412 1.93518 2.93806 1.83098 2.91212C1.75458 2.8956 1.62947 2.88729 1.45575 2.88729H0.674058V5.1936H0ZM0.674058 2.29218H2.12284C2.4309 2.29218 2.6718 2.26025 2.84552 2.19646C3.01924 2.13037 3.15122 2.02643 3.24157 1.88474C3.33191 1.74065 3.37708 1.58474 3.37708 1.41711C3.37708 1.17148 3.289 0.969508 3.11302 0.811293C2.9393 0.653077 2.66364 0.573971 2.28615 0.573971H0.674058V2.29218Z" fill="var(--fill-0, white)"/>
</svg>
