<svg preserveAspectRatio="none" width="100%" height="100%" overflow="visible" style="display: block;" viewBox="0 0 71.6441 41.8842" fill="none" xmlns="http://www.w3.org/2000/svg">
<g id="Group 297">
<rect id="Rectangle 105" width="71.6441" height="41.8842" rx="5" fill="var(--fill-0, #353535)"/>
<path id="Combined_Shape_1_" fill-rule="evenodd" clip-rule="evenodd" d="M14.566 25.1704H12.1244V15.4308H14.566V25.1704ZM20.6536 15.4308H18.269C18.269 17.2194 17.3738 18.8652 15.803 19.9399L14.8508 20.5937L18.5132 25.1704H21.5244L18.1551 20.9619C19.7584 19.4965 20.6536 17.535 20.6536 15.4308ZM24.5438 25.1629H22.2406V15.4308H24.5438V25.1629ZM31.5023 18.4293V18.8577C30.8837 18.4669 30.1269 18.2415 29.3211 18.2415C27.1807 18.2415 25.4472 19.8347 25.4472 21.7961C25.4472 23.7576 27.1807 25.3508 29.3211 25.3508C30.1269 25.3508 30.8837 25.1253 31.5023 24.7345V25.1629H33.6997V18.4293H31.5023ZM31.4941 21.7961C31.4941 22.7505 30.5989 23.5246 29.5002 23.5246C28.4015 23.5246 27.5062 22.7505 27.5062 21.7961C27.5062 20.8417 28.4015 20.0676 29.5002 20.0676C30.5989 20.0676 31.4941 20.8417 31.4941 21.7961ZM54.7052 18.8652V18.4293H56.9026V25.1629H54.7052V24.7345C54.0867 25.1253 53.3298 25.3508 52.5241 25.3508C50.3837 25.3508 48.6502 23.7576 48.6502 21.7961C48.6502 19.8347 50.3837 18.2415 52.5241 18.2415C53.3298 18.249 54.0786 18.4744 54.7052 18.8652ZM52.7032 23.5321C53.8019 23.5321 54.6971 22.758 54.6971 21.8036C54.6971 20.8492 53.8019 20.0752 52.7032 20.0752C51.6045 20.0752 50.7092 20.8492 50.7092 21.8036C50.7092 22.758 51.6045 23.5321 52.7032 23.5321ZM57.8548 24.0431C57.8548 23.3442 58.4734 22.7806 59.2384 22.7806C60.0034 22.7806 60.622 23.3442 60.622 24.0431C60.622 24.742 60.0034 25.3057 59.2384 25.3057C58.4734 25.3057 57.8548 24.742 57.8548 24.0431ZM44.7355 18.249C43.8566 18.249 43.0264 18.497 42.473 19.1884V18.4293H40.2837V25.1629H42.4974V21.6233C42.4974 20.6012 43.2462 20.0977 44.1496 20.0977C45.118 20.0977 45.6715 20.6238 45.6715 21.6082V25.1629H47.8689V20.8793C47.8689 19.3161 46.5097 18.249 44.7355 18.249ZM37.1016 18.4293V19.3086C37.5411 18.7826 38.3631 18.4369 39.2583 18.4369V20.3908H39.2502H39.242C39.2339 20.3908 39.2339 20.3908 39.2257 20.3908C38.3549 20.3908 37.1016 20.9619 37.1016 22.0216V25.1629H34.8472V18.4293H37.1016Z" fill="var(--fill-0, white)"/>
</g>
</svg>
