<svg preserveAspectRatio="none" width="100%" height="100%" overflow="visible" style="display: block;" viewBox="0 0 71.6441 41.8842" fill="none" xmlns="http://www.w3.org/2000/svg">
<g id="Group 306">
<rect id="Rectangle 101" width="71.6441" height="41.8842" rx="5" fill="var(--fill-0, #353535)"/>
<path id="visa-logo_1_" fill-rule="evenodd" clip-rule="evenodd" d="M25.0754 27.4317H21.3558L18.5661 16.3201C18.4345 15.8167 18.1537 15.359 17.7414 15.1485C16.7062 14.6176 15.5658 14.1874 14.3288 13.9769V13.5467H20.3206C21.1452 13.5467 21.7681 14.1874 21.8734 14.938L23.3209 22.9468L27.0405 13.5467H30.6549L25.0754 27.4317ZM32.7253 27.4317H29.2162L32.1112 13.5467H35.6203L32.7253 27.4317ZM40.1646 17.391C40.2698 16.6404 40.8927 16.2194 41.6121 16.2194C42.7525 16.1096 43.9895 16.3292 45.0247 16.8601L45.6475 13.8671C44.6036 13.4369 43.4719 13.2264 42.4367 13.2264C39.0241 13.2264 36.5414 15.1485 36.5414 17.8212C36.5414 19.8531 38.296 20.9148 39.5417 21.5555C40.8839 22.1963 41.4015 22.6264 41.2962 23.2671C41.2962 24.2282 40.2611 24.6584 39.2346 24.6584C37.9977 24.6584 36.752 24.338 35.6203 23.8072L34.9974 26.8002C36.2344 27.3311 37.5766 27.5507 38.8223 27.5507C42.6472 27.6606 45.0247 25.7384 45.0247 22.8553C45.0159 19.2032 40.1646 18.9927 40.1646 17.391ZM57.3153 27.4317L54.5255 13.5467H51.5253C50.9024 13.5467 50.2883 13.9769 50.0778 14.6176L44.9106 27.4317H48.525L49.2443 25.3998H53.6921L54.1044 27.4317H57.3153ZM52.0429 17.2811L53.078 22.5166H50.183L52.0429 17.2811Z" fill="var(--fill-0, white)"/>
</g>
</svg>
