<svg preserveAspectRatio="none" width="100%" height="100%" overflow="visible" style="display: block;" viewBox="0 0 17.2697 51.9303" fill="none" xmlns="http://www.w3.org/2000/svg">
<g id="Group">
<path id="Vector" d="M6.8704 51.9301C6.5741 51.9301 6.29633 51.7912 6.1204 51.5412C6.03707 51.4209 5.27781 50.319 4.28707 47.2172C3.213 43.8283 1.71299 37.5042 0.694474 26.6338C-0.324045 15.7727 -0.0370097 9.27273 0.388916 5.73569C0.777805 2.50421 1.31484 1.28199 1.3704 1.15236C1.50928 0.856061 1.79633 0.652351 2.12041 0.624573L8.67595 0.00420427C8.96299 -0.0235735 9.2593 0.0875444 9.45374 0.300507C9.62967 0.494952 9.713 0.744947 9.69448 1.00421C8.95374 9.68013 9.60189 19.9116 11.6204 31.4116C12.5371 38.4764 14.3982 44.6061 17.1574 49.6709C17.3056 49.9394 17.3056 50.2727 17.1667 50.5505C17.0186 50.8283 16.75 51.0042 16.4352 51.0413L6.94447 51.9301C6.92596 51.9301 6.89818 51.9301 6.8704 51.9301ZM2.88891 2.41162C2.72225 2.98569 2.44447 4.10606 2.22225 5.95792C1.80558 9.41162 1.52781 15.7635 2.53707 26.4672C3.54633 37.1801 5.00004 43.3561 6.05559 46.6616C6.62041 48.4487 7.10188 49.4949 7.37966 50.032L14.8982 49.3283C12.3797 44.319 10.6667 38.3931 9.80558 31.6987C7.84262 20.5598 7.15743 10.5505 7.7778 1.95791L2.88891 2.41162Z" fill="var(--fill-0, #1B6025)"/>
</g>
</svg>
