<svg preserveAspectRatio="none" width="100%" height="100%" overflow="visible" style="display: block;" viewBox="0 0 38.3666 58.7426" fill="none" xmlns="http://www.w3.org/2000/svg">
<g id="Group">
<path id="Vector" d="M18.7655 58.7426C15.3766 58.7426 11.9692 57.9092 8.95994 56.2333C4.67291 53.8444 1.58957 50.0296 0.0432705 45.1963C-0.0400629 44.9278 -0.00303033 44.6315 0.154377 44.3907C0.311785 44.1592 0.571053 44.0018 0.85809 43.9833C3.38587 43.8074 5.94141 43.5296 8.44141 43.1685C8.46919 43.1685 8.49697 43.1592 8.51549 43.1592L9.88587 42.9555C15.3118 42.1037 19.2562 37.5111 19.2562 32.0296C19.2562 31.1037 19.1451 30.1778 18.9136 29.2889C17.7748 24.8629 14.0896 21.6315 9.53401 21.0667C8.49698 20.9463 7.45993 20.9648 6.45993 21.1222C5.24697 21.3166 4.02475 21.4833 2.8303 21.6129C2.52475 21.65 2.2192 21.5296 2.0155 21.2889C1.81179 21.0574 1.74697 20.7333 1.8303 20.437C5.22845 8.52035 10.3488 1.3259 16.2748 0.168494C20.3396 -0.627802 24.4044 1.40924 28.034 6.04813C32.3951 11.6315 35.784 20.5111 37.8118 31.7241C39.6451 41.8629 36.8859 50.3907 30.2562 55.1222C26.9414 57.5296 22.8581 58.7426 18.7655 58.7426ZM2.20993 45.7426C3.70993 49.5944 6.33957 52.6407 9.86735 54.6129C15.9044 57.974 23.6729 57.5852 29.2007 53.6407C32.7377 51.1129 38.3303 44.9463 36.0062 32.0759C34.0618 21.3166 30.7192 12.4833 26.5896 7.21479C23.4136 3.15924 19.9785 1.35368 16.6451 2.01109C11.6544 2.98331 7.20068 9.22405 4.02476 19.6222C4.73772 19.5296 5.4692 19.4278 6.18216 19.3074C7.34883 19.1222 8.55253 19.1037 9.76549 19.2426C15.0896 19.9 19.3859 23.6685 20.7192 28.8444C20.9877 29.8815 21.1173 30.9648 21.1173 32.0389C21.1173 38.437 16.5155 43.8074 10.1636 44.7981L8.72846 45.0111C8.70068 45.0111 8.6729 45.0204 8.64512 45.0204C6.53401 45.3259 4.36734 45.5666 2.20993 45.7426Z" fill="var(--fill-0, #1B6025)"/>
</g>
</svg>
