<svg preserveAspectRatio="none" width="100%" height="100%" overflow="visible" style="display: block;" viewBox="0 0 15.2 16.7833" fill="none" xmlns="http://www.w3.org/2000/svg">
<path id="Icon" d="M14.725 6.80833H0.475M10.7667 0.475V3.64167M4.43333 0.475V3.64167M4.275 16.3083H10.925C12.2551 16.3083 12.9202 16.3083 13.4282 16.0495C13.8751 15.8218 14.2384 15.4584 14.4661 15.0116C14.725 14.5035 14.725 13.8385 14.725 12.5083V5.85833C14.725 4.52821 14.725 3.86315 14.4661 3.35511C14.2384 2.90822 13.8751 2.54489 13.4282 2.31719C12.9202 2.05833 12.2551 2.05833 10.925 2.05833H4.275C2.94488 2.05833 2.27981 2.05833 1.77177 2.31719C1.32489 2.54489 0.961559 2.90822 0.73386 3.35511C0.475 3.86315 0.475 4.52821 0.475 5.85833V12.5083C0.475 13.8385 0.475 14.5035 0.73386 15.0116C0.961559 15.4584 1.32489 15.8218 1.77177 16.0495C2.27981 16.3083 2.94488 16.3083 4.275 16.3083Z" stroke="var(--stroke-0, white)" stroke-width="0.95" stroke-linecap="round" stroke-linejoin="round"/>
</svg>
