<svg preserveAspectRatio="none" width="100%" height="100%" overflow="visible" style="display: block;" viewBox="0 0 8.49128 11.0433" fill="none" xmlns="http://www.w3.org/2000/svg">
<path id="Vector" d="M0 0H2.15009V5.88087C2.15009 6.81411 2.1767 7.41902 2.22993 7.69548C2.322 8.13985 2.5399 8.49791 2.88372 8.76948C3.23233 9.03606 3.70696 9.16945 4.30742 9.16945C4.91757 9.16945 5.37762 9.04354 5.6875 8.79163C5.99746 8.53493 6.18385 8.22136 6.24677 7.85102C6.30977 7.48068 6.34119 6.86595 6.34119 6.00678V0H8.49128V5.70311C8.49128 7.00668 8.43316 7.92754 8.31693 8.46579C8.20078 9.00403 7.98523 9.45828 7.67047 9.82862C7.3606 10.199 6.94409 10.4952 6.42112 10.7174C5.89815 10.9346 5.2154 11.0433 4.37278 11.0433C3.35581 11.0433 2.58344 10.9248 2.05567 10.6878C1.5327 10.4458 1.11863 10.1347 0.813557 9.75449C0.508483 9.36939 0.307518 8.96693 0.210655 8.5473C0.0702487 7.92514 0 7.00668 0 5.79199V0Z" fill="var(--fill-0, white)"/>
</svg>
