<svg preserveAspectRatio="none" width="100%" height="100%" overflow="visible" style="display: block;" viewBox="0 0 40.8768 69.8592" fill="none" xmlns="http://www.w3.org/2000/svg">
<g id="Group">
<path id="Vector" d="M22.0957 69.8592C21.642 69.8592 21.2439 69.5259 21.179 69.0722L12.4476 11.0074C12.392 10.6463 12.1976 10.3314 11.892 10.1185C11.5864 9.90551 11.2253 9.83144 10.8642 9.90551L3.7994 11.3222C3.61422 11.3592 3.41978 11.3777 3.18829 11.3777C1.88274 11.3777 0.688295 10.5629 0.216072 9.34996C-0.0894831 8.55366 -0.0709668 7.69255 0.271626 6.90551C0.614218 6.12773 1.25311 5.52588 2.0494 5.22033L15.1976 0.201802C16.7531 -0.381532 18.5216 0.340695 19.2253 1.8407C19.2253 1.8407 19.2253 1.8407 19.2253 1.84996L40.7901 48.7296C40.9198 48.9981 40.9013 49.3222 40.7531 49.5815C40.605 49.8407 40.3364 50.0166 40.0401 50.0444L34.0772 50.6092C33.9105 51.1833 33.6327 52.3037 33.4105 54.1555C33.3735 54.5074 33.1327 54.7944 32.8087 54.9148C32.4753 55.0352 24.4846 58.1092 23.0124 69.0815C22.9476 69.5166 22.5587 69.8592 22.0957 69.8592ZM11.142 8.02588C11.7901 8.02588 12.4198 8.22032 12.9568 8.59995C13.679 9.10921 14.1513 9.85921 14.2809 10.7296L22.2994 64.0722C24.7901 57.0166 29.9476 54.1463 31.642 53.3777C32.0216 50.5444 32.5031 49.4518 32.5587 49.3314C32.6975 49.0352 32.9846 48.8314 33.3087 48.8037L38.5679 48.3037L17.5494 2.61847C17.2531 1.98884 16.5124 1.68329 15.855 1.93329L2.71607 6.9518C2.38274 7.08143 2.11422 7.33144 1.97533 7.65551C1.82719 7.97958 1.82718 8.34069 1.95681 8.67403C2.15126 9.18329 2.65125 9.52588 3.20681 9.52588C3.30866 9.52588 3.38274 9.51662 3.44755 9.50736L10.5124 8.0907C10.7161 8.0444 10.929 8.02588 11.142 8.02588Z" fill="var(--fill-0, #1B6025)"/>
</g>
</svg>
