<svg preserveAspectRatio="none" width="100%" height="100%" overflow="visible" style="display: block;" viewBox="0 0 140.324 81.3779" fill="none" xmlns="http://www.w3.org/2000/svg">
<g id="Group">
<path id="Vector" d="M52.0468 81.3779C38.4265 81.3779 25.232 79.1093 15.1394 70.4149C-0.0642722 57.3038 -0.00870833 21.4982 0.000550932 19.9797C0.000550932 19.8316 0.0375835 19.6834 0.111658 19.5538C0.370917 19.063 7.18573 7.47044 68.0283 1.74822C128.862 -3.974 137.723 6.14637 138.065 6.58156C138.158 6.70193 138.223 6.83156 138.251 6.97971C138.547 8.47045 145.278 43.6464 132.778 59.3501C119.741 75.7575 96.1672 77.9705 75.3709 79.9242C67.8061 80.6279 59.8617 81.3779 52.0468 81.3779ZM1.86166 20.2667C1.88944 23.7019 2.48202 57.0445 16.3524 68.9982C31.6209 82.1556 54.7783 79.9797 75.2043 78.0631C95.6302 76.1464 118.788 73.9705 131.334 58.1834C142.732 43.8501 137.102 10.9797 136.491 7.60007C135.13 6.43341 123.491 -1.62215 68.2043 3.5723C12.9172 8.78526 2.98203 18.8779 1.86166 20.2667Z" fill="var(--fill-0, #1B6025)"/>
</g>
</svg>
