<svg preserveAspectRatio="none" width="100%" height="100%" overflow="visible" style="display: block;" viewBox="0 0 43.588 35.1575" fill="none" xmlns="http://www.w3.org/2000/svg">
<g id="Group">
<path id="Vector" d="M16.7616 35.1574C16.5116 35.1574 16.2801 35.0556 16.1042 34.8889L0.270833 19.0093C-0.0902778 18.6481 -0.0902778 18.0648 0.270833 17.7037L7.75232 10.2407C7.92824 10.0648 8.15972 9.97222 8.40972 9.97222C8.65972 9.97222 8.8912 10.0741 9.06713 10.2407L16.7801 17.9815L34.5394 0.268519C34.7153 0.0925935 34.9468 0 35.1968 0C35.4468 0 35.6783 0.101853 35.8542 0.268519L43.3171 7.75C43.6782 8.11111 43.6782 8.69444 43.3171 9.05556L17.419 34.8796C17.2431 35.0556 17.0023 35.1574 16.7616 35.1574ZM2.2338 18.3519L16.7616 32.9167L41.3542 8.39815L35.1968 2.22222L17.4375 19.9352C17.2616 20.1111 17.0301 20.2037 16.7801 20.2037C16.5301 20.2037 16.2986 20.1019 16.1227 19.9352L8.40972 12.1944L2.2338 18.3519Z" fill="var(--fill-0, #1B6025)"/>
</g>
</svg>
