<svg preserveAspectRatio="none" width="100%" height="100%" overflow="visible" style="display: block;" viewBox="0 0 8.72913 11.6085" fill="none" xmlns="http://www.w3.org/2000/svg">
<path id="Vector" d="M3.43219 0C5.13733 0 6.44639 0.303609 7.35947 0.910809C8.27255 1.50697 8.72913 2.48953 8.72913 3.85846C8.72913 5.23846 8.26707 6.23758 7.34295 6.85582C6.41892 7.46302 5.09882 7.76662 3.38272 7.76662H2.57414V11.6085H0V0.298089C0.560988 0.187689 1.15501 0.110409 1.78207 0.0662488C2.40914 0.0220888 2.95917 0 3.43219 0ZM3.59719 2.20249C3.41019 2.20249 3.2232 2.20801 3.0362 2.21905C2.86016 2.23008 2.70619 2.24113 2.57414 2.25217V5.56414H3.38272C4.27381 5.56414 4.94486 5.4427 5.39587 5.19982C5.84689 4.95694 6.0724 4.5043 6.0724 3.8419C6.0724 3.52174 6.01189 3.25678 5.89088 3.04704C5.78091 2.83729 5.61591 2.67169 5.39587 2.55024C5.18679 2.41777 4.92834 2.32945 4.62033 2.28528C4.31223 2.23008 3.97127 2.20249 3.59719 2.20249Z" fill="var(--fill-0, white)"/>
</svg>
