<svg preserveAspectRatio="none" width="100%" height="100%" overflow="visible" style="display: block;" viewBox="0 0 32.1412 69.3516" fill="none" xmlns="http://www.w3.org/2000/svg">
<path id="Vector" d="M29.5926 3.2033C30.8241 3.41626 31.6389 4.60145 31.4074 5.84219C31.2037 6.907 30.2685 7.68479 29.1852 7.68479C29.176 7.68479 29.1759 7.68479 29.1667 7.68479L21.963 7.61071C20.6759 7.59219 19.6389 8.66627 19.6852 9.96256L21.9352 68.6385L21.8519 68.657C18.7408 55.2866 8.20373 53.5737 8.20373 53.5737L8.11113 53.6107C7.59261 52.3329 7.25003 51.8607 7.25003 51.8607L0.694454 52.4811L13.1482 2.407C13.4352 1.25886 14.5741 0.518117 15.7315 0.73108L29.5926 3.2033Z" fill="var(--fill-0, #1B6025)" stroke="var(--stroke-0, #1B6025)" stroke-width="1.38889" stroke-miterlimit="10" stroke-linecap="round" stroke-linejoin="round"/>
</svg>
