<svg preserveAspectRatio="none" width="100%" height="100%" overflow="visible" style="display: block;" viewBox="0 0 46.2931 9.07555" fill="none" xmlns="http://www.w3.org/2000/svg">
<g id="Verifone_1_">
<path id="Verifone_2_1_" fill-rule="evenodd" clip-rule="evenodd" d="M18.9595 1.83159H20.8406L21.1458 0.280514H19.2647L18.9595 1.83159ZM18.7615 2.82164H20.6425L19.4462 8.9352C19.3637 8.96821 19.0915 9.07546 18.7202 9.07546C18.2169 9.07546 17.7549 8.87745 17.7549 8.17617C17.7549 8.04416 17.7714 7.89565 17.8044 7.72239C18.1839 5.8083 18.7615 2.82164 18.7615 2.82164ZM37.4321 2.68139C36.1781 2.68139 35.6831 3.42392 35.4521 3.8777H35.4273L35.5016 2.82164H33.6452C33.637 3.05266 33.5545 3.78694 33.4307 4.42222C33.4307 4.42222 33.0017 6.64159 32.9192 7.06236C32.8532 7.38413 32.7459 7.86265 32.7459 8.14316C32.7459 8.73719 33.0429 9.06721 33.703 9.06721C34.0742 9.06721 34.3382 8.96821 34.4372 8.92695L35.056 5.74229C35.2293 4.86775 35.8563 4.29022 36.5989 4.29022C37.2011 4.29022 37.4817 4.73574 37.4817 5.09876C37.4817 5.41228 37.4074 5.76704 37.3414 6.07231L37.0774 7.43363C37.0444 7.59864 36.9784 7.91215 36.9784 8.15967C36.9784 8.76195 37.3166 9.05896 37.9437 9.05896C38.2902 9.05896 38.513 8.96821 38.6697 8.9187L39.2307 6.06406C39.3545 5.42053 39.3958 5.08226 39.3958 4.66974C39.3958 3.50643 38.711 2.68139 37.4321 2.68139ZM29.0827 4.15821C28.0349 4.15821 27.4491 5.24727 27.4491 6.22082C27.4491 7.03761 27.8122 7.59039 28.6455 7.59039C29.586 7.59039 30.3203 6.78184 30.3203 5.39577C30.312 4.76874 29.982 4.15821 29.0827 4.15821ZM28.53 9.07546C26.5168 9.07546 25.5515 7.84615 25.5515 6.28682C25.5515 4.14171 27.0036 2.68964 29.2395 2.68964C31.1866 2.68964 32.2179 3.88595 32.2179 5.42053C32.2179 7.71414 30.6668 9.07546 28.53 9.07546ZM21.4841 7.59864C21.4428 7.8214 21.4181 7.96991 21.4181 8.15967C21.4181 8.86095 21.8801 9.06721 22.3669 9.06721C22.7547 9.06721 23.0022 8.95996 23.0847 8.92695L23.9922 4.29847H25.4525L25.7413 2.82164H24.281L24.3552 2.45863C24.4872 1.77384 24.8008 1.47683 25.3535 1.47683C25.7166 1.47683 26.0136 1.54283 26.1208 1.56758L26.3931 0.165008C26.2693 0.132007 25.7248 0 24.9245 0C23.654 0 22.8124 0.78379 22.5731 2.05435L22.4246 2.82989H21.4758L21.1871 4.30672H22.1359C22.1359 4.29847 21.7564 6.22082 21.4841 7.59864ZM17.1609 2.68139C16.2203 2.68139 15.7005 3.34967 15.4943 3.8777H15.4695L15.5438 2.82164H13.6874C13.6709 3.18466 13.5967 3.81169 13.4069 4.78524C13.2172 5.77529 13.0274 6.75709 12.8377 7.71414C12.8047 7.87915 12.7881 8.03591 12.7881 8.17617C12.7881 8.67944 13.0357 9.07546 13.7534 9.07546C14.1082 9.07546 14.3557 8.98471 14.4795 8.9352L15.0323 6.10531C15.2303 5.02451 15.5933 4.30672 16.6411 4.30672C17.1196 4.30672 17.5734 4.41397 17.6641 4.43873L17.9859 2.80514C17.9117 2.78039 17.6394 2.68139 17.1609 2.68139ZM44.4285 5.29677C44.5275 4.73574 44.2057 4.15821 43.4797 4.15821C42.5969 4.15821 42.2091 4.76874 42.0359 5.29677H44.4285ZM45.27 7.57389C45.27 8.42368 44.4615 9.07546 43.0259 9.07546C41.0458 9.07546 40.0723 7.8214 40.0723 6.28682C40.0723 4.76049 41.0706 2.68964 43.4962 2.68964C45.0968 2.68964 46.2931 3.49818 46.2931 5.35452C46.2931 5.8083 46.1941 6.30332 46.1528 6.50133H41.8956C41.8874 6.94685 42.2586 7.71414 43.7355 7.71414C44.3955 7.71414 45.1463 7.47488 45.2618 7.41713C45.27 7.45838 45.27 7.54088 45.27 7.57389ZM10.4615 5.29677C10.5605 4.73574 10.2388 4.15821 9.51273 4.15821C8.62994 4.15821 8.24217 4.76874 8.06891 5.29677H10.4615ZM11.2948 7.57389C11.2948 8.42368 10.4863 9.07546 9.05071 9.07546C7.07061 9.07546 6.10531 7.8214 6.10531 6.28682C6.10531 4.76049 7.10361 2.68964 9.52923 2.68964C11.1298 2.68964 12.3261 3.49818 12.3261 5.35452C12.3261 5.8083 12.2271 6.30332 12.1859 6.50133H7.92865C7.9204 6.94685 8.29167 7.71414 9.7685 7.71414C10.4285 7.71414 11.1793 7.47488 11.2948 7.41713C11.2948 7.45838 11.2948 7.54088 11.2948 7.57389ZM0 0.742538H1.88935V6.81485C1.88935 7.73064 2.33487 8.19267 3.05266 8.19267C3.12691 8.19267 3.16816 8.18442 3.18466 8.17617C2.87115 8.66294 2.45862 9.05896 1.52633 9.05896C0.536277 9.06721 0 8.36593 0 7.31812V0.742538Z" fill="var(--fill-0, white)"/>
<path id="V_1_" fill-rule="evenodd" clip-rule="evenodd" d="M2.54118 5.98954C2.45868 6.12155 2.41742 6.27006 2.41742 6.42682V6.82284C2.41742 7.44162 2.74744 7.65613 3.10221 7.65613C3.46523 7.65613 3.66324 7.40037 3.84475 7.11985C4.14176 6.64958 7.8132 0.742276 7.8132 0.742276H5.8496L2.54118 5.98954Z" fill="var(--fill-0, #00A3DA)"/>
</g>
</svg>
