<svg preserveAspectRatio="none" width="100%" height="100%" overflow="visible" style="display: block;" viewBox="0 0 79.405 21.2027" fill="none" xmlns="http://www.w3.org/2000/svg">
<g id="Group_2">
<path id="Vector" fill-rule="evenodd" clip-rule="evenodd" d="M4.64342 9.8912C4.63555 9.84401 4.6368 9.79561 4.64711 9.74888C4.65743 9.70205 4.6766 9.65789 4.70352 9.61879C4.9505 9.6612 5.20077 9.68163 5.45186 9.68071C5.9411 9.69368 6.42633 9.58696 6.86785 9.36929C7.7973 8.86687 8.14142 7.93324 8.14142 6.78407C8.14142 4.86851 7.12882 3.59457 4.96367 3.59457C4.64919 3.5776 4.3347 3.62004 4.03504 3.71933C3.95002 3.7939 3.89391 3.89756 3.87698 4.0113C3.83581 4.48997 3.81688 5.11718 3.81688 8.99586C3.81688 12.2473 3.81688 13.0807 3.87698 13.7461C3.86471 13.9574 3.9309 14.1656 4.06208 14.3285C4.19325 14.4912 4.37961 14.5965 4.58332 14.6229C5.04352 14.7196 5.50866 14.7884 5.97627 14.8282C6.06515 15.1011 6.05194 15.3983 5.93922 15.6617C5.28885 15.6617 3.7148 15.5997 2.90636 15.5997C1.95386 15.5997 0.537038 15.6617 0.0957747 15.6617C-0.00196293 15.4028 -0.0101045 15.1172 0.0727239 14.8529C0.467886 14.8155 0.860576 14.7536 1.24833 14.6661C1.77274 14.5176 1.79168 14.1008 1.83284 13.4974C1.83284 12.7455 1.87482 10.6814 1.87482 9.01536V4.65802C1.87482 3.96886 1.69865 3.7431 1.05321 3.6141C0.719866 3.53506 0.381476 3.4806 0.040617 3.45114C-0.0295495 3.18038 -0.00835782 2.89307 0.100715 2.63637C0.365802 2.63637 1.61961 2.69917 2.59023 2.69917H6.16727C7.1559 2.6581 8.13165 2.9416 8.95398 3.50886C9.37412 3.85908 9.70949 4.30526 9.93349 4.81213C10.1575 5.319 10.2641 5.87265 10.2448 6.42931C10.2524 7.19785 10.0478 7.95277 9.65476 8.60587C9.26176 9.25907 8.6966 9.78338 8.02535 10.1178C7.33462 10.4724 6.57162 10.6514 5.8001 10.6398C5.50784 10.6483 5.21559 10.6084 4.93568 10.5201C4.78939 10.342 4.69164 10.127 4.65248 9.89718L4.64342 9.8912ZM11.3274 14.6321C11.6304 14.6033 11.9284 14.5337 12.2149 14.426C12.3135 14.3734 12.3961 14.2938 12.4536 14.1958C12.5109 14.0978 12.5408 13.9854 12.54 13.8708C12.6232 13.3489 12.6421 11.9553 12.6421 8.45517C12.6421 6.93259 12.6421 4.55278 12.6001 3.86786C12.6001 3.69981 12.559 3.22114 12.2749 3.15918C12.0749 3.0828 11.6106 3.01999 11.0623 2.93427C10.9602 2.87146 10.9602 2.33082 11.1043 2.24935C12.2292 2.1231 13.335 1.85605 14.3973 1.4541C14.4854 1.522 14.5497 1.61791 14.5784 1.72739C14.4245 2.16705 14.3628 2.63539 14.3973 3.10147C14.3973 4.1454 14.3973 6.60159 14.3561 8.4399C14.3561 11.6303 14.3792 12.9806 14.3973 13.545C14.4163 14.1102 14.4582 14.3352 14.8625 14.4404C15.1424 14.5405 15.4347 14.6033 15.731 14.6271C15.7986 14.91 15.7622 15.2087 15.6289 15.4657C15.1638 15.4657 14.6163 15.3978 13.3666 15.3978C12.554 15.3978 11.5456 15.4657 11.2813 15.4657C11.1962 15.1916 11.2044 14.8957 11.3044 14.6271L11.3274 14.6321ZM21.2723 11.3374C20.71 11.5624 19.4142 11.9604 18.9499 12.2329C18.7936 12.423 18.7078 12.6643 18.7078 12.9135C18.704 13.0996 18.7381 13.2843 18.8079 13.456C18.8778 13.6276 18.9817 13.7822 19.1129 13.9099C19.2443 14.0375 19.4002 14.1353 19.5705 14.1971C19.7408 14.2588 19.9218 14.283 20.1017 14.2681C20.4484 14.2504 20.7841 14.1364 21.0731 13.9379C21.158 13.8817 21.2288 13.8053 21.2794 13.7154C21.3301 13.6253 21.3592 13.5242 21.3645 13.4202C21.4024 13.1478 21.4024 11.8161 21.4024 11.4385C21.4024 11.4385 21.3415 11.3137 21.2814 11.3374H21.2723ZM21.1834 8.709C21.0129 8.46447 20.7873 8.26641 20.5259 8.13199C20.2646 7.99756 19.9754 7.9308 19.6834 7.93748C19.36 7.9053 19.035 7.97926 18.7548 8.14881C18.4051 8.60523 18.1188 9.10966 17.9044 9.64768C17.8212 9.75293 17.0959 9.39808 17.1338 9.21141C17.249 8.70468 17.4392 8.2201 17.7002 7.77538C18.5319 7.20916 19.4679 6.82603 20.4498 6.64997C20.8695 6.63902 21.2848 6.73886 21.6564 6.93999C22.028 7.14112 22.3436 7.43687 22.573 7.79914C22.941 8.43226 23.1164 9.16385 23.0785 9.90141C23.0785 10.964 22.9995 12.5919 22.9995 13.4686C22.9995 13.9473 23.1806 14.2392 23.7848 14.2392C24.0318 14.2392 24.2772 14.2028 24.5143 14.134C24.534 14.4099 24.4993 14.6871 24.4122 14.9487C23.9298 15.3969 23.3056 15.6486 22.6562 15.6566C22.4326 15.6838 22.2061 15.6402 22.0071 15.5316C21.808 15.4232 21.6457 15.2548 21.5415 15.0489C21.4681 14.9053 21.4133 14.7523 21.3785 14.594C21.3785 14.5702 21.3003 14.5516 21.2814 14.5702C20.1288 15.3026 19.3813 15.6566 18.7539 15.6566C18.3135 15.6101 17.9037 15.4031 17.5981 15.0726C17.1388 14.5629 16.886 13.8911 16.8918 13.1953C16.9258 12.7148 17.0863 12.2528 17.3561 11.8594C18.1415 11.4766 20.4358 10.9598 21.2534 10.5185C21.3159 10.461 21.3639 10.3888 21.3933 10.308C21.4229 10.1925 21.4369 10.0737 21.4345 9.95404C21.4647 9.52035 21.3745 9.08666 21.1743 8.70385L21.1834 8.709ZM27.2129 9.47536C27.2129 10.706 27.7373 12.0181 29.1311 12.0181C29.4596 12.012 29.7754 11.8863 30.0227 11.6634C30.4039 11.1999 30.5999 10.6043 30.5709 9.99728C30.5709 8.76669 30.0836 7.57847 28.6898 7.57847C27.8402 7.57847 27.2129 8.26848 27.2129 9.49404V9.47536ZM32.0478 17.5051C32.0585 17.1937 31.9658 16.8879 31.7852 16.638C31.6046 16.3882 31.3468 16.2094 31.0542 16.131C30.2415 15.8881 29.3962 15.7816 28.5507 15.8153C28.2953 15.8099 28.0433 15.876 27.8213 16.0063C27.0738 16.4858 26.7717 16.9644 26.7717 17.5051C26.7686 17.7541 26.8215 18.0005 26.9261 18.2248C27.0308 18.4492 27.1845 18.6456 27.3751 18.7986C27.974 19.278 28.7226 19.5147 29.4793 19.464C31.2773 19.464 32.0478 18.4438 32.0478 17.5051ZM31.2584 7.30603C31.6206 7.44352 32.0059 7.50888 32.392 7.49699C32.619 7.51988 32.8481 7.48861 33.0615 7.40561C33.2749 7.32261 33.4669 7.19009 33.6228 7.01832C33.7059 7.01832 33.9479 7.16684 33.966 7.20503C33.9067 7.6604 33.7479 8.09598 33.5018 8.479C33.4052 8.59501 33.2832 8.68554 33.1459 8.74313C33.0086 8.80073 32.8599 8.82363 32.7122 8.80992H32.2479C32.2249 8.80992 32.187 8.85243 32.187 8.87193C32.2323 9.09936 32.2619 9.33019 32.2759 9.56111C32.3184 10.091 32.2269 10.6232 32.0103 11.1058C31.7938 11.5883 31.4595 12.0047 31.0402 12.3143C30.422 12.7952 29.6876 13.0917 28.917 13.1716L28.4528 13.2097C28.3136 13.253 27.9884 13.4211 27.9884 13.6892C27.9884 14.0669 28.3325 14.2537 28.8569 14.2969C29.9297 14.3784 31.5465 14.4599 32.252 14.7137C32.6668 14.8607 33.0253 15.14 33.2759 15.511C33.5265 15.8821 33.656 16.3258 33.6458 16.7778C33.6458 18.1085 32.7583 19.464 31.1003 20.2974C30.3511 20.6725 29.5278 20.8661 28.6948 20.8618C27.7672 20.9167 26.8502 20.6357 26.1023 20.0674C25.8159 19.8397 25.5811 19.5504 25.4143 19.2195C25.2476 18.8887 25.1528 18.5243 25.1367 18.1518C25.1432 17.8607 25.1968 17.573 25.2948 17.2997C25.8633 16.7294 26.4858 16.219 27.1528 15.7763V15.7338C26.8716 15.6428 26.6155 15.4841 26.4055 15.2708C26.1955 15.0576 26.0377 14.7959 25.9451 14.5074C25.9599 14.3428 26.001 14.1807 26.0653 14.0287C26.3674 13.8182 27.0778 13.4261 27.38 13.1529C27.3931 13.1387 27.4004 13.1198 27.4004 13.1003C27.4004 13.0807 27.3931 13.0618 27.38 13.0476C26.3073 12.6742 25.4799 11.8169 25.4799 10.1306C25.4763 9.66442 25.5806 9.20405 25.7842 8.78775C25.9878 8.37149 26.2848 8.01132 26.6507 7.73718C27.4282 7.20632 28.3298 6.90033 29.2611 6.85112C29.9449 6.86899 30.6187 7.02349 31.2452 7.30603H31.2584ZM41.5095 14.1297C42.0905 14.5335 42.7843 14.7286 43.4837 14.6848C44.3522 14.661 45.5739 14.1297 45.5368 12.5494C45.5088 11.256 44.7284 10.7103 42.8201 9.67564C40.9102 8.64193 39.6193 7.67013 39.5683 5.71128C39.5403 3.39852 41.3383 2.06179 43.6088 2.00492C44.7178 2.0185 45.8234 2.12374 46.9158 2.32064C46.7907 3.01066 46.7026 4.36606 46.6425 5.39047C46.5865 5.53899 45.9592 5.55342 45.8571 5.4329C45.7089 4.33211 45.5179 3.66672 45.0536 3.33656C44.538 3.02229 43.942 2.87696 43.3446 2.91985C43.0815 2.91262 42.8198 2.96022 42.5749 3.05979C42.3302 3.15934 42.1074 3.30881 41.92 3.49925C41.7326 3.68968 41.5844 3.91715 41.4843 4.16804C41.3842 4.41892 41.3343 4.68806 41.3375 4.95932C41.3655 6.14753 41.8808 6.63554 42.7823 7.19569C43.6838 7.75585 44.7704 8.187 45.5088 8.63255C46.6565 9.29292 47.441 10.1501 47.4781 11.649C47.525 13.6502 45.9131 15.6286 42.9033 15.6999C41.8481 15.6922 40.8025 15.4928 39.8144 15.1108C39.6284 14.8665 39.15 12.5639 39.071 11.7924C39.1039 11.6056 39.7865 11.419 39.9116 11.5004C40.3249 12.7403 40.771 13.6265 41.5095 14.1535V14.1297ZM56.3733 15.6761C55.7837 15.7057 55.196 15.5837 54.6633 15.3212C54.1307 15.0587 53.6696 14.6639 53.3216 14.1721C52.7687 13.3245 52.486 12.3203 52.5131 11.2993C52.4989 10.5303 52.6893 9.77215 53.0636 9.1069C53.4379 8.44165 53.9818 7.89488 54.6363 7.52584C55.429 7.01482 56.332 6.71393 57.2649 6.64997C57.8848 6.62875 58.4999 6.7586 59.0621 7.02765C59.3321 7.1278 59.556 7.32724 59.6894 7.58781C59.7042 7.72275 59.6902 7.85854 59.6482 7.98585C59.4836 8.37202 59.2177 8.70302 58.8818 8.94323C58.8175 8.97258 58.7459 8.98114 58.6768 8.9678C58.1747 8.48829 57.3859 7.77962 56.3552 7.77962C54.8174 7.77962 54.2502 9.15456 54.2502 10.5091C54.2227 11.4109 54.5003 12.2946 55.0356 13.0086C55.3098 13.3493 55.6577 13.619 56.0512 13.7961C56.4448 13.9733 56.8732 14.053 57.3019 14.0287C57.7454 14.0288 58.1846 13.9387 58.5942 13.7637C59.0038 13.5887 59.376 13.332 59.6894 13.0086C59.7269 13.0303 59.7591 13.0607 59.7834 13.0974C59.8076 13.134 59.8234 13.176 59.8294 13.2199C59.8255 13.4892 59.7782 13.7559 59.6894 14.0092C59.284 14.5073 58.78 14.9104 58.2113 15.1912C57.6425 15.4721 57.022 15.6245 56.3915 15.6379L56.3733 15.6761ZM65.4728 11.3281C64.9056 11.553 63.6147 11.9503 63.1504 12.2235C62.9949 12.4159 62.9093 12.6581 62.9083 12.9084C62.9039 13.0968 62.9384 13.284 63.0095 13.4575C63.0805 13.6311 63.1866 13.7871 63.3205 13.9153C63.4545 14.0434 63.6133 14.1408 63.7865 14.2008C63.9597 14.2609 64.1433 14.2825 64.3251 14.2639C64.6709 14.2452 65.0068 14.1306 65.2966 13.9329C65.3768 13.8733 65.4423 13.7949 65.4874 13.7041C65.5325 13.6133 65.5559 13.5129 65.5559 13.4108C65.597 13.1384 65.597 11.8068 65.597 11.4282C65.597 11.4282 65.5378 11.3043 65.4768 11.3281H65.4728ZM65.3748 8.69962C65.2054 8.45508 64.9805 8.25692 64.7198 8.12245C64.459 7.988 64.1704 7.92129 63.8789 7.92814C63.5557 7.8964 63.2309 7.97002 62.9503 8.13863C62.6023 8.59621 62.3162 9.10046 62.0998 9.63747C62.0217 9.74271 61.2923 9.38879 61.3343 9.20203C61.447 8.69483 61.6383 8.2097 61.9007 7.76519C62.7323 7.199 63.6684 6.81587 64.6503 6.63978C65.0697 6.63004 65.4846 6.7305 65.8558 6.93169C66.2271 7.13288 66.5427 7.42819 66.7727 7.7898C67.1409 8.4226 67.3172 9.15437 67.2789 9.8912C67.2789 10.9547 67.1958 12.5826 67.1958 13.4592C67.1958 13.9379 67.3769 14.2299 67.9853 14.2299C68.2323 14.2282 68.4768 14.1926 68.7148 14.1247C68.7296 14.4005 68.6949 14.6763 68.6127 14.9394C68.1374 15.3821 67.5241 15.635 66.8838 15.6523C66.6608 15.6791 66.4351 15.6352 66.2369 15.5265C66.0387 15.4177 65.8772 15.2495 65.7741 15.0438C65.6988 14.9011 65.6442 14.7479 65.6118 14.5889C65.6118 14.5652 65.5329 14.5465 65.5098 14.5652C64.3572 15.2976 63.6098 15.6515 62.9824 15.6515C62.5434 15.604 62.1351 15.397 61.8307 15.0676C61.3698 14.5592 61.117 13.8869 61.1251 13.1911C61.1568 12.71 61.3176 12.2475 61.5895 11.8552C62.3551 11.4622 64.6413 10.9598 65.467 10.5235C65.5312 10.4666 65.5809 10.3943 65.6118 10.313C65.6423 10.1977 65.6563 10.078 65.653 9.95827C65.6817 9.5244 65.59 9.09117 65.3888 8.709L65.3748 8.69962ZM70.4008 14.4837C70.6839 14.4217 70.8231 14.1917 70.865 13.8369C70.9021 13.253 70.9021 11.7737 70.9021 10.4378V8.93808C70.8231 8.64534 70.4378 8.35335 69.7496 8.01811C69.7167 7.79917 69.7688 7.57567 69.8945 7.396C70.8015 7.2744 71.6859 7.01468 72.5189 6.62536C72.5501 6.64255 72.5773 6.66633 72.5989 6.69515C72.6205 6.72397 72.6359 6.75717 72.6441 6.79256C72.6441 6.8978 72.621 7.626 72.621 7.95615C72.621 7.99859 72.7231 7.99859 72.7413 7.97991C73.6148 7.20927 74.6644 6.64402 75.4538 6.64402C75.8616 6.6385 76.264 6.73866 76.6244 6.93531C76.9847 7.13195 77.2913 7.41876 77.5161 7.76943C77.9167 8.53604 78.0958 9.40489 78.0323 10.2732C78.0323 11.4995 78.0323 13.3769 78.0694 14.0228C78.0884 14.1329 78.1385 14.2347 78.2134 14.3156C78.5773 14.4853 78.9667 14.5906 79.3651 14.6263C79.4392 14.9063 79.4096 15.2059 79.2812 15.4647C79.0029 15.4647 78.2925 15.3968 77.1818 15.3968C76.2903 15.3968 75.686 15.4647 75.1617 15.4647C75.0568 15.1957 75.0568 14.8954 75.1617 14.6263C75.4429 14.6107 75.7209 14.5562 75.9882 14.4642C76.2533 14.3776 76.3134 14.1908 76.3134 13.4389C76.3134 12.064 76.3134 10.4794 76.2533 9.69009C76.2174 9.24499 76.024 8.82897 75.7099 8.52141C75.3648 8.22303 74.9243 8.06755 74.4742 8.08516C73.8688 8.09164 73.2837 8.31146 72.8162 8.70808C72.7308 8.79806 72.6662 8.9068 72.6276 9.02622C72.5889 9.14563 72.5771 9.2725 72.5931 9.39725C72.5931 10.8342 72.5931 12.8982 72.6342 13.8794C72.6342 14.2528 72.7371 14.4208 73.0574 14.5023C73.3298 14.5719 73.6089 14.6136 73.8888 14.6263C73.9613 14.9063 73.9333 15.2042 73.8098 15.4647C73.5036 15.4647 72.8812 15.3968 71.7246 15.3968C70.8741 15.3968 69.8665 15.4647 69.6434 15.4647C69.5409 15.1953 69.5409 14.8958 69.6434 14.6263C69.8953 14.5957 70.1456 14.5481 70.3908 14.4828L70.4008 14.4837ZM50.776 16.0691C50.7444 16.0696 50.7135 16.0595 50.6879 16.0402L50.5768 15.9443L49.6194 15.0531V14.9242L50.1446 14.3258H50.2698L51.3334 15.3646V15.4028C51.4594 15.4028 51.2124 15.7865 51.1992 15.8009L51.0691 15.9247C50.9943 16.0146 50.8899 16.0727 50.776 16.0878" fill="var(--fill-0, white)"/>
<path id="Vector_2" fill-rule="evenodd" clip-rule="evenodd" d="M55.4858 21.2026C54.9666 21.1385 54.4877 20.8814 54.139 20.4795L50.9151 17.0991C50.8001 16.9998 50.7053 16.878 50.636 16.7408C50.5668 16.6037 50.5246 16.4537 50.5117 16.2996C50.502 16.1942 50.5126 16.0878 50.5428 15.9865C50.573 15.8853 50.6224 15.7913 50.6879 15.7097L50.776 15.6044C50.8516 15.5285 50.9409 15.4687 51.039 15.4285C51.137 15.3883 51.2418 15.3686 51.3474 15.3702C51.6437 15.3813 51.9253 15.5094 52.1319 15.7293L55.6348 18.7796C56.7957 19.8914 56.4285 20.5661 56.2194 20.8055L56.1272 20.9107C56.0466 21.0036 55.9477 21.0777 55.8371 21.128C55.7265 21.1784 55.6067 21.2038 55.4858 21.2026Z" fill="var(--fill-0, white)"/>
<path id="Vector_3" fill-rule="evenodd" clip-rule="evenodd" d="M50.2929 16.1364C50.1585 16.108 50.0356 16.0381 49.9405 15.9362V15.7876C50.1373 15.6722 50.3184 15.5304 50.4789 15.3658C50.6074 15.1994 50.7193 15.0195 50.8131 14.8294L50.9572 14.8057C51.0173 14.8778 51.1663 15.0552 51.1663 15.1697C51.1663 15.2843 50.4649 16.1559 50.2937 16.1559" fill="var(--fill-0, white)"/>
<path id="Vector_4" fill-rule="evenodd" clip-rule="evenodd" d="M50.1629 16.0122C50.0415 16.0166 49.9232 15.9719 49.8336 15.8874L49.4055 15.48C49.3011 15.3692 49.2428 15.2208 49.2428 15.0663C49.2428 14.9118 49.3011 14.7634 49.4055 14.6526L49.6335 14.3844C49.6915 14.3157 49.7628 14.2603 49.8427 14.2216C49.9227 14.1828 50.0095 14.1617 50.0978 14.1595C50.2183 14.1573 50.3349 14.2035 50.423 14.2884L50.8552 14.6908C50.9598 14.8016 51.0183 14.9502 51.0183 15.1049C51.0183 15.2596 50.9598 15.4082 50.8552 15.5191L50.6279 15.7873C50.5699 15.8561 50.4985 15.9116 50.4184 15.9503C50.3383 15.9891 50.2513 16.0101 50.1629 16.0122Z" fill="var(--fill-0, white)"/>
<path id="Vector_5" fill-rule="evenodd" clip-rule="evenodd" d="M49.3592 14.0585C48.6913 14.8761 47.8737 15.5501 46.953 16.042C46.0324 16.5339 45.0268 16.834 43.9937 16.9253C42.9605 17.0164 41.9201 16.897 40.9318 16.5736C39.9434 16.2503 39.0265 15.7295 38.2334 15.0409C36.6317 13.6501 35.6314 11.6604 35.4527 9.50932C35.2739 7.35828 35.9315 5.22215 37.2805 3.57086C38.6295 1.91956 40.5595 0.888366 42.646 0.704136C44.7326 0.519897 46.8046 1.19771 48.4063 2.58846C50.008 3.97921 51.0083 5.96897 51.187 8.12002C51.3658 10.2711 50.7082 12.4072 49.3592 14.0585ZM48.8949 2.08729C47.6052 0.961672 46.0209 0.255231 44.342 0.0571682C42.6631 -0.140898 40.9649 0.178292 39.4619 0.974432C37.9589 1.77057 36.7184 3.00797 35.8969 4.5304C35.0755 6.05283 34.71 7.79204 34.8467 9.52845C34.9833 11.2649 35.6159 12.9206 36.6646 14.2866C37.7133 15.6526 39.131 16.6677 40.7389 17.2037C42.3468 17.7397 44.0727 17.7726 45.6986 17.2981C47.3246 16.8237 48.7777 15.8632 49.8746 14.538C50.6018 13.6558 51.1533 12.6345 51.4977 11.5325C51.842 10.4304 51.9724 9.26929 51.8814 8.11534C51.7905 6.96138 51.4799 5.83718 50.9675 4.80696C50.455 3.77673 49.7508 2.86066 48.8949 2.11106" fill="var(--fill-0, white)"/>
</g>
</svg>
