<svg preserveAspectRatio="none" width="100%" height="100%" overflow="visible" style="display: block;" viewBox="0 0 55.603 49.2045" fill="none" xmlns="http://www.w3.org/2000/svg">
<g id="Group">
<path id="Vector" d="M27.7903 49.2042C23.6514 49.2042 19.5681 48.2783 15.8088 46.4635C7.40144 42.4265 1.59588 34.5191 0.28107 25.3246C-0.635597 18.945 0.706994 12.4079 4.05885 6.90794C4.32736 6.47275 4.89218 6.33386 5.32737 6.60238L19.8829 15.482C20.0959 15.6117 20.244 15.8154 20.2996 16.0561C20.3551 16.2968 20.3181 16.5468 20.1885 16.7598C19.4292 17.9913 18.6051 20.0191 18.9755 22.6487C19.6792 27.5098 24.207 30.9079 29.0588 30.2042C31.4107 29.8709 33.494 28.6394 34.92 26.732C36.3459 24.8246 36.9477 22.482 36.6144 20.1302C36.3089 17.982 35.2255 16.0191 33.5681 14.6116C33.1792 14.2783 33.1329 13.695 33.4663 13.3061L44.5126 0.324604C44.8459 -0.0642853 45.4292 -0.110582 45.8181 0.222751C50.9848 4.61164 54.3644 10.7413 55.3181 17.4635C56.7996 27.7968 52.4292 37.982 43.9107 44.0468C40.3274 46.6209 36.1144 48.3061 31.7348 48.9265C30.4385 49.1117 29.1144 49.2042 27.7903 49.2042ZM5.17922 8.67646C2.39218 13.6302 1.30885 19.4079 2.12366 25.0653C3.34589 33.6487 8.76255 41.0283 16.6144 44.7968C21.2348 47.0283 26.3829 47.8153 31.494 47.0839C35.5774 46.5005 39.5033 44.9265 42.8551 42.5283C50.8089 36.8616 54.8922 27.3524 53.5126 17.7135C52.6607 11.7413 49.7718 6.28758 45.3366 2.23202L35.4755 13.8246C37.0959 15.4635 38.1422 17.5746 38.4755 19.8616C39.3088 25.7413 35.2163 31.195 29.3459 32.0376C23.4755 32.8802 18.0126 28.7876 17.17 22.9079C16.7903 20.2505 17.4292 18.1024 18.1792 16.6024L5.17922 8.67646Z" fill="var(--fill-0, #1B6025)"/>
</g>
</svg>
