<svg preserveAspectRatio="none" width="100%" height="100%" overflow="visible" style="display: block;" viewBox="0 0 72.2487 22.058" fill="none" xmlns="http://www.w3.org/2000/svg">
<g id="logo" opacity="0.8">
<path id="Vector" d="M0.887015 8.21387L0.605765 10.0354H3.4507C1.21154 12.0999 0 15.3126 0 17.3881C0 18.9226 0.475961 20.115 1.43869 20.9319C2.20672 21.5943 3.26681 21.9586 4.58652 22.047L4.71633 22.058V21.4177L4.61898 21.3956C3.41825 21.1196 1.41706 20.3026 1.39542 17.8186C1.38461 15.9639 3.25599 12.4974 5.41945 11.0401L4.84613 14.4073H6.67425L7.70187 8.22489L0.887015 8.21387Z" fill="var(--fill-0, white)"/>
<path id="Vector_2" d="M2.66103 1.43051e-08C1.71993 1.43051e-08 0.951902 0.783844 0.941089 1.73328L0.876187 6.61295L1.86056 6.624H2.83411L2.8882 1.99824H10.9362L10.9903 14.5286H8.41582L8.08047 16.5269H11.2283C12.1694 16.5269 12.9483 15.6547 12.9591 14.6942L12.9266 1.43051e-08H2.66103Z" fill="var(--fill-0, white)"/>
<path id="Vector_3" d="M29.9962 12.9164C29.9962 13.5457 29.8015 14.0315 29.4121 14.3737C29.0118 14.727 28.5576 14.9036 27.995 14.9036C27.5623 14.9036 27.2054 14.8043 26.935 14.5945C26.6645 14.3848 26.459 14.1088 26.34 13.7665C26.2102 13.4132 26.1453 13.0158 26.1453 12.5852V7.50684H24.155V13.06C24.155 14.1971 24.447 15.1024 25.0312 15.7427C25.6152 16.394 26.3833 16.7252 27.3136 16.7252C28.0168 16.7252 28.6225 16.5596 29.1308 16.2284C29.4662 16.0076 29.7583 15.7537 29.9854 15.4888V16.5596H31.9758V7.50684H29.9854V12.9164H29.9962Z" fill="var(--fill-0, white)"/>
<path id="Vector_4" d="M37.8279 7.31836C37.2655 7.31836 36.7247 7.50603 36.2163 7.85932C35.8809 8.09117 35.5997 8.37822 35.3834 8.70942V7.50603H33.3713V16.5589H35.3834V11.5798C35.3834 11.1493 35.4915 10.7739 35.6862 10.4648C35.8918 10.1557 36.1514 9.90174 36.4651 9.73614C36.9303 9.48222 37.4385 9.42702 37.882 9.53742C38.0337 9.57054 38.1525 9.6147 38.25 9.6699L38.423 9.75822L38.9423 7.57229L38.8341 7.51709C38.5853 7.37357 38.2607 7.31836 37.8279 7.31836Z" fill="var(--fill-0, white)"/>
<path id="Vector_5" d="M46.5034 7.82649C46.0488 7.48426 45.4217 7.30762 44.6212 7.30762C43.983 7.30762 43.3986 7.4732 42.8796 7.80442C42.5227 8.02522 42.2198 8.27915 41.9817 8.55507V7.48426H39.9914V16.5371H41.971V11.0944C41.971 10.7521 42.0575 10.432 42.2412 10.1449C42.4251 9.85788 42.674 9.62604 42.9875 9.44931C43.3015 9.27267 43.6585 9.18444 44.0802 9.18444C44.513 9.15123 44.8376 9.21756 45.0754 9.39411C45.3135 9.5598 45.4758 9.79155 45.573 10.1008C45.6811 10.4209 45.7245 10.7742 45.7245 11.1826V16.548H47.7038V11.0723C47.7038 10.3988 47.6173 9.76947 47.4444 9.20652C47.2714 8.63235 46.9575 8.16873 46.5034 7.82649Z" fill="var(--fill-0, white)"/>
<path id="Vector_6" d="M51.0791 7.50684H49.0887V16.5596H51.0791V7.50684Z" fill="var(--fill-0, white)"/>
<path id="Vector_7" d="M61.518 7.50684H59.5276V16.5596H61.518V7.50684Z" fill="var(--fill-0, white)"/>
<path id="Vector_8" d="M70.3772 9.20652C70.2042 8.63235 69.8796 8.16873 69.4362 7.82649C68.9816 7.48426 68.3541 7.30762 67.5537 7.30762C66.9155 7.30762 66.3315 7.4732 65.8122 7.80442C65.4552 8.02522 65.1522 8.27915 64.9145 8.55507V7.48426H62.9242V16.5371H64.9035V11.0944C64.9035 10.7521 64.9904 10.432 65.174 10.1449C65.358 9.85788 65.6068 9.62604 65.9204 9.44931C66.2343 9.27267 66.5913 9.18444 67.013 9.18444C67.4348 9.15123 67.7701 9.21756 68.0082 9.39411C68.2464 9.5598 68.4082 9.79155 68.5058 10.1008C68.614 10.4209 68.6571 10.7742 68.6571 11.1826V16.548H70.6366V11.0723C70.6366 10.3877 70.5501 9.76947 70.3772 9.20652Z" fill="var(--fill-0, white)"/>
<path id="Vector_9" d="M20.9208 5.27653H18.9304V7.50661H17.1564V9.49384H18.9304V13.7774V14.1638L18.9412 14.1526C19.0386 15.8859 19.8066 16.5594 21.6023 16.5594C22.1864 16.5594 22.5109 16.5263 22.5217 16.5263L22.6624 16.5153V14.6494L22.4893 14.6606C22.4893 14.6606 22.1107 14.6937 21.9485 14.6937C21.0939 14.6937 20.9208 14.495 20.9208 13.5014V9.4828H22.9111V7.49555H20.9208V5.27653Z" fill="var(--fill-0, white)"/>
<path id="Vector_10" d="M56.0766 5.27653H54.0862V7.50661H52.3123V9.49384H54.0862V13.7774V14.1638L54.0973 14.1526C54.1945 15.8859 54.9625 16.5594 56.7581 16.5594C57.3422 16.5594 57.6668 16.5263 57.6775 16.5263L57.8185 16.5153V14.6494L57.6451 14.6606C57.6451 14.6606 57.2668 14.6937 57.1045 14.6937C56.25 14.6937 56.0766 14.495 56.0766 13.5014V9.4828H58.0673V7.49555H56.0766V5.27653Z" fill="var(--fill-0, white)"/>
<path id="Vector_11" d="M50.0838 5.9954C50.6454 5.9954 51.1006 5.53075 51.1006 4.95764C51.1006 4.38449 50.6454 3.91988 50.0838 3.91988C49.5222 3.91988 49.0669 4.38449 49.0669 4.95764C49.0669 5.53075 49.5222 5.9954 50.0838 5.9954Z" fill="var(--fill-0, white)"/>
<path id="Vector_12" d="M60.5228 5.9954C61.0844 5.9954 61.5396 5.53075 61.5396 4.95764C61.5396 4.38449 61.0844 3.91988 60.5228 3.91988C59.9611 3.91988 59.5059 4.38449 59.5059 4.95764C59.5059 5.53075 59.9611 5.9954 60.5228 5.9954Z" fill="var(--fill-0, white)"/>
<path id="Vector_13" d="M70.6478 5.5536H70.4638V4.59312H70.1503V4.4275H70.9831V4.59312H70.6584L70.6478 5.5536ZM71.5671 5.5536L71.2642 4.68143H71.2536L71.2642 4.88015V5.5536H71.0803V4.4275H71.3618L71.6646 5.29967L71.9783 4.4275H72.2487V5.5536H72.054V4.90222L72.0647 4.69248H72.054L71.7294 5.56461L71.5671 5.5536Z" fill="var(--fill-0, white)"/>
</g>
</svg>
