<svg preserveAspectRatio="none" width="100%" height="100%" overflow="visible" style="display: block;" viewBox="0 0 89.6482 55.1403" fill="none" xmlns="http://www.w3.org/2000/svg">
<path id="Vector" d="M88.5834 38.3519C88.8426 39.3519 88.9537 40.3426 88.9537 41.3148C88.9537 47.0741 84.7685 52.2222 78.7871 53.1574C78.3056 53.2315 77.8334 53.2963 77.3611 53.3704H77.3334C74.7315 53.75 72.1852 54.0185 69.6852 54.1944C51.4722 55.5093 36.2037 51.6667 24.1389 42.6944C8.42594 31.0185 2.74075 13.75 0.694456 3.54628C4.46297 4.26851 13.4074 5.14815 24.5834 0.694445C26.1389 7.22222 29.8426 17.1667 38.5833 23.5741C46.5833 29.4537 57.6204 31.5926 71.5 29.9815C72.6759 29.8518 73.8704 29.6852 75.0926 29.4907C76.2222 29.3148 77.3426 29.3056 78.4259 29.4259C83.213 30.037 87.3241 33.4722 88.5834 38.3519Z" fill="var(--fill-0, #1B6025)" stroke="var(--stroke-0, #1B6025)" stroke-width="1.38889" stroke-miterlimit="10" stroke-linecap="round" stroke-linejoin="round"/>
</svg>
